<svg xmlns="http://www.w3.org/2000/svg" xmlns:xlink="http://www.w3.org/1999/xlink" width="690" height="277.1"><rect width="690" height="277.1" rx="5" ry="5" class="a"/><svg y="0%" x="0%"><circle cx="20" cy="20" r="6" fill="#ff5f58"/><circle cx="40" cy="20" r="6" fill="#ffbd2e"/><circle cx="60" cy="20" r="6" fill="#18c132"/></svg><svg height="217.1" viewBox="0 0 65 21.71" width="650" x="15" xmlns="http://www.w3.org/2000/svg" xmlns:xlink="http://www.w3.org/1999/xlink" y="50"><style>@keyframes k{0%{transform:translateX(0)}.02%{transform:translateX(-65px)}4.23%{transform:translateX(-130px)}5.35%{transform:translateX(-195px)}6.42%{transform:translateX(-260px)}7.9%{transform:translateX(-325px)}8.84%{transform:translateX(-390px)}9.51%{transform:translateX(-455px)}10.09%{transform:translateX(-520px)}13.48%{transform:translateX(-585px)}14.56%{transform:translateX(-650px)}15.41%{transform:translateX(-715px)}19.03%{transform:translateX(-780px)}19.47%{transform:translateX(-845px)}20.15%{transform:translateX(-910px)}22.43%{transform:translateX(-1040px)}28.19%{transform:translateX(-1105px)}28.95%{transform:translateX(-1170px)}29.31%{transform:translateX(-1235px)}30.12%{transform:translateX(-1300px)}30.78%{transform:translateX(-1365px)}32.17%{transform:translateX(-1430px)}32.75%{transform:translateX(-1495px)}33.51%{transform:translateX(-1560px)}33.82%{transform:translateX(-1625px)}34.76%{transform:translateX(-1690px)}35.48%{transform:translateX(-1755px)}35.93%{transform:translateX(-1820px)}37.94%{transform:translateX(-1885px)}41.6%{transform:translateX(-1950px)}42.68%{transform:translateX(-2015px)}44.29%{transform:translateX(-2080px)}48.04%{transform:translateX(-2145px)}49.78%{transform:translateX(-2210px)}49.79%{transform:translateX(-2340px)}60.97%{transform:translateX(-2405px)}65.13%{transform:translateX(-2470px)}65.89%{transform:translateX(-2535px)}66.16%{transform:translateX(-2600px)}67.05%{transform:translateX(-2665px)}67.64%{transform:translateX(-2730px)}68.8%{transform:translateX(-2795px)}70.45%{transform:translateX(-2860px)}71.75%{transform:translateX(-2925px)}73.14%{transform:translateX(-2990px)}73.71%{transform:translateX(-3055px)}74.57%{transform:translateX(-3120px)}75.37%{transform:translateX(-3185px)}76.26%{transform:translateX(-3250px)}77.11%{transform:translateX(-3315px)}81.31%{transform:translateX(-3380px)}83.1%{transform:translateX(-3445px)}83.11%{transform:translateX(-3510px)}92.16%{transform:translateX(-3575px)}92.24%{transform:translateX(-3640px)}to{transform:translateX(-3705px)}}.a{fill:#282d35}.f,.g,.h{white-space:pre}.f{fill:#a8cc8c;font-weight:700}.g,.h{fill:#b9c0cb}.h{fill:#71bef2;font-weight:700}</style><g font-family="Monaco,Consolas,Menlo,'Bitstream Vera Sans Mono','Powerline Symbols',monospace" font-size="1.67"><defs><symbol id="10"><text y="1.67" class="f">opera</text><text x="5.01" y="1.67" class="g">:</text><text x="6.012" y="1.67" class="h">~/xopera-opera/examples/hello</text><text x="35.07" y="1.67" class="g">$</text><text x="37.074" y="1.67" class="g">opera</text><text x="43.086" y="1.67" class="g">deploy</text><text x="50.1" y="1.67" class="g">service.yaml</text></symbol><symbol id="1"><text y="1.67" class="f">opera</text><text x="5.01" y="1.67" class="g">:</text><text x="6.012" y="1.67" class="h">~</text><text x="7.014" y="1.67" class="g">$</text><text x="9.018" y="1.67" class="g">cd</text></symbol><symbol id="3"><text y="1.67" class="f">opera</text><text x="5.01" y="1.67" class="g">:</text><text x="6.012" y="1.67" class="h">~/xopera-opera/examples/hello</text><text x="35.07" y="1.67" class="g">$</text></symbol><symbol id="4"><text y="1.67" class="f">opera</text><text x="5.01" y="1.67" class="g">:</text><text x="6.012" y="1.67" class="h">~/xopera-opera/examples/hello</text><text x="35.07" y="1.67" class="g">$</text><text x="37.074" y="1.67" class="g">o</text></symbol><symbol id="5"><text y="1.67" class="f">opera</text><text x="5.01" y="1.67" class="g">:</text><text x="6.012" y="1.67" class="h">~/xopera-opera/examples/hello</text><text x="35.07" y="1.67" class="g">$</text><text x="37.074" y="1.67" class="g">op</text></symbol><symbol id="6"><text y="1.67" class="f">opera</text><text x="5.01" y="1.67" class="g">:</text><text x="6.012" y="1.67" class="h">~/xopera-opera/examples/hello</text><text x="35.07" y="1.67" class="g">$</text><text x="37.074" y="1.67" class="g">ope</text></symbol><symbol id="7"><text y="1.67" class="f">opera</text><text x="5.01" y="1.67" class="g">:</text><text x="6.012" y="1.67" class="h">~/xopera-opera/examples/hello</text><text x="35.07" y="1.67" class="g">$</text><text x="37.074" y="1.67" class="g">oper</text></symbol><symbol id="8"><text y="1.67" class="f">opera</text><text x="5.01" y="1.67" class="g">:</text><text x="6.012" y="1.67" class="h">~/xopera-opera/examples/hello</text><text x="35.07" y="1.67" class="g">$</text><text x="37.074" y="1.67" class="g">opera</text></symbol><symbol id="9"><text y="1.67" class="f">opera</text><text x="5.01" y="1.67" class="g">:</text><text x="6.012" y="1.67" class="h">~/xopera-opera/examples/hello</text><text x="35.07" y="1.67" class="g">$</text><text x="37.074" y="1.67" class="g">opera</text><text x="43.086" y="1.67" class="g">deploy</text></symbol><symbol id="2"><text y="1.67" class="f">opera</text><text x="5.01" y="1.67" class="g">:</text><text x="6.012" y="1.67" class="h">~</text><text x="7.014" y="1.67" class="g">$</text><text x="9.018" y="1.67" class="g">cd</text><text x="12.024" y="1.67" class="g">xopera-opera/examples/hello/</text></symbol><symbol id="11"><text x="2.004" y="1.67" class="g">Deploying</text><text x="12.024" y="1.67" class="g">my-workstation_0</text></symbol><symbol id="12"><text x="2.004" y="1.67" class="g">Deploying</text><text x="12.024" y="1.67" class="g">hello_0</text></symbol><symbol id="13"><text x="4.008" y="1.67" class="g">Executing</text><text x="14.028" y="1.67" class="g">create</text><text x="21.042" y="1.67" class="g">on</text><text x="24.048" y="1.67" class="g">hello_0</text></symbol><symbol id="14"><text y="1.67" class="f">opera</text><text x="5.01" y="1.67" class="g">:</text><text x="6.012" y="1.67" class="h">~/xopera-opera/examples/hello</text><text x="35.07" y="1.67" class="g">$</text><text x="37.074" y="1.67" class="g">opera</text><text x="43.086" y="1.67" class="g">undeploy</text></symbol><symbol id="15"><text x="2.004" y="1.67" class="g">Undeploying</text><text x="14.028" y="1.67" class="g">hello_0</text></symbol><symbol id="16"><text x="4.008" y="1.67" class="g">Executing</text><text x="14.028" y="1.67" class="g">delete</text><text x="21.042" y="1.67" class="g">on</text><text x="24.048" y="1.67" class="g">hello_0</text></symbol><symbol id="17"><text x="2.004" y="1.67" class="g">Undeploying</text><text x="14.028" y="1.67" class="g">my-workstation_0</text></symbol><symbol id="a"><path fill="transparent" d="M0 0h65v11H0z"/></symbol><symbol id="b"><path fill="#6f7683" d="M0 0h1.102v2.171H0z"/></symbol></defs><path class="a" d="M0 0h65v21.71H0z"/><g style="animation-duration:17.895609999999998s;animation-iteration-count:infinite;animation-name:k;animation-timing-function:steps(1,end)"><svg width="3770"><svg><use xlink:href="#a"/><use xlink:href="#b" x="-.004"/></svg><svg x="65"><use xlink:href="#a"/><use xlink:href="#b" x="8.996"/><text y="1.67" class="f">opera</text><text x="5.01" y="1.67" class="g">:</text><text x="6.012" y="1.67" class="h">~</text><text x="7.014" y="1.67" class="g">$</text></svg><svg x="130"><use xlink:href="#a"/><use xlink:href="#b" x="9.996"/><text y="1.67" class="f">opera</text><text x="5.01" y="1.67" class="g">:</text><text x="6.012" y="1.67" class="h">~</text><text x="7.014" y="1.67" class="g">$</text><text x="9.018" y="1.67" class="g">c</text></svg><svg x="195"><use xlink:href="#a"/><use xlink:href="#b" x="10.996"/><use xlink:href="#1"/></svg><svg x="260"><use xlink:href="#a"/><use xlink:href="#b" x="11.996"/><use xlink:href="#1"/></svg><svg x="325"><use xlink:href="#a"/><use xlink:href="#b" x="12.996"/><text y="1.67" class="f">opera</text><text x="5.01" y="1.67" class="g">:</text><text x="6.012" y="1.67" class="h">~</text><text x="7.014" y="1.67" class="g">$</text><text x="9.018" y="1.67" class="g">cd</text><text x="12.024" y="1.67" class="g">x</text></svg><svg x="390"><use xlink:href="#a"/><use xlink:href="#b" x="13.996"/><text y="1.67" class="f">opera</text><text x="5.01" y="1.67" class="g">:</text><text x="6.012" y="1.67" class="h">~</text><text x="7.014" y="1.67" class="g">$</text><text x="9.018" y="1.67" class="g">cd</text><text x="12.024" y="1.67" class="g">xo</text></svg><svg x="455"><use xlink:href="#a"/><use xlink:href="#b" x="14.996"/><text y="1.67" class="f">opera</text><text x="5.01" y="1.67" class="g">:</text><text x="6.012" y="1.67" class="h">~</text><text x="7.014" y="1.67" class="g">$</text><text x="9.018" y="1.67" class="g">cd</text><text x="12.024" y="1.67" class="g">xop</text></svg><svg x="520"><use xlink:href="#a"/><use xlink:href="#b" x="24.996"/><text y="1.67" class="f">opera</text><text x="5.01" y="1.67" class="g">:</text><text x="6.012" y="1.67" class="h">~</text><text x="7.014" y="1.67" class="g">$</text><text x="9.018" y="1.67" class="g">cd</text><text x="12.024" y="1.67" class="g">xopera-opera/</text></svg><svg x="585"><use xlink:href="#a"/><use xlink:href="#b" x="25.996"/><text y="1.67" class="f">opera</text><text x="5.01" y="1.67" class="g">:</text><text x="6.012" y="1.67" class="h">~</text><text x="7.014" y="1.67" class="g">$</text><text x="9.018" y="1.67" class="g">cd</text><text x="12.024" y="1.67" class="g">xopera-opera/e</text></svg><svg x="650"><use xlink:href="#a"/><use xlink:href="#b" x="26.996"/><text y="1.67" class="f">opera</text><text x="5.01" y="1.67" class="g">:</text><text x="6.012" y="1.67" class="h">~</text><text x="7.014" y="1.67" class="g">$</text><text x="9.018" y="1.67" class="g">cd</text><text x="12.024" y="1.67" class="g">xopera-opera/ex</text></svg><svg x="715"><use xlink:href="#a"/><use xlink:href="#b" x="33.996"/><text y="1.67" class="f">opera</text><text x="5.01" y="1.67" class="g">:</text><text x="6.012" y="1.67" class="h">~</text><text x="7.014" y="1.67" class="g">$</text><text x="9.018" y="1.67" class="g">cd</text><text x="12.024" y="1.67" class="g">xopera-opera/examples/</text></svg><svg x="780"><use xlink:href="#a"/><use xlink:href="#b" x="34.996"/><text y="1.67" class="f">opera</text><text x="5.01" y="1.67" class="g">:</text><text x="6.012" y="1.67" class="h">~</text><text x="7.014" y="1.67" class="g">$</text><text x="9.018" y="1.67" class="g">cd</text><text x="12.024" y="1.67" class="g">xopera-opera/examples/h</text></svg><svg x="845"><use xlink:href="#a"/><use xlink:href="#b" x="35.996"/><text y="1.67" class="f">opera</text><text x="5.01" y="1.67" class="g">:</text><text x="6.012" y="1.67" class="h">~</text><text x="7.014" y="1.67" class="g">$</text><text x="9.018" y="1.67" class="g">cd</text><text x="12.024" y="1.67" class="g">xopera-opera/examples/he</text></svg><svg x="910"><use xlink:href="#a"/><use xlink:href="#b" x="39.996"/><use xlink:href="#2"/></svg><svg x="975"><use xlink:href="#a"/><use xlink:href="#b" x="-.004" y="2.146"/><use xlink:href="#2"/></svg><svg x="1040"><use xlink:href="#a"/><use xlink:href="#b" x="36.996" y="2.146"/><use xlink:href="#2"/><use xlink:href="#3" y="2.171"/></svg><svg x="1105"><use xlink:href="#a"/><use xlink:href="#b" x="37.996" y="2.146"/><use xlink:href="#2"/><use xlink:href="#4" y="2.171"/></svg><svg x="1170"><use xlink:href="#a"/><use xlink:href="#b" x="38.996" y="2.146"/><use xlink:href="#2"/><use xlink:href="#5" y="2.171"/></svg><svg x="1235"><use xlink:href="#a"/><use xlink:href="#b" x="39.996" y="2.146"/><use xlink:href="#2"/><use xlink:href="#6" y="2.171"/></svg><svg x="1300"><use xlink:href="#a"/><use xlink:href="#b" x="40.996" y="2.146"/><use xlink:href="#2"/><use xlink:href="#7" y="2.171"/></svg><svg x="1365"><use xlink:href="#a"/><use xlink:href="#b" x="41.996" y="2.146"/><use xlink:href="#2"/><use xlink:href="#8" y="2.171"/></svg><svg x="1430"><use xlink:href="#a"/><use xlink:href="#b" x="42.996" y="2.146"/><use xlink:href="#2"/><use xlink:href="#8" y="2.171"/></svg><svg x="1495"><use xlink:href="#a"/><use xlink:href="#b" x="43.996" y="2.146"/><use xlink:href="#2"/><text y="3.841" class="f">opera</text><text x="5.01" y="3.841" class="g">:</text><text x="6.012" y="3.841" class="h">~/xopera-opera/examples/hello</text><text x="35.07" y="3.841" class="g">$</text><text x="37.074" y="3.841" class="g">opera</text><text x="43.086" y="3.841" class="g">d</text></svg><svg x="1560"><use xlink:href="#a"/><use xlink:href="#b" x="44.996" y="2.146"/><use xlink:href="#2"/><text y="3.841" class="f">opera</text><text x="5.01" y="3.841" class="g">:</text><text x="6.012" y="3.841" class="h">~/xopera-opera/examples/hello</text><text x="35.07" y="3.841" class="g">$</text><text x="37.074" y="3.841" class="g">opera</text><text x="43.086" y="3.841" class="g">de</text></svg><svg x="1625"><use xlink:href="#a"/><use xlink:href="#b" x="45.996" y="2.146"/><use xlink:href="#2"/><text y="3.841" class="f">opera</text><text x="5.01" y="3.841" class="g">:</text><text x="6.012" y="3.841" class="h">~/xopera-opera/examples/hello</text><text x="35.07" y="3.841" class="g">$</text><text x="37.074" y="3.841" class="g">opera</text><text x="43.086" y="3.841" class="g">dep</text></svg><svg x="1690"><use xlink:href="#a"/><use xlink:href="#b" x="46.996" y="2.146"/><use xlink:href="#2"/><text y="3.841" class="f">opera</text><text x="5.01" y="3.841" class="g">:</text><text x="6.012" y="3.841" class="h">~/xopera-opera/examples/hello</text><text x="35.07" y="3.841" class="g">$</text><text x="37.074" y="3.841" class="g">opera</text><text x="43.086" y="3.841" class="g">depl</text></svg><svg x="1755"><use xlink:href="#a"/><use xlink:href="#b" x="47.996" y="2.146"/><use xlink:href="#2"/><text y="3.841" class="f">opera</text><text x="5.01" y="3.841" class="g">:</text><text x="6.012" y="3.841" class="h">~/xopera-opera/examples/hello</text><text x="35.07" y="3.841" class="g">$</text><text x="37.074" y="3.841" class="g">opera</text><text x="43.086" y="3.841" class="g">deplo</text></svg><svg x="1820"><use xlink:href="#a"/><use xlink:href="#b" x="48.996" y="2.146"/><use xlink:href="#2"/><use xlink:href="#9" y="2.171"/></svg><svg x="1885"><use xlink:href="#a"/><use xlink:href="#b" x="49.996" y="2.146"/><use xlink:href="#2"/><use xlink:href="#9" y="2.171"/></svg><svg x="1950"><use xlink:href="#a"/><use xlink:href="#b" x="50.996" y="2.146"/><use xlink:href="#2"/><text y="3.841" class="f">opera</text><text x="5.01" y="3.841" class="g">:</text><text x="6.012" y="3.841" class="h">~/xopera-opera/examples/hello</text><text x="35.07" y="3.841" class="g">$</text><text x="37.074" y="3.841" class="g">opera</text><text x="43.086" y="3.841" class="g">deploy</text><text x="50.1" y="3.841" class="g">s</text></svg><svg x="2015"><use xlink:href="#a"/><use xlink:href="#b" x="51.996" y="2.146"/><use xlink:href="#2"/><text y="3.841" class="f">opera</text><text x="5.01" y="3.841" class="g">:</text><text x="6.012" y="3.841" class="h">~/xopera-opera/examples/hello</text><text x="35.07" y="3.841" class="g">$</text><text x="37.074" y="3.841" class="g">opera</text><text x="43.086" y="3.841" class="g">deploy</text><text x="50.1" y="3.841" class="g">se</text></svg><svg x="2080"><use xlink:href="#a"/><use xlink:href="#b" x="62.996" y="2.146"/><use xlink:href="#2"/><use xlink:href="#10" y="2.171"/></svg><svg x="2145"><use xlink:href="#a"/><use xlink:href="#b" x="-.004" y="4.317"/><use xlink:href="#2"/><use xlink:href="#10" y="2.171"/></svg><svg x="2210"><use xlink:href="#a"/><use xlink:href="#b" x="-.004" y="6.488"/><use xlink:href="#2"/><use xlink:href="#10" y="2.171"/><use xlink:href="#11" y="4.342"/></svg><svg x="2275"><use xlink:href="#a"/><use xlink:href="#b" x="-.004" y="8.659"/><use xlink:href="#2"/><use xlink:href="#10" y="2.171"/><use xlink:href="#11" y="4.342"/><use xlink:href="#12" y="6.513"/></svg><svg x="2340"><use xlink:href="#a"/><use xlink:href="#b" x="-.004" y="10.83"/><use xlink:href="#2"/><use xlink:href="#10" y="2.171"/><use xlink:href="#11" y="4.342"/><use xlink:href="#12" y="6.513"/><use xlink:href="#13" y="8.684"/></svg><svg x="2405"><use xlink:href="#a"/><use xlink:href="#b" x="36.996" y="10.83"/><use xlink:href="#2"/><use xlink:href="#10" y="2.171"/><use xlink:href="#11" y="4.342"/><use xlink:href="#12" y="6.513"/><use xlink:href="#13" y="8.684"/><use xlink:href="#3" y="10.855"/></svg><svg x="2470"><use xlink:href="#a"/><use xlink:href="#b" x="37.996" y="10.83"/><use xlink:href="#2"/><use xlink:href="#10" y="2.171"/><use xlink:href="#11" y="4.342"/><use xlink:href="#12" y="6.513"/><use xlink:href="#13" y="8.684"/><use xlink:href="#4" y="10.855"/></svg><svg x="2535"><use xlink:href="#a"/><use xlink:href="#b" x="38.996" y="10.83"/><use xlink:href="#2"/><use xlink:href="#10" y="2.171"/><use xlink:href="#11" y="4.342"/><use xlink:href="#12" y="6.513"/><use xlink:href="#13" y="8.684"/><use xlink:href="#5" y="10.855"/></svg><svg x="2600"><use xlink:href="#a"/><use xlink:href="#b" x="39.996" y="10.83"/><use xlink:href="#2"/><use xlink:href="#10" y="2.171"/><use xlink:href="#11" y="4.342"/><use xlink:href="#12" y="6.513"/><use xlink:href="#13" y="8.684"/><use xlink:href="#6" y="10.855"/></svg><svg x="2665"><use xlink:href="#a"/><use xlink:href="#b" x="40.996" y="10.83"/><use xlink:href="#2"/><use xlink:href="#10" y="2.171"/><use xlink:href="#11" y="4.342"/><use xlink:href="#12" y="6.513"/><use xlink:href="#13" y="8.684"/><use xlink:href="#7" y="10.855"/></svg><svg x="2730"><use xlink:href="#a"/><use xlink:href="#b" x="41.996" y="10.83"/><use xlink:href="#2"/><use xlink:href="#10" y="2.171"/><use xlink:href="#11" y="4.342"/><use xlink:href="#12" y="6.513"/><use xlink:href="#13" y="8.684"/><use xlink:href="#8" y="10.855"/></svg><svg x="2795"><use xlink:href="#a"/><use xlink:href="#b" x="42.996" y="10.83"/><use xlink:href="#2"/><use xlink:href="#10" y="2.171"/><use xlink:href="#11" y="4.342"/><use xlink:href="#12" y="6.513"/><use xlink:href="#13" y="8.684"/><use xlink:href="#8" y="10.855"/></svg><svg x="2860"><use xlink:href="#a"/><use xlink:href="#b" x="43.996" y="10.83"/><use xlink:href="#2"/><use xlink:href="#10" y="2.171"/><use xlink:href="#11" y="4.342"/><use xlink:href="#12" y="6.513"/><use xlink:href="#13" y="8.684"/><text y="12.525" class="f">opera</text><text x="5.01" y="12.525" class="g">:</text><text x="6.012" y="12.525" class="h">~/xopera-opera/examples/hello</text><text x="35.07" y="12.525" class="g">$</text><text x="37.074" y="12.525" class="g">opera</text><text x="43.086" y="12.525" class="g">u</text></svg><svg x="2925"><use xlink:href="#a"/><use xlink:href="#b" x="44.996" y="10.83"/><use xlink:href="#2"/><use xlink:href="#10" y="2.171"/><use xlink:href="#11" y="4.342"/><use xlink:href="#12" y="6.513"/><use xlink:href="#13" y="8.684"/><text y="12.525" class="f">opera</text><text x="5.01" y="12.525" class="g">:</text><text x="6.012" y="12.525" class="h">~/xopera-opera/examples/hello</text><text x="35.07" y="12.525" class="g">$</text><text x="37.074" y="12.525" class="g">opera</text><text x="43.086" y="12.525" class="g">un</text></svg><svg x="2990"><use xlink:href="#a"/><use xlink:href="#b" x="45.996" y="10.83"/><use xlink:href="#2"/><use xlink:href="#10" y="2.171"/><use xlink:href="#11" y="4.342"/><use xlink:href="#12" y="6.513"/><use xlink:href="#13" y="8.684"/><text y="12.525" class="f">opera</text><text x="5.01" y="12.525" class="g">:</text><text x="6.012" y="12.525" class="h">~/xopera-opera/examples/hello</text><text x="35.07" y="12.525" class="g">$</text><text x="37.074" y="12.525" class="g">opera</text><text x="43.086" y="12.525" class="g">und</text></svg><svg x="3055"><use xlink:href="#a"/><use xlink:href="#b" x="46.996" y="10.83"/><use xlink:href="#2"/><use xlink:href="#10" y="2.171"/><use xlink:href="#11" y="4.342"/><use xlink:href="#12" y="6.513"/><use xlink:href="#13" y="8.684"/><text y="12.525" class="f">opera</text><text x="5.01" y="12.525" class="g">:</text><text x="6.012" y="12.525" class="h">~/xopera-opera/examples/hello</text><text x="35.07" y="12.525" class="g">$</text><text x="37.074" y="12.525" class="g">opera</text><text x="43.086" y="12.525" class="g">unde</text></svg><svg x="3120"><use xlink:href="#a"/><use xlink:href="#b" x="47.996" y="10.83"/><use xlink:href="#2"/><use xlink:href="#10" y="2.171"/><use xlink:href="#11" y="4.342"/><use xlink:href="#12" y="6.513"/><use xlink:href="#13" y="8.684"/><text y="12.525" class="f">opera</text><text x="5.01" y="12.525" class="g">:</text><text x="6.012" y="12.525" class="h">~/xopera-opera/examples/hello</text><text x="35.07" y="12.525" class="g">$</text><text x="37.074" y="12.525" class="g">opera</text><text x="43.086" y="12.525" class="g">undep</text></svg><svg x="3185"><use xlink:href="#a"/><use xlink:href="#b" x="48.996" y="10.83"/><use xlink:href="#2"/><use xlink:href="#10" y="2.171"/><use xlink:href="#11" y="4.342"/><use xlink:href="#12" y="6.513"/><use xlink:href="#13" y="8.684"/><text y="12.525" class="f">opera</text><text x="5.01" y="12.525" class="g">:</text><text x="6.012" y="12.525" class="h">~/xopera-opera/examples/hello</text><text x="35.07" y="12.525" class="g">$</text><text x="37.074" y="12.525" class="g">opera</text><text x="43.086" y="12.525" class="g">undepl</text></svg><svg x="3250"><use xlink:href="#a"/><use xlink:href="#b" x="49.996" y="10.83"/><use xlink:href="#2"/><use xlink:href="#10" y="2.171"/><use xlink:href="#11" y="4.342"/><use xlink:href="#12" y="6.513"/><use xlink:href="#13" y="8.684"/><text y="12.525" class="f">opera</text><text x="5.01" y="12.525" class="g">:</text><text x="6.012" y="12.525" class="h">~/xopera-opera/examples/hello</text><text x="35.07" y="12.525" class="g">$</text><text x="37.074" y="12.525" class="g">opera</text><text x="43.086" y="12.525" class="g">undeplo</text></svg><svg x="3315"><use xlink:href="#a"/><use xlink:href="#b" x="50.996" y="10.83"/><use xlink:href="#2"/><use xlink:href="#10" y="2.171"/><use xlink:href="#11" y="4.342"/><use xlink:href="#12" y="6.513"/><use xlink:href="#13" y="8.684"/><use xlink:href="#14" y="10.855"/></svg><svg x="3380"><use xlink:href="#a"/><use xlink:href="#b" x="-.004" y="13.001"/><use xlink:href="#2"/><use xlink:href="#10" y="2.171"/><use xlink:href="#11" y="4.342"/><use xlink:href="#12" y="6.513"/><use xlink:href="#13" y="8.684"/><use xlink:href="#14" y="10.855"/></svg><svg x="3445"><use xlink:href="#a"/><use xlink:href="#b" x="-.004" y="15.172"/><use xlink:href="#2"/><use xlink:href="#10" y="2.171"/><use xlink:href="#11" y="4.342"/><use xlink:href="#12" y="6.513"/><use xlink:href="#13" y="8.684"/><use xlink:href="#14" y="10.855"/><use xlink:href="#15" y="13.026"/></svg><svg x="3510"><use xlink:href="#a"/><use xlink:href="#b" x="-.004" y="17.343"/><use xlink:href="#2"/><use xlink:href="#10" y="2.171"/><use xlink:href="#11" y="4.342"/><use xlink:href="#12" y="6.513"/><use xlink:href="#13" y="8.684"/><use xlink:href="#14" y="10.855"/><use xlink:href="#15" y="13.026"/><use xlink:href="#16" y="15.197"/></svg><svg x="3575"><use xlink:href="#a"/><use xlink:href="#b" x="-.004" y="19.514"/><use xlink:href="#2"/><use xlink:href="#10" y="2.171"/><use xlink:href="#11" y="4.342"/><use xlink:href="#12" y="6.513"/><use xlink:href="#13" y="8.684"/><use xlink:href="#14" y="10.855"/><use xlink:href="#15" y="13.026"/><use xlink:href="#16" y="15.197"/><use xlink:href="#17" y="17.368"/></svg><svg x="3640"><use xlink:href="#a"/><use xlink:href="#b" x="36.996" y="19.514"/><use xlink:href="#2"/><use xlink:href="#10" y="2.171"/><use xlink:href="#11" y="4.342"/><use xlink:href="#12" y="6.513"/><use xlink:href="#13" y="8.684"/><use xlink:href="#14" y="10.855"/><use xlink:href="#15" y="13.026"/><use xlink:href="#16" y="15.197"/><use xlink:href="#17" y="17.368"/><use xlink:href="#3" y="19.539"/></svg><svg x="3705"><use xlink:href="#a"/><use xlink:href="#b" x="-.004" y="21.685"/><use xlink:href="#2"/><use xlink:href="#10" y="2.171"/><use xlink:href="#11" y="4.342"/><use xlink:href="#12" y="6.513"/><use xlink:href="#13" y="8.684"/><use xlink:href="#14" y="10.855"/><use xlink:href="#15" y="13.026"/><use xlink:href="#16" y="15.197"/><use xlink:href="#17" y="17.368"/><text y="21.209" class="f">opera</text><text x="5.01" y="21.209" class="g">:</text><text x="6.012" y="21.209" class="h">~/xopera-opera/examples/hello</text><text x="35.07" y="21.209" class="g">$</text><text x="37.074" y="21.209" class="g">exit</text></svg></svg></g></g></svg></svg>