<svg xmlns="http://www.w3.org/2000/svg" xmlns:xlink="http://www.w3.org/1999/xlink" width="840" height="450.78"><rect width="840" height="450.78" rx="5" ry="5" class="a"/><svg y="0%" x="0%"><circle cx="20" cy="20" r="6" fill="#ff5f58"/><circle cx="40" cy="20" r="6" fill="#ffbd2e"/><circle cx="60" cy="20" r="6" fill="#18c132"/></svg><svg height="390.78" viewBox="0 0 80 39.078" width="800" x="15" xmlns="http://www.w3.org/2000/svg" xmlns:xlink="http://www.w3.org/1999/xlink" y="50"><style>@keyframes k{0%{transform:translateX(0)}.02%{transform:translateX(-80px)}2.67%{transform:translateX(-160px)}3.28%{transform:translateX(-240px)}3.85%{transform:translateX(-320px)}4.36%{transform:translateX(-400px)}4.99%{transform:translateX(-480px)}5.6%{transform:translateX(-560px)}6.17%{transform:translateX(-640px)}8.62%{transform:translateX(-720px)}9.35%{transform:translateX(-800px)}9.86%{transform:translateX(-880px)}11.99%{transform:translateX(-960px)}12.6%{transform:translateX(-1040px)}13.23%{transform:translateX(-1120px)}13.58%{transform:translateX(-1200px)}14.28%{transform:translateX(-1360px)}17.94%{transform:translateX(-1440px)}18.48%{transform:translateX(-1520px)}18.83%{transform:translateX(-1600px)}19.43%{transform:translateX(-1680px)}19.85%{transform:translateX(-1760px)}20.39%{transform:translateX(-1840px)}21.98%{transform:translateX(-1920px)}22.71%{transform:translateX(-2000px)}23.35%{transform:translateX(-2080px)}23.92%{transform:translateX(-2160px)}24.46%{transform:translateX(-2240px)}26.84%{transform:translateX(-2320px)}27.89%{transform:translateX(-2400px)}28.37%{transform:translateX(-2480px)}28.78%{transform:translateX(-2560px)}29.45%{transform:translateX(-2640px)}29.87%{transform:translateX(-2720px)}34.76%{transform:translateX(-2800px)}35.27%{transform:translateX(-2880px)}35.72%{transform:translateX(-2960px)}39.03%{transform:translateX(-3040px)}39.75%{transform:translateX(-3120px)}40.31%{transform:translateX(-3200px)}40.35%{transform:translateX(-3280px)}45.32%{transform:translateX(-3360px)}45.86%{transform:translateX(-3440px)}46.09%{transform:translateX(-3520px)}46.66%{transform:translateX(-3600px)}47.01%{transform:translateX(-3680px)}47.36%{transform:translateX(-3760px)}47.93%{transform:translateX(-3840px)}48.47%{transform:translateX(-3920px)}48.76%{transform:translateX(-4000px)}49.49%{transform:translateX(-4080px)}50%{transform:translateX(-4160px)}50.35%{transform:translateX(-4240px)}50.82%{transform:translateX(-4320px)}52.32%{transform:translateX(-4480px)}60.27%{transform:translateX(-4560px)}68.22%{transform:translateX(-4720px)}68.23%{transform:translateX(-4800px)}76.18%{transform:translateX(-4880px)}84.04%{transform:translateX(-4960px)}91.99%{transform:translateX(-5040px)}92.05%{transform:translateX(-5120px)}to{transform:translateX(-5200px)}}.a{fill:#282d35}.f,.g,.h{white-space:pre}.f{fill:#a8cc8c;font-weight:700}.g,.h{fill:#b9c0cb}.h{fill:#71bef2;font-weight:700}</style><g font-family="Monaco,Consolas,Menlo,'Bitstream Vera Sans Mono','Powerline Symbols',monospace" font-size="1.67"><defs><symbol id="14"><text y="1.67" class="g">vice</text><text x="5.01" y="1.67" class="g">templates</text><text x="15.03" y="1.67" class="g">or</text><text x="18.036" y="1.67" class="g">compressed</text><text x="29.058" y="1.67" class="g">CSARs.</text></symbol><symbol id="1"><text y="1.67" class="f">opera</text><text x="5.01" y="1.67" class="g">:</text><text x="6.012" y="1.67" class="h">~</text><text x="7.014" y="1.67" class="g">$</text><text x="9.018" y="1.67" class="g">cd</text></symbol><symbol id="3"><text y="1.67" class="f">opera</text><text x="5.01" y="1.67" class="g">:</text><text x="6.012" y="1.67" class="h">~/xopera-opera/docs/files</text><text x="31.062" y="1.67" class="g">$</text></symbol><symbol id="4"><text y="1.67" class="f">opera</text><text x="5.01" y="1.67" class="g">:</text><text x="6.012" y="1.67" class="h">~/xopera-opera/docs/files</text><text x="31.062" y="1.67" class="g">$</text><text x="33.066" y="1.67" class="g">o</text></symbol><symbol id="5"><text y="1.67" class="f">opera</text><text x="5.01" y="1.67" class="g">:</text><text x="6.012" y="1.67" class="h">~/xopera-opera/docs/files</text><text x="31.062" y="1.67" class="g">$</text><text x="33.066" y="1.67" class="g">op</text></symbol><symbol id="6"><text y="1.67" class="f">opera</text><text x="5.01" y="1.67" class="g">:</text><text x="6.012" y="1.67" class="h">~/xopera-opera/docs/files</text><text x="31.062" y="1.67" class="g">$</text><text x="33.066" y="1.67" class="g">ope</text></symbol><symbol id="7"><text y="1.67" class="f">opera</text><text x="5.01" y="1.67" class="g">:</text><text x="6.012" y="1.67" class="h">~/xopera-opera/docs/files</text><text x="31.062" y="1.67" class="g">$</text><text x="33.066" y="1.67" class="g">oper</text></symbol><symbol id="8"><text y="1.67" class="f">opera</text><text x="5.01" y="1.67" class="g">:</text><text x="6.012" y="1.67" class="h">~/xopera-opera/docs/files</text><text x="31.062" y="1.67" class="g">$</text><text x="33.066" y="1.67" class="g">opera</text></symbol><symbol id="9"><text y="1.67" class="f">opera</text><text x="5.01" y="1.67" class="g">:</text><text x="6.012" y="1.67" class="h">~/xopera-opera/docs/files</text><text x="31.062" y="1.67" class="g">$</text><text x="33.066" y="1.67" class="g">opera</text><text x="39.078" y="1.67" class="g">init</text></symbol><symbol id="10"><text y="1.67" class="f">opera</text><text x="5.01" y="1.67" class="g">:</text><text x="6.012" y="1.67" class="h">~/xopera-opera/docs/files</text><text x="31.062" y="1.67" class="g">$</text><text x="33.066" y="1.67" class="g">opera</text><text x="39.078" y="1.67" class="g">init</text><text x="44.088" y="1.67" class="g">-i</text></symbol><symbol id="11"><text y="1.67" class="f">opera</text><text x="5.01" y="1.67" class="g">:</text><text x="6.012" y="1.67" class="h">~/xopera-opera/docs/files</text><text x="31.062" y="1.67" class="g">$</text><text x="33.066" y="1.67" class="g">opera</text><text x="39.078" y="1.67" class="g">init</text><text x="44.088" y="1.67" class="g">-i</text><text x="47.094" y="1.67" class="g">inputs.json</text><text x="59.118" y="1.67" class="g">small.csar</text></symbol><symbol id="12"><text y="1.67" class="g">Warning:</text><text x="9.018" y="1.67" class="g">&apos;opera</text><text x="16.032" y="1.67" class="g">init&apos;</text><text x="22.044" y="1.67" class="g">command</text><text x="30.06" y="1.67" class="g">is</text><text x="33.066" y="1.67" class="g">deprecated</text><text x="44.088" y="1.67" class="g">and</text><text x="48.096" y="1.67" class="g">will</text><text x="53.106" y="1.67" class="g">probably</text><text x="62.124" y="1.67" class="g">be</text><text x="65.13" y="1.67" class="g">removed</text><text x="73.146" y="1.67" class="g">within</text></symbol><symbol id="13"><text y="1.67" class="g">one</text><text x="4.008" y="1.67" class="g">of</text><text x="7.014" y="1.67" class="g">the</text><text x="11.022" y="1.67" class="g">next</text><text x="16.032" y="1.67" class="g">releases.</text><text x="26.052" y="1.67" class="g">Please</text><text x="33.066" y="1.67" class="g">use</text><text x="37.074" y="1.67" class="g">&apos;opera</text><text x="44.088" y="1.67" class="g">deploy&apos;</text><text x="52.104" y="1.67" class="g">to</text><text x="55.11" y="1.67" class="g">initialize</text><text x="66.132" y="1.67" class="g">and</text><text x="70.14" y="1.67" class="g">deploy</text><text x="77.154" y="1.67" class="g">ser</text></symbol><symbol id="2"><text y="1.67" class="f">opera</text><text x="5.01" y="1.67" class="g">:</text><text x="6.012" y="1.67" class="h">~</text><text x="7.014" y="1.67" class="g">$</text><text x="9.018" y="1.67" class="g">cd</text><text x="12.024" y="1.67" class="g">xopera-opera/docs/files/</text></symbol><symbol id="15"><text y="1.67" class="g">CSAR</text><text x="5.01" y="1.67" class="g">was</text><text x="9.018" y="1.67" class="g">initialized</text></symbol><symbol id="16"><text y="1.67" class="f">opera</text><text x="5.01" y="1.67" class="g">:</text><text x="6.012" y="1.67" class="h">~/xopera-opera/docs/files</text><text x="31.062" y="1.67" class="g">$</text><text x="33.066" y="1.67" class="g">opera</text><text x="39.078" y="1.67" class="g">deploy</text></symbol><symbol id="17"><text y="1.67" class="g">[Worker_0]</text><text x="13.026" y="1.67" class="g">Deploying</text><text x="23.046" y="1.67" class="g">my_workstation_0</text></symbol><symbol id="18"><text y="1.67" class="g">[Worker_0]</text><text x="15.03" y="1.67" class="g">Executing</text><text x="25.05" y="1.67" class="g">pre_configure_target</text><text x="46.092" y="1.67" class="g">on</text><text x="49.098" y="1.67" class="g">test_node_0--my_workstation_0</text></symbol><symbol id="19"><text y="1.67" class="g">[Worker_0]</text><text x="15.03" y="1.67" class="g">Executing</text><text x="25.05" y="1.67" class="g">post_configure_target</text><text x="47.094" y="1.67" class="g">on</text><text x="50.1" y="1.67" class="g">test_node_0--my_workstation_0</text></symbol><symbol id="20"><text y="1.67" class="g">[Worker_0]</text><text x="13.026" y="1.67" class="g">Deployment</text><text x="24.048" y="1.67" class="g">of</text><text x="27.054" y="1.67" class="g">my_workstation_0</text><text x="44.088" y="1.67" class="g">complete</text></symbol><symbol id="21"><text y="1.67" class="g">[Worker_0]</text><text x="13.026" y="1.67" class="g">Deploying</text><text x="23.046" y="1.67" class="g">test_node_0</text></symbol><symbol id="22"><text y="1.67" class="g">[Worker_0]</text><text x="15.03" y="1.67" class="g">Executing</text><text x="25.05" y="1.67" class="g">create</text><text x="32.064" y="1.67" class="g">on</text><text x="35.07" y="1.67" class="g">test_node_0</text></symbol><symbol id="23"><text y="1.67" class="g">[Worker_0]</text><text x="15.03" y="1.67" class="g">Executing</text><text x="25.05" y="1.67" class="g">pre_configure_source</text><text x="46.092" y="1.67" class="g">on</text><text x="49.098" y="1.67" class="g">test_node_0--my_workstation_0</text></symbol><symbol id="24"><text y="1.67" class="g">[Worker_0]</text><text x="15.03" y="1.67" class="g">Executing</text><text x="25.05" y="1.67" class="g">post_configure_source</text><text x="47.094" y="1.67" class="g">on</text><text x="50.1" y="1.67" class="g">test_node_0--my_workstation_0</text></symbol><symbol id="25"><text y="1.67" class="g">[Worker_0]</text><text x="13.026" y="1.67" class="g">Deployment</text><text x="24.048" y="1.67" class="g">of</text><text x="27.054" y="1.67" class="g">test_node_0</text><text x="39.078" y="1.67" class="g">complete</text></symbol><symbol id="a"><path fill="transparent" d="M0 0h80v19H0z"/></symbol><symbol id="b"><path fill="#6f7683" d="M0 0h1.102v2.171H0z"/></symbol></defs><path class="a" d="M0 0h80v39.078H0z"/><g style="animation-duration:25.152467s;animation-iteration-count:infinite;animation-name:k;animation-timing-function:steps(1,end)"><svg width="5280"><svg><use xlink:href="#a"/><use xlink:href="#b" x="-.004"/></svg><svg x="80"><use xlink:href="#a"/><use xlink:href="#b" x="8.996"/><text y="1.67" class="f">opera</text><text x="5.01" y="1.67" class="g">:</text><text x="6.012" y="1.67" class="h">~</text><text x="7.014" y="1.67" class="g">$</text></svg><svg x="160"><use xlink:href="#a"/><use xlink:href="#b" x="9.996"/><text y="1.67" class="f">opera</text><text x="5.01" y="1.67" class="g">:</text><text x="6.012" y="1.67" class="h">~</text><text x="7.014" y="1.67" class="g">$</text><text x="9.018" y="1.67" class="g">c</text></svg><svg x="240"><use xlink:href="#a"/><use xlink:href="#b" x="10.996"/><use xlink:href="#1"/></svg><svg x="320"><use xlink:href="#a"/><use xlink:href="#b" x="11.996"/><use xlink:href="#1"/></svg><svg x="400"><use xlink:href="#a"/><use xlink:href="#b" x="12.996"/><text y="1.67" class="f">opera</text><text x="5.01" y="1.67" class="g">:</text><text x="6.012" y="1.67" class="h">~</text><text x="7.014" y="1.67" class="g">$</text><text x="9.018" y="1.67" class="g">cd</text><text x="12.024" y="1.67" class="g">x</text></svg><svg x="480"><use xlink:href="#a"/><use xlink:href="#b" x="13.996"/><text y="1.67" class="f">opera</text><text x="5.01" y="1.67" class="g">:</text><text x="6.012" y="1.67" class="h">~</text><text x="7.014" y="1.67" class="g">$</text><text x="9.018" y="1.67" class="g">cd</text><text x="12.024" y="1.67" class="g">xo</text></svg><svg x="560"><use xlink:href="#a"/><use xlink:href="#b" x="14.996"/><text y="1.67" class="f">opera</text><text x="5.01" y="1.67" class="g">:</text><text x="6.012" y="1.67" class="h">~</text><text x="7.014" y="1.67" class="g">$</text><text x="9.018" y="1.67" class="g">cd</text><text x="12.024" y="1.67" class="g">xop</text></svg><svg x="640"><use xlink:href="#a"/><use xlink:href="#b" x="24.996"/><text y="1.67" class="f">opera</text><text x="5.01" y="1.67" class="g">:</text><text x="6.012" y="1.67" class="h">~</text><text x="7.014" y="1.67" class="g">$</text><text x="9.018" y="1.67" class="g">cd</text><text x="12.024" y="1.67" class="g">xopera-opera/</text></svg><svg x="720"><use xlink:href="#a"/><use xlink:href="#b" x="25.996"/><text y="1.67" class="f">opera</text><text x="5.01" y="1.67" class="g">:</text><text x="6.012" y="1.67" class="h">~</text><text x="7.014" y="1.67" class="g">$</text><text x="9.018" y="1.67" class="g">cd</text><text x="12.024" y="1.67" class="g">xopera-opera/d</text></svg><svg x="800"><use xlink:href="#a"/><use xlink:href="#b" x="26.996"/><text y="1.67" class="f">opera</text><text x="5.01" y="1.67" class="g">:</text><text x="6.012" y="1.67" class="h">~</text><text x="7.014" y="1.67" class="g">$</text><text x="9.018" y="1.67" class="g">cd</text><text x="12.024" y="1.67" class="g">xopera-opera/do</text></svg><svg x="880"><use xlink:href="#a"/><use xlink:href="#b" x="29.996"/><text y="1.67" class="f">opera</text><text x="5.01" y="1.67" class="g">:</text><text x="6.012" y="1.67" class="h">~</text><text x="7.014" y="1.67" class="g">$</text><text x="9.018" y="1.67" class="g">cd</text><text x="12.024" y="1.67" class="g">xopera-opera/docs/</text></svg><svg x="960"><use xlink:href="#a"/><use xlink:href="#b" x="30.996"/><text y="1.67" class="f">opera</text><text x="5.01" y="1.67" class="g">:</text><text x="6.012" y="1.67" class="h">~</text><text x="7.014" y="1.67" class="g">$</text><text x="9.018" y="1.67" class="g">cd</text><text x="12.024" y="1.67" class="g">xopera-opera/docs/f</text></svg><svg x="1040"><use xlink:href="#a"/><use xlink:href="#b" x="31.996"/><text y="1.67" class="f">opera</text><text x="5.01" y="1.67" class="g">:</text><text x="6.012" y="1.67" class="h">~</text><text x="7.014" y="1.67" class="g">$</text><text x="9.018" y="1.67" class="g">cd</text><text x="12.024" y="1.67" class="g">xopera-opera/docs/fi</text></svg><svg x="1120"><use xlink:href="#a"/><use xlink:href="#b" x="32.996"/><text y="1.67" class="f">opera</text><text x="5.01" y="1.67" class="g">:</text><text x="6.012" y="1.67" class="h">~</text><text x="7.014" y="1.67" class="g">$</text><text x="9.018" y="1.67" class="g">cd</text><text x="12.024" y="1.67" class="g">xopera-opera/docs/fil</text></svg><svg x="1200"><use xlink:href="#a"/><use xlink:href="#b" x="35.996"/><use xlink:href="#2"/></svg><svg x="1280"><use xlink:href="#a"/><use xlink:href="#b" x="-.004" y="2.146"/><use xlink:href="#2"/></svg><svg x="1360"><use xlink:href="#a"/><use xlink:href="#b" x="32.996" y="2.146"/><use xlink:href="#2"/><use xlink:href="#3" y="2.171"/></svg><svg x="1440"><use xlink:href="#a"/><use xlink:href="#b" x="33.996" y="2.146"/><use xlink:href="#2"/><use xlink:href="#4" y="2.171"/></svg><svg x="1520"><use xlink:href="#a"/><use xlink:href="#b" x="34.996" y="2.146"/><use xlink:href="#2"/><use xlink:href="#5" y="2.171"/></svg><svg x="1600"><use xlink:href="#a"/><use xlink:href="#b" x="35.996" y="2.146"/><use xlink:href="#2"/><use xlink:href="#6" y="2.171"/></svg><svg x="1680"><use xlink:href="#a"/><use xlink:href="#b" x="36.996" y="2.146"/><use xlink:href="#2"/><use xlink:href="#7" y="2.171"/></svg><svg x="1760"><use xlink:href="#a"/><use xlink:href="#b" x="37.996" y="2.146"/><use xlink:href="#2"/><use xlink:href="#8" y="2.171"/></svg><svg x="1840"><use xlink:href="#a"/><use xlink:href="#b" x="38.996" y="2.146"/><use xlink:href="#2"/><use xlink:href="#8" y="2.171"/></svg><svg x="1920"><use xlink:href="#a"/><use xlink:href="#b" x="39.996" y="2.146"/><use xlink:href="#2"/><text y="3.841" class="f">opera</text><text x="5.01" y="3.841" class="g">:</text><text x="6.012" y="3.841" class="h">~/xopera-opera/docs/files</text><text x="31.062" y="3.841" class="g">$</text><text x="33.066" y="3.841" class="g">opera</text><text x="39.078" y="3.841" class="g">i</text></svg><svg x="2000"><use xlink:href="#a"/><use xlink:href="#b" x="40.996" y="2.146"/><use xlink:href="#2"/><text y="3.841" class="f">opera</text><text x="5.01" y="3.841" class="g">:</text><text x="6.012" y="3.841" class="h">~/xopera-opera/docs/files</text><text x="31.062" y="3.841" class="g">$</text><text x="33.066" y="3.841" class="g">opera</text><text x="39.078" y="3.841" class="g">in</text></svg><svg x="2080"><use xlink:href="#a"/><use xlink:href="#b" x="41.996" y="2.146"/><use xlink:href="#2"/><text y="3.841" class="f">opera</text><text x="5.01" y="3.841" class="g">:</text><text x="6.012" y="3.841" class="h">~/xopera-opera/docs/files</text><text x="31.062" y="3.841" class="g">$</text><text x="33.066" y="3.841" class="g">opera</text><text x="39.078" y="3.841" class="g">ini</text></svg><svg x="2160"><use xlink:href="#a"/><use xlink:href="#b" x="42.996" y="2.146"/><use xlink:href="#2"/><use xlink:href="#9" y="2.171"/></svg><svg x="2240"><use xlink:href="#a"/><use xlink:href="#b" x="43.996" y="2.146"/><use xlink:href="#2"/><use xlink:href="#9" y="2.171"/></svg><svg x="2320"><use xlink:href="#a"/><use xlink:href="#b" x="44.996" y="2.146"/><use xlink:href="#2"/><text y="3.841" class="f">opera</text><text x="5.01" y="3.841" class="g">:</text><text x="6.012" y="3.841" class="h">~/xopera-opera/docs/files</text><text x="31.062" y="3.841" class="g">$</text><text x="33.066" y="3.841" class="g">opera</text><text x="39.078" y="3.841" class="g">init</text><text x="44.088" y="3.841" class="g">-</text></svg><svg x="2400"><use xlink:href="#a"/><use xlink:href="#b" x="45.996" y="2.146"/><use xlink:href="#2"/><use xlink:href="#10" y="2.171"/></svg><svg x="2480"><use xlink:href="#a"/><use xlink:href="#b" x="46.996" y="2.146"/><use xlink:href="#2"/><use xlink:href="#10" y="2.171"/></svg><svg x="2560"><use xlink:href="#a"/><use xlink:href="#b" x="47.996" y="2.146"/><use xlink:href="#2"/><text y="3.841" class="f">opera</text><text x="5.01" y="3.841" class="g">:</text><text x="6.012" y="3.841" class="h">~/xopera-opera/docs/files</text><text x="31.062" y="3.841" class="g">$</text><text x="33.066" y="3.841" class="g">opera</text><text x="39.078" y="3.841" class="g">init</text><text x="44.088" y="3.841" class="g">-i</text><text x="47.094" y="3.841" class="g">i</text></svg><svg x="2640"><use xlink:href="#a"/><use xlink:href="#b" x="48.996" y="2.146"/><use xlink:href="#2"/><text y="3.841" class="f">opera</text><text x="5.01" y="3.841" class="g">:</text><text x="6.012" y="3.841" class="h">~/xopera-opera/docs/files</text><text x="31.062" y="3.841" class="g">$</text><text x="33.066" y="3.841" class="g">opera</text><text x="39.078" y="3.841" class="g">init</text><text x="44.088" y="3.841" class="g">-i</text><text x="47.094" y="3.841" class="g">in</text></svg><svg x="2720"><use xlink:href="#a"/><use xlink:href="#b" x="58.996" y="2.146"/><use xlink:href="#2"/><text y="3.841" class="f">opera</text><text x="5.01" y="3.841" class="g">:</text><text x="6.012" y="3.841" class="h">~/xopera-opera/docs/files</text><text x="31.062" y="3.841" class="g">$</text><text x="33.066" y="3.841" class="g">opera</text><text x="39.078" y="3.841" class="g">init</text><text x="44.088" y="3.841" class="g">-i</text><text x="47.094" y="3.841" class="g">inputs.json</text></svg><svg x="2800"><use xlink:href="#a"/><use xlink:href="#b" x="59.996" y="2.146"/><use xlink:href="#2"/><text y="3.841" class="f">opera</text><text x="5.01" y="3.841" class="g">:</text><text x="6.012" y="3.841" class="h">~/xopera-opera/docs/files</text><text x="31.062" y="3.841" class="g">$</text><text x="33.066" y="3.841" class="g">opera</text><text x="39.078" y="3.841" class="g">init</text><text x="44.088" y="3.841" class="g">-i</text><text x="47.094" y="3.841" class="g">inputs.json</text><text x="59.118" y="3.841" class="g">s</text></svg><svg x="2880"><use xlink:href="#a"/><use xlink:href="#b" x="60.996" y="2.146"/><use xlink:href="#2"/><text y="3.841" class="f">opera</text><text x="5.01" y="3.841" class="g">:</text><text x="6.012" y="3.841" class="h">~/xopera-opera/docs/files</text><text x="31.062" y="3.841" class="g">$</text><text x="33.066" y="3.841" class="g">opera</text><text x="39.078" y="3.841" class="g">init</text><text x="44.088" y="3.841" class="g">-i</text><text x="47.094" y="3.841" class="g">inputs.json</text><text x="59.118" y="3.841" class="g">sm</text></svg><svg x="2960"><use xlink:href="#a"/><use xlink:href="#b" x="69.996" y="2.146"/><use xlink:href="#2"/><use xlink:href="#11" y="2.171"/></svg><svg x="3040"><use xlink:href="#a"/><use xlink:href="#b" x="-.004" y="4.317"/><use xlink:href="#2"/><use xlink:href="#11" y="2.171"/></svg><svg x="3120"><use xlink:href="#a"/><use xlink:href="#b" x="-.004" y="10.83"/><use xlink:href="#2"/><use xlink:href="#11" y="2.171"/><use xlink:href="#12" y="4.342"/><use xlink:href="#13" y="6.513"/><use xlink:href="#14" y="8.684"/></svg><svg x="3200"><use xlink:href="#a"/><use xlink:href="#b" x="-.004" y="13.001"/><use xlink:href="#2"/><use xlink:href="#11" y="2.171"/><use xlink:href="#12" y="4.342"/><use xlink:href="#13" y="6.513"/><use xlink:href="#14" y="8.684"/><use xlink:href="#15" y="10.855"/></svg><svg x="3280"><use xlink:href="#a"/><use xlink:href="#b" x="32.996" y="13.001"/><use xlink:href="#2"/><use xlink:href="#11" y="2.171"/><use xlink:href="#12" y="4.342"/><use xlink:href="#13" y="6.513"/><use xlink:href="#14" y="8.684"/><use xlink:href="#15" y="10.855"/><use xlink:href="#3" y="13.026"/></svg><svg x="3360"><use xlink:href="#a"/><use xlink:href="#b" x="33.996" y="13.001"/><use xlink:href="#2"/><use xlink:href="#11" y="2.171"/><use xlink:href="#12" y="4.342"/><use xlink:href="#13" y="6.513"/><use xlink:href="#14" y="8.684"/><use xlink:href="#15" y="10.855"/><use xlink:href="#4" y="13.026"/></svg><svg x="3440"><use xlink:href="#a"/><use xlink:href="#b" x="34.996" y="13.001"/><use xlink:href="#2"/><use xlink:href="#11" y="2.171"/><use xlink:href="#12" y="4.342"/><use xlink:href="#13" y="6.513"/><use xlink:href="#14" y="8.684"/><use xlink:href="#15" y="10.855"/><use xlink:href="#5" y="13.026"/></svg><svg x="3520"><use xlink:href="#a"/><use xlink:href="#b" x="35.996" y="13.001"/><use xlink:href="#2"/><use xlink:href="#11" y="2.171"/><use xlink:href="#12" y="4.342"/><use xlink:href="#13" y="6.513"/><use xlink:href="#14" y="8.684"/><use xlink:href="#15" y="10.855"/><use xlink:href="#6" y="13.026"/></svg><svg x="3600"><use xlink:href="#a"/><use xlink:href="#b" x="36.996" y="13.001"/><use xlink:href="#2"/><use xlink:href="#11" y="2.171"/><use xlink:href="#12" y="4.342"/><use xlink:href="#13" y="6.513"/><use xlink:href="#14" y="8.684"/><use xlink:href="#15" y="10.855"/><use xlink:href="#7" y="13.026"/></svg><svg x="3680"><use xlink:href="#a"/><use xlink:href="#b" x="37.996" y="13.001"/><use xlink:href="#2"/><use xlink:href="#11" y="2.171"/><use xlink:href="#12" y="4.342"/><use xlink:href="#13" y="6.513"/><use xlink:href="#14" y="8.684"/><use xlink:href="#15" y="10.855"/><use xlink:href="#8" y="13.026"/></svg><svg x="3760"><use xlink:href="#a"/><use xlink:href="#b" x="38.996" y="13.001"/><use xlink:href="#2"/><use xlink:href="#11" y="2.171"/><use xlink:href="#12" y="4.342"/><use xlink:href="#13" y="6.513"/><use xlink:href="#14" y="8.684"/><use xlink:href="#15" y="10.855"/><use xlink:href="#8" y="13.026"/></svg><svg x="3840"><use xlink:href="#a"/><use xlink:href="#b" x="39.996" y="13.001"/><use xlink:href="#2"/><use xlink:href="#11" y="2.171"/><use xlink:href="#12" y="4.342"/><use xlink:href="#13" y="6.513"/><use xlink:href="#14" y="8.684"/><use xlink:href="#15" y="10.855"/><text y="14.696" class="f">opera</text><text x="5.01" y="14.696" class="g">:</text><text x="6.012" y="14.696" class="h">~/xopera-opera/docs/files</text><text x="31.062" y="14.696" class="g">$</text><text x="33.066" y="14.696" class="g">opera</text><text x="39.078" y="14.696" class="g">d</text></svg><svg x="3920"><use xlink:href="#a"/><use xlink:href="#b" x="40.996" y="13.001"/><use xlink:href="#2"/><use xlink:href="#11" y="2.171"/><use xlink:href="#12" y="4.342"/><use xlink:href="#13" y="6.513"/><use xlink:href="#14" y="8.684"/><use xlink:href="#15" y="10.855"/><text y="14.696" class="f">opera</text><text x="5.01" y="14.696" class="g">:</text><text x="6.012" y="14.696" class="h">~/xopera-opera/docs/files</text><text x="31.062" y="14.696" class="g">$</text><text x="33.066" y="14.696" class="g">opera</text><text x="39.078" y="14.696" class="g">de</text></svg><svg x="4000"><use xlink:href="#a"/><use xlink:href="#b" x="41.996" y="13.001"/><use xlink:href="#2"/><use xlink:href="#11" y="2.171"/><use xlink:href="#12" y="4.342"/><use xlink:href="#13" y="6.513"/><use xlink:href="#14" y="8.684"/><use xlink:href="#15" y="10.855"/><text y="14.696" class="f">opera</text><text x="5.01" y="14.696" class="g">:</text><text x="6.012" y="14.696" class="h">~/xopera-opera/docs/files</text><text x="31.062" y="14.696" class="g">$</text><text x="33.066" y="14.696" class="g">opera</text><text x="39.078" y="14.696" class="g">dep</text></svg><svg x="4080"><use xlink:href="#a"/><use xlink:href="#b" x="42.996" y="13.001"/><use xlink:href="#2"/><use xlink:href="#11" y="2.171"/><use xlink:href="#12" y="4.342"/><use xlink:href="#13" y="6.513"/><use xlink:href="#14" y="8.684"/><use xlink:href="#15" y="10.855"/><text y="14.696" class="f">opera</text><text x="5.01" y="14.696" class="g">:</text><text x="6.012" y="14.696" class="h">~/xopera-opera/docs/files</text><text x="31.062" y="14.696" class="g">$</text><text x="33.066" y="14.696" class="g">opera</text><text x="39.078" y="14.696" class="g">depl</text></svg><svg x="4160"><use xlink:href="#a"/><use xlink:href="#b" x="43.996" y="13.001"/><use xlink:href="#2"/><use xlink:href="#11" y="2.171"/><use xlink:href="#12" y="4.342"/><use xlink:href="#13" y="6.513"/><use xlink:href="#14" y="8.684"/><use xlink:href="#15" y="10.855"/><text y="14.696" class="f">opera</text><text x="5.01" y="14.696" class="g">:</text><text x="6.012" y="14.696" class="h">~/xopera-opera/docs/files</text><text x="31.062" y="14.696" class="g">$</text><text x="33.066" y="14.696" class="g">opera</text><text x="39.078" y="14.696" class="g">deplo</text></svg><svg x="4240"><use xlink:href="#a"/><use xlink:href="#b" x="44.996" y="13.001"/><use xlink:href="#2"/><use xlink:href="#11" y="2.171"/><use xlink:href="#12" y="4.342"/><use xlink:href="#13" y="6.513"/><use xlink:href="#14" y="8.684"/><use xlink:href="#15" y="10.855"/><use xlink:href="#16" y="13.026"/></svg><svg x="4320"><use xlink:href="#a"/><use xlink:href="#b" x="-.004" y="15.172"/><use xlink:href="#2"/><use xlink:href="#11" y="2.171"/><use xlink:href="#12" y="4.342"/><use xlink:href="#13" y="6.513"/><use xlink:href="#14" y="8.684"/><use xlink:href="#15" y="10.855"/><use xlink:href="#16" y="13.026"/></svg><svg x="4400"><use xlink:href="#a"/><use xlink:href="#b" x="-.004" y="17.343"/><use xlink:href="#2"/><use xlink:href="#11" y="2.171"/><use xlink:href="#12" y="4.342"/><use xlink:href="#13" y="6.513"/><use xlink:href="#14" y="8.684"/><use xlink:href="#15" y="10.855"/><use xlink:href="#16" y="13.026"/><use xlink:href="#17" y="15.197"/></svg><svg x="4480"><use xlink:href="#a"/><use xlink:href="#b" x="-.004" y="19.514"/><use xlink:href="#2"/><use xlink:href="#11" y="2.171"/><use xlink:href="#12" y="4.342"/><use xlink:href="#13" y="6.513"/><use xlink:href="#14" y="8.684"/><use xlink:href="#15" y="10.855"/><use xlink:href="#16" y="13.026"/><use xlink:href="#17" y="15.197"/><use xlink:href="#18" y="17.368"/></svg><svg x="4560"><use xlink:href="#a"/><use xlink:href="#b" x="-.004" y="21.685"/><use xlink:href="#2"/><use xlink:href="#11" y="2.171"/><use xlink:href="#12" y="4.342"/><use xlink:href="#13" y="6.513"/><use xlink:href="#14" y="8.684"/><use xlink:href="#15" y="10.855"/><use xlink:href="#16" y="13.026"/><use xlink:href="#17" y="15.197"/><use xlink:href="#18" y="17.368"/><use xlink:href="#19" y="19.539"/></svg><svg x="4640"><use xlink:href="#a"/><use xlink:href="#b" x="-.004" y="23.856"/><use xlink:href="#2"/><use xlink:href="#11" y="2.171"/><use xlink:href="#12" y="4.342"/><use xlink:href="#13" y="6.513"/><use xlink:href="#14" y="8.684"/><use xlink:href="#15" y="10.855"/><use xlink:href="#16" y="13.026"/><use xlink:href="#17" y="15.197"/><use xlink:href="#18" y="17.368"/><use xlink:href="#19" y="19.539"/><use xlink:href="#20" y="21.71"/></svg><svg x="4720"><use xlink:href="#a"/><use xlink:href="#b" x="-.004" y="26.027"/><use xlink:href="#2"/><use xlink:href="#11" y="2.171"/><use xlink:href="#12" y="4.342"/><use xlink:href="#13" y="6.513"/><use xlink:href="#14" y="8.684"/><use xlink:href="#15" y="10.855"/><use xlink:href="#16" y="13.026"/><use xlink:href="#17" y="15.197"/><use xlink:href="#18" y="17.368"/><use xlink:href="#19" y="19.539"/><use xlink:href="#20" y="21.71"/><use xlink:href="#21" y="23.881"/></svg><svg x="4800"><use xlink:href="#a"/><use xlink:href="#b" x="-.004" y="28.198"/><use xlink:href="#2"/><use xlink:href="#11" y="2.171"/><use xlink:href="#12" y="4.342"/><use xlink:href="#13" y="6.513"/><use xlink:href="#14" y="8.684"/><use xlink:href="#15" y="10.855"/><use xlink:href="#16" y="13.026"/><use xlink:href="#17" y="15.197"/><use xlink:href="#18" y="17.368"/><use xlink:href="#19" y="19.539"/><use xlink:href="#20" y="21.71"/><use xlink:href="#21" y="23.881"/><use xlink:href="#22" y="26.052"/></svg><svg x="4880"><use xlink:href="#a"/><use xlink:href="#b" x="-.004" y="30.369"/><use xlink:href="#2"/><use xlink:href="#11" y="2.171"/><use xlink:href="#12" y="4.342"/><use xlink:href="#13" y="6.513"/><use xlink:href="#14" y="8.684"/><use xlink:href="#15" y="10.855"/><use xlink:href="#16" y="13.026"/><use xlink:href="#17" y="15.197"/><use xlink:href="#18" y="17.368"/><use xlink:href="#19" y="19.539"/><use xlink:href="#20" y="21.71"/><use xlink:href="#21" y="23.881"/><use xlink:href="#22" y="26.052"/><use xlink:href="#23" y="28.223"/></svg><svg x="4960"><use xlink:href="#a"/><use xlink:href="#b" x="-.004" y="32.54"/><use xlink:href="#2"/><use xlink:href="#11" y="2.171"/><use xlink:href="#12" y="4.342"/><use xlink:href="#13" y="6.513"/><use xlink:href="#14" y="8.684"/><use xlink:href="#15" y="10.855"/><use xlink:href="#16" y="13.026"/><use xlink:href="#17" y="15.197"/><use xlink:href="#18" y="17.368"/><use xlink:href="#19" y="19.539"/><use xlink:href="#20" y="21.71"/><use xlink:href="#21" y="23.881"/><use xlink:href="#22" y="26.052"/><use xlink:href="#23" y="28.223"/><use xlink:href="#24" y="30.394"/></svg><svg x="5040"><use xlink:href="#a"/><use xlink:href="#b" x="-.004" y="34.711"/><use xlink:href="#2"/><use xlink:href="#11" y="2.171"/><use xlink:href="#12" y="4.342"/><use xlink:href="#13" y="6.513"/><use xlink:href="#14" y="8.684"/><use xlink:href="#15" y="10.855"/><use xlink:href="#16" y="13.026"/><use xlink:href="#17" y="15.197"/><use xlink:href="#18" y="17.368"/><use xlink:href="#19" y="19.539"/><use xlink:href="#20" y="21.71"/><use xlink:href="#21" y="23.881"/><use xlink:href="#22" y="26.052"/><use xlink:href="#23" y="28.223"/><use xlink:href="#24" y="30.394"/><use xlink:href="#25" y="32.565"/></svg><svg x="5120"><use xlink:href="#a"/><use xlink:href="#b" x="32.996" y="34.711"/><use xlink:href="#2"/><use xlink:href="#11" y="2.171"/><use xlink:href="#12" y="4.342"/><use xlink:href="#13" y="6.513"/><use xlink:href="#14" y="8.684"/><use xlink:href="#15" y="10.855"/><use xlink:href="#16" y="13.026"/><use xlink:href="#17" y="15.197"/><use xlink:href="#18" y="17.368"/><use xlink:href="#19" y="19.539"/><use xlink:href="#20" y="21.71"/><use xlink:href="#21" y="23.881"/><use xlink:href="#22" y="26.052"/><use xlink:href="#23" y="28.223"/><use xlink:href="#24" y="30.394"/><use xlink:href="#25" y="32.565"/><use xlink:href="#3" y="34.736"/></svg><svg x="5200"><use xlink:href="#a"/><use xlink:href="#b" x="-.004" y="36.882"/><use xlink:href="#2"/><use xlink:href="#11" y="2.171"/><use xlink:href="#12" y="4.342"/><use xlink:href="#13" y="6.513"/><use xlink:href="#14" y="8.684"/><use xlink:href="#15" y="10.855"/><use xlink:href="#16" y="13.026"/><use xlink:href="#17" y="15.197"/><use xlink:href="#18" y="17.368"/><use xlink:href="#19" y="19.539"/><use xlink:href="#20" y="21.71"/><use xlink:href="#21" y="23.881"/><use xlink:href="#22" y="26.052"/><use xlink:href="#23" y="28.223"/><use xlink:href="#24" y="30.394"/><use xlink:href="#25" y="32.565"/><text y="36.406" class="f">opera</text><text x="5.01" y="36.406" class="g">:</text><text x="6.012" y="36.406" class="h">~/xopera-opera/docs/files</text><text x="31.062" y="36.406" class="g">$</text><text x="33.066" y="36.406" class="g">exit</text></svg></svg></g></g></svg></svg>