<svg xmlns="http://www.w3.org/2000/svg" xmlns:xlink="http://www.w3.org/1999/xlink" width="840" height="928.4"><rect width="840" height="928.4" rx="5" ry="5" class="a"/><svg y="0%" x="0%"><circle cx="20" cy="20" r="6" fill="#ff5f58"/><circle cx="40" cy="20" r="6" fill="#ffbd2e"/><circle cx="60" cy="20" r="6" fill="#18c132"/></svg><svg height="868.4" viewBox="0 0 80 86.84" width="800" x="15" xmlns="http://www.w3.org/2000/svg" xmlns:xlink="http://www.w3.org/1999/xlink" y="50"><style>@keyframes k{0%{transform:translateX(0)}.02%{transform:translateX(-80px)}1.93%{transform:translateX(-160px)}2.49%{transform:translateX(-240px)}2.92%{transform:translateX(-320px)}3.46%{transform:translateX(-400px)}3.89%{transform:translateX(-480px)}4.4%{transform:translateX(-560px)}4.75%{transform:translateX(-640px)}7.28%{transform:translateX(-720px)}7.74%{transform:translateX(-800px)}8.19%{transform:translateX(-880px)}9.11%{transform:translateX(-960px)}9.67%{transform:translateX(-1040px)}10.16%{transform:translateX(-1120px)}11.34%{transform:translateX(-1280px)}13.33%{transform:translateX(-1360px)}13.79%{transform:translateX(-1440px)}14.11%{transform:translateX(-1520px)}14.6%{transform:translateX(-1600px)}15%{transform:translateX(-1680px)}15.51%{transform:translateX(-1760px)}15.91%{transform:translateX(-1840px)}16.45%{transform:translateX(-1920px)}16.91%{transform:translateX(-2000px)}17.53%{transform:translateX(-2080px)}18.01%{transform:translateX(-2160px)}18.25%{transform:translateX(-2240px)}18.95%{transform:translateX(-2320px)}19.49%{transform:translateX(-2400px)}20.3%{transform:translateX(-2480px)}20.78%{transform:translateX(-2560px)}21.37%{transform:translateX(-2640px)}22.15%{transform:translateX(-2720px)}22.69%{transform:translateX(-2800px)}27.05%{transform:translateX(-2880px)}27.67%{transform:translateX(-2960px)}28.04%{transform:translateX(-3040px)}29.31%{transform:translateX(-3120px)}30.43%{transform:translateX(-3200px)}30.56%{transform:translateX(-3280px)}37.28%{transform:translateX(-3360px)}44.01%{transform:translateX(-3600px)}50.74%{transform:translateX(-3680px)}57.46%{transform:translateX(-3760px)}64.19%{transform:translateX(-3840px)}64.24%{transform:translateX(-3920px)}67.48%{transform:translateX(-4000px)}67.91%{transform:translateX(-4080px)}68.42%{transform:translateX(-4160px)}68.98%{transform:translateX(-4240px)}69.14%{transform:translateX(-4320px)}70.54%{transform:translateX(-4400px)}70.55%{transform:translateX(-4560px)}72.88%{transform:translateX(-4640px)}73.4%{transform:translateX(-4720px)}73.72%{transform:translateX(-4800px)}74.31%{transform:translateX(-4880px)}74.58%{transform:translateX(-4960px)}75.2%{transform:translateX(-5040px)}76.76%{transform:translateX(-5120px)}77.62%{transform:translateX(-5200px)}78.37%{transform:translateX(-5280px)}79.12%{transform:translateX(-5360px)}80.06%{transform:translateX(-5440px)}80.85%{transform:translateX(-5520px)}81.33%{transform:translateX(-5600px)}82.4%{transform:translateX(-5680px)}83.08%{transform:translateX(-5760px)}83.91%{transform:translateX(-5840px)}87.59%{transform:translateX(-5920px)}88.43%{transform:translateX(-6000px)}88.73%{transform:translateX(-6080px)}89.13%{transform:translateX(-6160px)}89.83%{transform:translateX(-6240px)}91.93%{transform:translateX(-6320px)}93.23%{transform:translateX(-6480px)}93.28%{transform:translateX(-6560px)}to{transform:translateX(-6640px)}}.a{fill:#282d35}.f,.g,.h{white-space:pre}.f{fill:#a8cc8c;font-weight:700}.g,.h{fill:#b9c0cb}.h{fill:#71bef2;font-weight:700}</style><g font-family="Monaco,Consolas,Menlo,'Bitstream Vera Sans Mono','Powerline Symbols',monospace" font-size="1.67"><defs><symbol id="25"><text x="2.004" y="1.67" class="g">},</text></symbol><symbol id="1"><text y="1.67" class="f">opera</text><text x="5.01" y="1.67" class="g">:</text><text x="6.012" y="1.67" class="h">~</text><text x="7.014" y="1.67" class="g">$</text><text x="9.018" y="1.67" class="g">cd</text></symbol><symbol id="3"><text y="1.67" class="f">opera</text><text x="5.01" y="1.67" class="g">:</text><text x="6.012" y="1.67" class="h">~/xopera-opera/docs/files</text><text x="31.062" y="1.67" class="g">$</text></symbol><symbol id="4"><text y="1.67" class="f">opera</text><text x="5.01" y="1.67" class="g">:</text><text x="6.012" y="1.67" class="h">~/xopera-opera/docs/files</text><text x="31.062" y="1.67" class="g">$</text><text x="33.066" y="1.67" class="g">o</text></symbol><symbol id="5"><text y="1.67" class="f">opera</text><text x="5.01" y="1.67" class="g">:</text><text x="6.012" y="1.67" class="h">~/xopera-opera/docs/files</text><text x="31.062" y="1.67" class="g">$</text><text x="33.066" y="1.67" class="g">op</text></symbol><symbol id="6"><text y="1.67" class="f">opera</text><text x="5.01" y="1.67" class="g">:</text><text x="6.012" y="1.67" class="h">~/xopera-opera/docs/files</text><text x="31.062" y="1.67" class="g">$</text><text x="33.066" y="1.67" class="g">ope</text></symbol><symbol id="7"><text y="1.67" class="f">opera</text><text x="5.01" y="1.67" class="g">:</text><text x="6.012" y="1.67" class="h">~/xopera-opera/docs/files</text><text x="31.062" y="1.67" class="g">$</text><text x="33.066" y="1.67" class="g">oper</text></symbol><symbol id="8"><text y="1.67" class="f">opera</text><text x="5.01" y="1.67" class="g">:</text><text x="6.012" y="1.67" class="h">~/xopera-opera/docs/files</text><text x="31.062" y="1.67" class="g">$</text><text x="33.066" y="1.67" class="g">opera</text></symbol><symbol id="9"><text y="1.67" class="f">opera</text><text x="5.01" y="1.67" class="g">:</text><text x="6.012" y="1.67" class="h">~/xopera-opera/docs/files</text><text x="31.062" y="1.67" class="g">$</text><text x="33.066" y="1.67" class="g">opera</text><text x="39.078" y="1.67" class="g">deploy</text></symbol><symbol id="10"><text y="1.67" class="f">opera</text><text x="5.01" y="1.67" class="g">:</text><text x="6.012" y="1.67" class="h">~/xopera-opera/docs/files</text><text x="31.062" y="1.67" class="g">$</text><text x="33.066" y="1.67" class="g">opera</text><text x="39.078" y="1.67" class="g">deploy</text><text x="46.092" y="1.67" class="g">-i</text></symbol><symbol id="11"><text y="1.67" class="f">opera</text><text x="5.01" y="1.67" class="g">:</text><text x="6.012" y="1.67" class="h">~/xopera-opera/docs/files</text><text x="31.062" y="1.67" class="g">$</text><text x="33.066" y="1.67" class="g">opera</text><text x="39.078" y="1.67" class="g">deploy</text><text x="46.092" y="1.67" class="g">-i</text><text x="49.098" y="1.67" class="g">inputs.json</text><text x="61.122" y="1.67" class="g">small.csar</text></symbol><symbol id="12"><text y="1.67" class="g">[Worker_0]</text><text x="13.026" y="1.67" class="g">Deploying</text><text x="23.046" y="1.67" class="g">my_workstation_0</text></symbol><symbol id="13"><text y="1.67" class="g">[Worker_0]</text><text x="15.03" y="1.67" class="g">Executing</text><text x="25.05" y="1.67" class="g">pre_configure_target</text><text x="46.092" y="1.67" class="g">on</text><text x="49.098" y="1.67" class="g">test_node_0--my_workstation_0</text></symbol><symbol id="14"><text y="1.67" class="g">[Worker_0]</text><text x="15.03" y="1.67" class="g">Executing</text><text x="25.05" y="1.67" class="g">post_configure_target</text><text x="47.094" y="1.67" class="g">on</text><text x="50.1" y="1.67" class="g">test_node_0--my_workstation_0</text></symbol><symbol id="15"><text y="1.67" class="g">[Worker_0]</text><text x="13.026" y="1.67" class="g">Deployment</text><text x="24.048" y="1.67" class="g">of</text><text x="27.054" y="1.67" class="g">my_workstation_0</text><text x="44.088" y="1.67" class="g">complete</text></symbol><symbol id="16"><text y="1.67" class="g">[Worker_0]</text><text x="13.026" y="1.67" class="g">Deploying</text><text x="23.046" y="1.67" class="g">test_node_0</text></symbol><symbol id="17"><text y="1.67" class="g">[Worker_0]</text><text x="15.03" y="1.67" class="g">Executing</text><text x="25.05" y="1.67" class="g">create</text><text x="32.064" y="1.67" class="g">on</text><text x="35.07" y="1.67" class="g">test_node_0</text></symbol><symbol id="18"><text y="1.67" class="g">[Worker_0]</text><text x="15.03" y="1.67" class="g">Executing</text><text x="25.05" y="1.67" class="g">pre_configure_source</text><text x="46.092" y="1.67" class="g">on</text><text x="49.098" y="1.67" class="g">test_node_0--my_workstation_0</text></symbol><symbol id="19"><text y="1.67" class="g">[Worker_0]</text><text x="15.03" y="1.67" class="g">Executing</text><text x="25.05" y="1.67" class="g">post_configure_source</text><text x="47.094" y="1.67" class="g">on</text><text x="50.1" y="1.67" class="g">test_node_0--my_workstation_0</text></symbol><symbol id="20"><text y="1.67" class="g">[Worker_0]</text><text x="13.026" y="1.67" class="g">Deployment</text><text x="24.048" y="1.67" class="g">of</text><text x="27.054" y="1.67" class="g">test_node_0</text><text x="39.078" y="1.67" class="g">complete</text></symbol><symbol id="21"><text y="1.67" class="f">opera</text><text x="5.01" y="1.67" class="g">:</text><text x="6.012" y="1.67" class="h">~/xopera-opera/docs/files</text><text x="31.062" y="1.67" class="g">$</text><text x="33.066" y="1.67" class="g">clear</text></symbol><symbol id="22"><text y="1.67" class="f">opera</text><text x="5.01" y="1.67" class="g">:</text><text x="6.012" y="1.67" class="h">~/xopera-opera/docs/files</text><text x="31.062" y="1.67" class="g">$</text><text x="33.066" y="1.67" class="g">opera</text><text x="39.078" y="1.67" class="g">outputs</text></symbol><symbol id="23"><text y="1.67" class="f">opera</text><text x="5.01" y="1.67" class="g">:</text><text x="6.012" y="1.67" class="h">~/xopera-opera/docs/files</text><text x="31.062" y="1.67" class="g">$</text><text x="33.066" y="1.67" class="g">opera</text><text x="39.078" y="1.67" class="g">outputs</text><text x="47.094" y="1.67" class="g">-f</text></symbol><symbol id="24"><text y="1.67" class="f">opera</text><text x="5.01" y="1.67" class="g">:</text><text x="6.012" y="1.67" class="h">~/xopera-opera/docs/files</text><text x="31.062" y="1.67" class="g">$</text><text x="33.066" y="1.67" class="g">opera</text><text x="39.078" y="1.67" class="g">outputs</text><text x="47.094" y="1.67" class="g">-f</text><text x="50.1" y="1.67" class="g">json</text></symbol><symbol id="2"><text y="1.67" class="f">opera</text><text x="5.01" y="1.67" class="g">:</text><text x="6.012" y="1.67" class="h">~</text><text x="7.014" y="1.67" class="g">$</text><text x="9.018" y="1.67" class="g">cd</text><text x="12.024" y="1.67" class="g">xopera-opera/docs/files/</text></symbol><symbol id="26"><text x="4.008" y="1.67" class="g">&quot;description&quot;:</text><text x="19.038" y="1.67" class="g">&quot;Relationship</text><text x="33.066" y="1.67" class="g">attribute</text><text x="43.086" y="1.67" class="g">output&quot;,</text></symbol><symbol id="27"><text x="4.008" y="1.67" class="g">&quot;value&quot;:</text><text x="13.026" y="1.67" class="g">&quot;Relationship</text><text x="27.054" y="1.67" class="g">attribute&quot;</text></symbol><symbol id="28"><text x="2.004" y="1.67" class="g">&quot;output_relationship_property&quot;:</text><text x="34.068" y="1.67" class="g">{</text></symbol><symbol id="29"><text x="4.008" y="1.67" class="g">&quot;description&quot;:</text><text x="19.038" y="1.67" class="g">&quot;Relationship</text><text x="33.066" y="1.67" class="g">property</text><text x="42.084" y="1.67" class="g">output&quot;,</text></symbol><symbol id="30"><text x="4.008" y="1.67" class="g">&quot;value&quot;:</text><text x="13.026" y="1.67" class="g">&quot;Relationship</text><text x="27.054" y="1.67" class="g">property&quot;</text></symbol><symbol id="31"><text x="2.004" y="1.67" class="g">&quot;output_relationship_input&quot;:</text><text x="31.062" y="1.67" class="g">{</text></symbol><symbol id="32"><text x="4.008" y="1.67" class="g">&quot;description&quot;:</text><text x="19.038" y="1.67" class="g">&quot;Relationship</text><text x="33.066" y="1.67" class="g">input</text><text x="39.078" y="1.67" class="g">output&quot;,</text></symbol><symbol id="33"><text x="4.008" y="1.67" class="g">&quot;value&quot;:</text><text x="13.026" y="1.67" class="g">&quot;Hey,</text><text x="19.038" y="1.67" class="g">I</text><text x="21.042" y="1.67" class="g">am</text><text x="24.048" y="1.67" class="g">in</text><text x="27.054" y="1.67" class="g">relationship!&quot;</text></symbol><symbol id="34"><text x="2.004" y="1.67" class="g">&quot;output_pre_configure_source_attribute&quot;:</text><text x="43.086" y="1.67" class="g">{</text></symbol><symbol id="35"><text x="4.008" y="1.67" class="g">&quot;value&quot;:</text><text x="13.026" y="1.67" class="g">&quot;This</text><text x="19.038" y="1.67" class="g">is</text><text x="22.044" y="1.67" class="g">pre</text><text x="26.052" y="1.67" class="g">configure</text><text x="36.072" y="1.67" class="g">source</text><text x="43.086" y="1.67" class="g">attribute&quot;</text></symbol><symbol id="36"><text x="2.004" y="1.67" class="g">&quot;output_pre_configure_target_attribute&quot;:</text><text x="43.086" y="1.67" class="g">{</text></symbol><symbol id="37"><text x="4.008" y="1.67" class="g">&quot;value&quot;:</text><text x="13.026" y="1.67" class="g">&quot;This</text><text x="19.038" y="1.67" class="g">is</text><text x="22.044" y="1.67" class="g">pre</text><text x="26.052" y="1.67" class="g">configure</text><text x="36.072" y="1.67" class="g">target</text><text x="43.086" y="1.67" class="g">attribute&quot;</text></symbol><symbol id="38"><text x="2.004" y="1.67" class="g">&quot;output_post_configure_source_attribute&quot;:</text><text x="44.088" y="1.67" class="g">{</text></symbol><symbol id="39"><text x="2.004" y="1.67" class="g">&quot;output_post_configure_source_property_attribute&quot;:</text><text x="53.106" y="1.67" class="g">{</text></symbol><symbol id="40"><text x="2.004" y="1.67" class="g">&quot;output_post_configure_source_input_attribute&quot;:</text><text x="50.1" y="1.67" class="g">{</text></symbol><symbol id="41"><text x="2.004" y="1.67" class="g">&quot;output_post_configure_source_txt_file_attribute&quot;:</text><text x="53.106" y="1.67" class="g">{</text></symbol><symbol id="42"><text x="4.008" y="1.67" class="g">&quot;value&quot;:</text><text x="13.026" y="1.67" class="g">&quot;This</text><text x="19.038" y="1.67" class="g">is</text><text x="22.044" y="1.67" class="g">an</text><text x="25.05" y="1.67" class="g">example</text><text x="33.066" y="1.67" class="g">file</text><text x="38.076" y="1.67" class="g">content.&quot;</text></symbol><symbol id="43"><text x="2.004" y="1.67" class="g">&quot;output_post_configure_target_attribute&quot;:</text><text x="44.088" y="1.67" class="g">{</text></symbol><symbol id="44"><text x="4.008" y="1.67" class="g">&quot;value&quot;:</text><text x="13.026" y="1.67" class="g">&quot;This</text><text x="19.038" y="1.67" class="g">is</text><text x="22.044" y="1.67" class="g">post</text><text x="27.054" y="1.67" class="g">configure</text><text x="37.074" y="1.67" class="g">target</text><text x="44.088" y="1.67" class="g">attribute&quot;</text></symbol><symbol id="45"><text x="2.004" y="1.67" class="g">}</text></symbol><symbol id="46"><text y="1.67" class="g">}</text></symbol><symbol id="a"><path fill="transparent" d="M0 0h80v41H0z"/></symbol><symbol id="b"><path fill="#6f7683" d="M0 0h1.102v2.171H0z"/></symbol></defs><path class="a" d="M0 0h80v86.84H0z"/><g style="animation-duration:29.741395s;animation-iteration-count:infinite;animation-name:k;animation-timing-function:steps(1,end)"><svg width="6720"><svg><use xlink:href="#a"/><use xlink:href="#b" x="-.004"/></svg><svg x="80"><use xlink:href="#a"/><use xlink:href="#b" x="8.996"/><text y="1.67" class="f">opera</text><text x="5.01" y="1.67" class="g">:</text><text x="6.012" y="1.67" class="h">~</text><text x="7.014" y="1.67" class="g">$</text></svg><svg x="160"><use xlink:href="#a"/><use xlink:href="#b" x="9.996"/><text y="1.67" class="f">opera</text><text x="5.01" y="1.67" class="g">:</text><text x="6.012" y="1.67" class="h">~</text><text x="7.014" y="1.67" class="g">$</text><text x="9.018" y="1.67" class="g">c</text></svg><svg x="240"><use xlink:href="#a"/><use xlink:href="#b" x="10.996"/><use xlink:href="#1"/></svg><svg x="320"><use xlink:href="#a"/><use xlink:href="#b" x="11.996"/><use xlink:href="#1"/></svg><svg x="400"><use xlink:href="#a"/><use xlink:href="#b" x="12.996"/><text y="1.67" class="f">opera</text><text x="5.01" y="1.67" class="g">:</text><text x="6.012" y="1.67" class="h">~</text><text x="7.014" y="1.67" class="g">$</text><text x="9.018" y="1.67" class="g">cd</text><text x="12.024" y="1.67" class="g">x</text></svg><svg x="480"><use xlink:href="#a"/><use xlink:href="#b" x="13.996"/><text y="1.67" class="f">opera</text><text x="5.01" y="1.67" class="g">:</text><text x="6.012" y="1.67" class="h">~</text><text x="7.014" y="1.67" class="g">$</text><text x="9.018" y="1.67" class="g">cd</text><text x="12.024" y="1.67" class="g">xo</text></svg><svg x="560"><use xlink:href="#a"/><use xlink:href="#b" x="14.996"/><text y="1.67" class="f">opera</text><text x="5.01" y="1.67" class="g">:</text><text x="6.012" y="1.67" class="h">~</text><text x="7.014" y="1.67" class="g">$</text><text x="9.018" y="1.67" class="g">cd</text><text x="12.024" y="1.67" class="g">xop</text></svg><svg x="640"><use xlink:href="#a"/><use xlink:href="#b" x="24.996"/><text y="1.67" class="f">opera</text><text x="5.01" y="1.67" class="g">:</text><text x="6.012" y="1.67" class="h">~</text><text x="7.014" y="1.67" class="g">$</text><text x="9.018" y="1.67" class="g">cd</text><text x="12.024" y="1.67" class="g">xopera-opera/</text></svg><svg x="720"><use xlink:href="#a"/><use xlink:href="#b" x="25.996"/><text y="1.67" class="f">opera</text><text x="5.01" y="1.67" class="g">:</text><text x="6.012" y="1.67" class="h">~</text><text x="7.014" y="1.67" class="g">$</text><text x="9.018" y="1.67" class="g">cd</text><text x="12.024" y="1.67" class="g">xopera-opera/d</text></svg><svg x="800"><use xlink:href="#a"/><use xlink:href="#b" x="26.996"/><text y="1.67" class="f">opera</text><text x="5.01" y="1.67" class="g">:</text><text x="6.012" y="1.67" class="h">~</text><text x="7.014" y="1.67" class="g">$</text><text x="9.018" y="1.67" class="g">cd</text><text x="12.024" y="1.67" class="g">xopera-opera/do</text></svg><svg x="880"><use xlink:href="#a"/><use xlink:href="#b" x="29.996"/><text y="1.67" class="f">opera</text><text x="5.01" y="1.67" class="g">:</text><text x="6.012" y="1.67" class="h">~</text><text x="7.014" y="1.67" class="g">$</text><text x="9.018" y="1.67" class="g">cd</text><text x="12.024" y="1.67" class="g">xopera-opera/docs/</text></svg><svg x="960"><use xlink:href="#a"/><use xlink:href="#b" x="30.996"/><text y="1.67" class="f">opera</text><text x="5.01" y="1.67" class="g">:</text><text x="6.012" y="1.67" class="h">~</text><text x="7.014" y="1.67" class="g">$</text><text x="9.018" y="1.67" class="g">cd</text><text x="12.024" y="1.67" class="g">xopera-opera/docs/f</text></svg><svg x="1040"><use xlink:href="#a"/><use xlink:href="#b" x="31.996"/><text y="1.67" class="f">opera</text><text x="5.01" y="1.67" class="g">:</text><text x="6.012" y="1.67" class="h">~</text><text x="7.014" y="1.67" class="g">$</text><text x="9.018" y="1.67" class="g">cd</text><text x="12.024" y="1.67" class="g">xopera-opera/docs/fi</text></svg><svg x="1120"><use xlink:href="#a"/><use xlink:href="#b" x="35.996"/><use xlink:href="#2"/></svg><svg x="1200"><use xlink:href="#a"/><use xlink:href="#b" x="-.004" y="2.146"/><use xlink:href="#2"/></svg><svg x="1280"><use xlink:href="#a"/><use xlink:href="#b" x="32.996" y="2.146"/><use xlink:href="#2"/><use xlink:href="#3" y="2.171"/></svg><svg x="1360"><use xlink:href="#a"/><use xlink:href="#b" x="33.996" y="2.146"/><use xlink:href="#2"/><use xlink:href="#4" y="2.171"/></svg><svg x="1440"><use xlink:href="#a"/><use xlink:href="#b" x="34.996" y="2.146"/><use xlink:href="#2"/><use xlink:href="#5" y="2.171"/></svg><svg x="1520"><use xlink:href="#a"/><use xlink:href="#b" x="35.996" y="2.146"/><use xlink:href="#2"/><use xlink:href="#6" y="2.171"/></svg><svg x="1600"><use xlink:href="#a"/><use xlink:href="#b" x="36.996" y="2.146"/><use xlink:href="#2"/><use xlink:href="#7" y="2.171"/></svg><svg x="1680"><use xlink:href="#a"/><use xlink:href="#b" x="37.996" y="2.146"/><use xlink:href="#2"/><use xlink:href="#8" y="2.171"/></svg><svg x="1760"><use xlink:href="#a"/><use xlink:href="#b" x="38.996" y="2.146"/><use xlink:href="#2"/><use xlink:href="#8" y="2.171"/></svg><svg x="1840"><use xlink:href="#a"/><use xlink:href="#b" x="39.996" y="2.146"/><use xlink:href="#2"/><text y="3.841" class="f">opera</text><text x="5.01" y="3.841" class="g">:</text><text x="6.012" y="3.841" class="h">~/xopera-opera/docs/files</text><text x="31.062" y="3.841" class="g">$</text><text x="33.066" y="3.841" class="g">opera</text><text x="39.078" y="3.841" class="g">d</text></svg><svg x="1920"><use xlink:href="#a"/><use xlink:href="#b" x="40.996" y="2.146"/><use xlink:href="#2"/><text y="3.841" class="f">opera</text><text x="5.01" y="3.841" class="g">:</text><text x="6.012" y="3.841" class="h">~/xopera-opera/docs/files</text><text x="31.062" y="3.841" class="g">$</text><text x="33.066" y="3.841" class="g">opera</text><text x="39.078" y="3.841" class="g">de</text></svg><svg x="2000"><use xlink:href="#a"/><use xlink:href="#b" x="41.996" y="2.146"/><use xlink:href="#2"/><text y="3.841" class="f">opera</text><text x="5.01" y="3.841" class="g">:</text><text x="6.012" y="3.841" class="h">~/xopera-opera/docs/files</text><text x="31.062" y="3.841" class="g">$</text><text x="33.066" y="3.841" class="g">opera</text><text x="39.078" y="3.841" class="g">dep</text></svg><svg x="2080"><use xlink:href="#a"/><use xlink:href="#b" x="42.996" y="2.146"/><use xlink:href="#2"/><text y="3.841" class="f">opera</text><text x="5.01" y="3.841" class="g">:</text><text x="6.012" y="3.841" class="h">~/xopera-opera/docs/files</text><text x="31.062" y="3.841" class="g">$</text><text x="33.066" y="3.841" class="g">opera</text><text x="39.078" y="3.841" class="g">depl</text></svg><svg x="2160"><use xlink:href="#a"/><use xlink:href="#b" x="43.996" y="2.146"/><use xlink:href="#2"/><text y="3.841" class="f">opera</text><text x="5.01" y="3.841" class="g">:</text><text x="6.012" y="3.841" class="h">~/xopera-opera/docs/files</text><text x="31.062" y="3.841" class="g">$</text><text x="33.066" y="3.841" class="g">opera</text><text x="39.078" y="3.841" class="g">deplo</text></svg><svg x="2240"><use xlink:href="#a"/><use xlink:href="#b" x="44.996" y="2.146"/><use xlink:href="#2"/><use xlink:href="#9" y="2.171"/></svg><svg x="2320"><use xlink:href="#a"/><use xlink:href="#b" x="45.996" y="2.146"/><use xlink:href="#2"/><use xlink:href="#9" y="2.171"/></svg><svg x="2400"><use xlink:href="#a"/><use xlink:href="#b" x="46.996" y="2.146"/><use xlink:href="#2"/><text y="3.841" class="f">opera</text><text x="5.01" y="3.841" class="g">:</text><text x="6.012" y="3.841" class="h">~/xopera-opera/docs/files</text><text x="31.062" y="3.841" class="g">$</text><text x="33.066" y="3.841" class="g">opera</text><text x="39.078" y="3.841" class="g">deploy</text><text x="46.092" y="3.841" class="g">-</text></svg><svg x="2480"><use xlink:href="#a"/><use xlink:href="#b" x="47.996" y="2.146"/><use xlink:href="#2"/><use xlink:href="#10" y="2.171"/></svg><svg x="2560"><use xlink:href="#a"/><use xlink:href="#b" x="48.996" y="2.146"/><use xlink:href="#2"/><use xlink:href="#10" y="2.171"/></svg><svg x="2640"><use xlink:href="#a"/><use xlink:href="#b" x="49.996" y="2.146"/><use xlink:href="#2"/><text y="3.841" class="f">opera</text><text x="5.01" y="3.841" class="g">:</text><text x="6.012" y="3.841" class="h">~/xopera-opera/docs/files</text><text x="31.062" y="3.841" class="g">$</text><text x="33.066" y="3.841" class="g">opera</text><text x="39.078" y="3.841" class="g">deploy</text><text x="46.092" y="3.841" class="g">-i</text><text x="49.098" y="3.841" class="g">i</text></svg><svg x="2720"><use xlink:href="#a"/><use xlink:href="#b" x="50.996" y="2.146"/><use xlink:href="#2"/><text y="3.841" class="f">opera</text><text x="5.01" y="3.841" class="g">:</text><text x="6.012" y="3.841" class="h">~/xopera-opera/docs/files</text><text x="31.062" y="3.841" class="g">$</text><text x="33.066" y="3.841" class="g">opera</text><text x="39.078" y="3.841" class="g">deploy</text><text x="46.092" y="3.841" class="g">-i</text><text x="49.098" y="3.841" class="g">in</text></svg><svg x="2800"><use xlink:href="#a"/><use xlink:href="#b" x="60.996" y="2.146"/><use xlink:href="#2"/><text y="3.841" class="f">opera</text><text x="5.01" y="3.841" class="g">:</text><text x="6.012" y="3.841" class="h">~/xopera-opera/docs/files</text><text x="31.062" y="3.841" class="g">$</text><text x="33.066" y="3.841" class="g">opera</text><text x="39.078" y="3.841" class="g">deploy</text><text x="46.092" y="3.841" class="g">-i</text><text x="49.098" y="3.841" class="g">inputs.json</text></svg><svg x="2880"><use xlink:href="#a"/><use xlink:href="#b" x="61.996" y="2.146"/><use xlink:href="#2"/><text y="3.841" class="f">opera</text><text x="5.01" y="3.841" class="g">:</text><text x="6.012" y="3.841" class="h">~/xopera-opera/docs/files</text><text x="31.062" y="3.841" class="g">$</text><text x="33.066" y="3.841" class="g">opera</text><text x="39.078" y="3.841" class="g">deploy</text><text x="46.092" y="3.841" class="g">-i</text><text x="49.098" y="3.841" class="g">inputs.json</text><text x="61.122" y="3.841" class="g">s</text></svg><svg x="2960"><use xlink:href="#a"/><use xlink:href="#b" x="62.996" y="2.146"/><use xlink:href="#2"/><text y="3.841" class="f">opera</text><text x="5.01" y="3.841" class="g">:</text><text x="6.012" y="3.841" class="h">~/xopera-opera/docs/files</text><text x="31.062" y="3.841" class="g">$</text><text x="33.066" y="3.841" class="g">opera</text><text x="39.078" y="3.841" class="g">deploy</text><text x="46.092" y="3.841" class="g">-i</text><text x="49.098" y="3.841" class="g">inputs.json</text><text x="61.122" y="3.841" class="g">sm</text></svg><svg x="3040"><use xlink:href="#a"/><use xlink:href="#b" x="71.996" y="2.146"/><use xlink:href="#2"/><use xlink:href="#11" y="2.171"/></svg><svg x="3120"><use xlink:href="#a"/><use xlink:href="#b" x="-.004" y="4.317"/><use xlink:href="#2"/><use xlink:href="#11" y="2.171"/></svg><svg x="3200"><use xlink:href="#a"/><use xlink:href="#b" x="-.004" y="6.488"/><use xlink:href="#2"/><use xlink:href="#11" y="2.171"/><use xlink:href="#12" y="4.342"/></svg><svg x="3280"><use xlink:href="#a"/><use xlink:href="#b" x="-.004" y="8.659"/><use xlink:href="#2"/><use xlink:href="#11" y="2.171"/><use xlink:href="#12" y="4.342"/><use xlink:href="#13" y="6.513"/></svg><svg x="3360"><use xlink:href="#a"/><use xlink:href="#b" x="-.004" y="10.83"/><use xlink:href="#2"/><use xlink:href="#11" y="2.171"/><use xlink:href="#12" y="4.342"/><use xlink:href="#13" y="6.513"/><use xlink:href="#14" y="8.684"/></svg><svg x="3440"><use xlink:href="#a"/><use xlink:href="#b" x="-.004" y="13.001"/><use xlink:href="#2"/><use xlink:href="#11" y="2.171"/><use xlink:href="#12" y="4.342"/><use xlink:href="#13" y="6.513"/><use xlink:href="#14" y="8.684"/><use xlink:href="#15" y="10.855"/></svg><svg x="3520"><use xlink:href="#a"/><use xlink:href="#b" x="-.004" y="15.172"/><use xlink:href="#2"/><use xlink:href="#11" y="2.171"/><use xlink:href="#12" y="4.342"/><use xlink:href="#13" y="6.513"/><use xlink:href="#14" y="8.684"/><use xlink:href="#15" y="10.855"/><use xlink:href="#16" y="13.026"/></svg><svg x="3600"><use xlink:href="#a"/><use xlink:href="#b" x="-.004" y="17.343"/><use xlink:href="#2"/><use xlink:href="#11" y="2.171"/><use xlink:href="#12" y="4.342"/><use xlink:href="#13" y="6.513"/><use xlink:href="#14" y="8.684"/><use xlink:href="#15" y="10.855"/><use xlink:href="#16" y="13.026"/><use xlink:href="#17" y="15.197"/></svg><svg x="3680"><use xlink:href="#a"/><use xlink:href="#b" x="-.004" y="19.514"/><use xlink:href="#2"/><use xlink:href="#11" y="2.171"/><use xlink:href="#12" y="4.342"/><use xlink:href="#13" y="6.513"/><use xlink:href="#14" y="8.684"/><use xlink:href="#15" y="10.855"/><use xlink:href="#16" y="13.026"/><use xlink:href="#17" y="15.197"/><use xlink:href="#18" y="17.368"/></svg><svg x="3760"><use xlink:href="#a"/><use xlink:href="#b" x="-.004" y="21.685"/><use xlink:href="#2"/><use xlink:href="#11" y="2.171"/><use xlink:href="#12" y="4.342"/><use xlink:href="#13" y="6.513"/><use xlink:href="#14" y="8.684"/><use xlink:href="#15" y="10.855"/><use xlink:href="#16" y="13.026"/><use xlink:href="#17" y="15.197"/><use xlink:href="#18" y="17.368"/><use xlink:href="#19" y="19.539"/></svg><svg x="3840"><use xlink:href="#a"/><use xlink:href="#b" x="-.004" y="23.856"/><use xlink:href="#2"/><use xlink:href="#11" y="2.171"/><use xlink:href="#12" y="4.342"/><use xlink:href="#13" y="6.513"/><use xlink:href="#14" y="8.684"/><use xlink:href="#15" y="10.855"/><use xlink:href="#16" y="13.026"/><use xlink:href="#17" y="15.197"/><use xlink:href="#18" y="17.368"/><use xlink:href="#19" y="19.539"/><use xlink:href="#20" y="21.71"/></svg><svg x="3920"><use xlink:href="#a"/><use xlink:href="#b" x="32.996" y="23.856"/><use xlink:href="#2"/><use xlink:href="#11" y="2.171"/><use xlink:href="#12" y="4.342"/><use xlink:href="#13" y="6.513"/><use xlink:href="#14" y="8.684"/><use xlink:href="#15" y="10.855"/><use xlink:href="#16" y="13.026"/><use xlink:href="#17" y="15.197"/><use xlink:href="#18" y="17.368"/><use xlink:href="#19" y="19.539"/><use xlink:href="#20" y="21.71"/><use xlink:href="#3" y="23.881"/></svg><svg x="4000"><use xlink:href="#a"/><use xlink:href="#b" x="33.996" y="23.856"/><use xlink:href="#2"/><use xlink:href="#11" y="2.171"/><use xlink:href="#12" y="4.342"/><use xlink:href="#13" y="6.513"/><use xlink:href="#14" y="8.684"/><use xlink:href="#15" y="10.855"/><use xlink:href="#16" y="13.026"/><use xlink:href="#17" y="15.197"/><use xlink:href="#18" y="17.368"/><use xlink:href="#19" y="19.539"/><use xlink:href="#20" y="21.71"/><text y="25.551" class="f">opera</text><text x="5.01" y="25.551" class="g">:</text><text x="6.012" y="25.551" class="h">~/xopera-opera/docs/files</text><text x="31.062" y="25.551" class="g">$</text><text x="33.066" y="25.551" class="g">c</text></svg><svg x="4080"><use xlink:href="#a"/><use xlink:href="#b" x="34.996" y="23.856"/><use xlink:href="#2"/><use xlink:href="#11" y="2.171"/><use xlink:href="#12" y="4.342"/><use xlink:href="#13" y="6.513"/><use xlink:href="#14" y="8.684"/><use xlink:href="#15" y="10.855"/><use xlink:href="#16" y="13.026"/><use xlink:href="#17" y="15.197"/><use xlink:href="#18" y="17.368"/><use xlink:href="#19" y="19.539"/><use xlink:href="#20" y="21.71"/><text y="25.551" class="f">opera</text><text x="5.01" y="25.551" class="g">:</text><text x="6.012" y="25.551" class="h">~/xopera-opera/docs/files</text><text x="31.062" y="25.551" class="g">$</text><text x="33.066" y="25.551" class="g">cl</text></svg><svg x="4160"><use xlink:href="#a"/><use xlink:href="#b" x="35.996" y="23.856"/><use xlink:href="#2"/><use xlink:href="#11" y="2.171"/><use xlink:href="#12" y="4.342"/><use xlink:href="#13" y="6.513"/><use xlink:href="#14" y="8.684"/><use xlink:href="#15" y="10.855"/><use xlink:href="#16" y="13.026"/><use xlink:href="#17" y="15.197"/><use xlink:href="#18" y="17.368"/><use xlink:href="#19" y="19.539"/><use xlink:href="#20" y="21.71"/><text y="25.551" class="f">opera</text><text x="5.01" y="25.551" class="g">:</text><text x="6.012" y="25.551" class="h">~/xopera-opera/docs/files</text><text x="31.062" y="25.551" class="g">$</text><text x="33.066" y="25.551" class="g">cle</text></svg><svg x="4240"><use xlink:href="#a"/><use xlink:href="#b" x="36.996" y="23.856"/><use xlink:href="#2"/><use xlink:href="#11" y="2.171"/><use xlink:href="#12" y="4.342"/><use xlink:href="#13" y="6.513"/><use xlink:href="#14" y="8.684"/><use xlink:href="#15" y="10.855"/><use xlink:href="#16" y="13.026"/><use xlink:href="#17" y="15.197"/><use xlink:href="#18" y="17.368"/><use xlink:href="#19" y="19.539"/><use xlink:href="#20" y="21.71"/><text y="25.551" class="f">opera</text><text x="5.01" y="25.551" class="g">:</text><text x="6.012" y="25.551" class="h">~/xopera-opera/docs/files</text><text x="31.062" y="25.551" class="g">$</text><text x="33.066" y="25.551" class="g">clea</text></svg><svg x="4320"><use xlink:href="#a"/><use xlink:href="#b" x="37.996" y="23.856"/><use xlink:href="#2"/><use xlink:href="#11" y="2.171"/><use xlink:href="#12" y="4.342"/><use xlink:href="#13" y="6.513"/><use xlink:href="#14" y="8.684"/><use xlink:href="#15" y="10.855"/><use xlink:href="#16" y="13.026"/><use xlink:href="#17" y="15.197"/><use xlink:href="#18" y="17.368"/><use xlink:href="#19" y="19.539"/><use xlink:href="#20" y="21.71"/><use xlink:href="#21" y="23.881"/></svg><svg x="4400"><use xlink:href="#a"/><use xlink:href="#b" x="-.004" y="26.027"/><use xlink:href="#2"/><use xlink:href="#11" y="2.171"/><use xlink:href="#12" y="4.342"/><use xlink:href="#13" y="6.513"/><use xlink:href="#14" y="8.684"/><use xlink:href="#15" y="10.855"/><use xlink:href="#16" y="13.026"/><use xlink:href="#17" y="15.197"/><use xlink:href="#18" y="17.368"/><use xlink:href="#19" y="19.539"/><use xlink:href="#20" y="21.71"/><use xlink:href="#21" y="23.881"/></svg><svg x="4480"><use xlink:href="#a"/><use xlink:href="#b" x="-.004"/></svg><svg x="4560"><use xlink:href="#a"/><use xlink:href="#b" x="32.996"/><use xlink:href="#3"/></svg><svg x="4640"><use xlink:href="#a"/><use xlink:href="#b" x="33.996"/><use xlink:href="#4"/></svg><svg x="4720"><use xlink:href="#a"/><use xlink:href="#b" x="34.996"/><use xlink:href="#5"/></svg><svg x="4800"><use xlink:href="#a"/><use xlink:href="#b" x="35.996"/><use xlink:href="#6"/></svg><svg x="4880"><use xlink:href="#a"/><use xlink:href="#b" x="36.996"/><use xlink:href="#7"/></svg><svg x="4960"><use xlink:href="#a"/><use xlink:href="#b" x="37.996"/><use xlink:href="#8"/></svg><svg x="5040"><use xlink:href="#a"/><use xlink:href="#b" x="38.996"/><use xlink:href="#8"/></svg><svg x="5120"><use xlink:href="#a"/><use xlink:href="#b" x="39.996"/><text y="1.67" class="f">opera</text><text x="5.01" y="1.67" class="g">:</text><text x="6.012" y="1.67" class="h">~/xopera-opera/docs/files</text><text x="31.062" y="1.67" class="g">$</text><text x="33.066" y="1.67" class="g">opera</text><text x="39.078" y="1.67" class="g">o</text></svg><svg x="5200"><use xlink:href="#a"/><use xlink:href="#b" x="40.996"/><text y="1.67" class="f">opera</text><text x="5.01" y="1.67" class="g">:</text><text x="6.012" y="1.67" class="h">~/xopera-opera/docs/files</text><text x="31.062" y="1.67" class="g">$</text><text x="33.066" y="1.67" class="g">opera</text><text x="39.078" y="1.67" class="g">ou</text></svg><svg x="5280"><use xlink:href="#a"/><use xlink:href="#b" x="41.996"/><text y="1.67" class="f">opera</text><text x="5.01" y="1.67" class="g">:</text><text x="6.012" y="1.67" class="h">~/xopera-opera/docs/files</text><text x="31.062" y="1.67" class="g">$</text><text x="33.066" y="1.67" class="g">opera</text><text x="39.078" y="1.67" class="g">out</text></svg><svg x="5360"><use xlink:href="#a"/><use xlink:href="#b" x="42.996"/><text y="1.67" class="f">opera</text><text x="5.01" y="1.67" class="g">:</text><text x="6.012" y="1.67" class="h">~/xopera-opera/docs/files</text><text x="31.062" y="1.67" class="g">$</text><text x="33.066" y="1.67" class="g">opera</text><text x="39.078" y="1.67" class="g">outp</text></svg><svg x="5440"><use xlink:href="#a"/><use xlink:href="#b" x="43.996"/><text y="1.67" class="f">opera</text><text x="5.01" y="1.67" class="g">:</text><text x="6.012" y="1.67" class="h">~/xopera-opera/docs/files</text><text x="31.062" y="1.67" class="g">$</text><text x="33.066" y="1.67" class="g">opera</text><text x="39.078" y="1.67" class="g">outpu</text></svg><svg x="5520"><use xlink:href="#a"/><use xlink:href="#b" x="44.996"/><text y="1.67" class="f">opera</text><text x="5.01" y="1.67" class="g">:</text><text x="6.012" y="1.67" class="h">~/xopera-opera/docs/files</text><text x="31.062" y="1.67" class="g">$</text><text x="33.066" y="1.67" class="g">opera</text><text x="39.078" y="1.67" class="g">output</text></svg><svg x="5600"><use xlink:href="#a"/><use xlink:href="#b" x="45.996"/><use xlink:href="#22"/></svg><svg x="5680"><use xlink:href="#a"/><use xlink:href="#b" x="46.996"/><use xlink:href="#22"/></svg><svg x="5760"><use xlink:href="#a"/><use xlink:href="#b" x="47.996"/><text y="1.67" class="f">opera</text><text x="5.01" y="1.67" class="g">:</text><text x="6.012" y="1.67" class="h">~/xopera-opera/docs/files</text><text x="31.062" y="1.67" class="g">$</text><text x="33.066" y="1.67" class="g">opera</text><text x="39.078" y="1.67" class="g">outputs</text><text x="47.094" y="1.67" class="g">-</text></svg><svg x="5840"><use xlink:href="#a"/><use xlink:href="#b" x="48.996"/><use xlink:href="#23"/></svg><svg x="5920"><use xlink:href="#a"/><use xlink:href="#b" x="49.996"/><use xlink:href="#23"/></svg><svg x="6000"><use xlink:href="#a"/><use xlink:href="#b" x="50.996"/><text y="1.67" class="f">opera</text><text x="5.01" y="1.67" class="g">:</text><text x="6.012" y="1.67" class="h">~/xopera-opera/docs/files</text><text x="31.062" y="1.67" class="g">$</text><text x="33.066" y="1.67" class="g">opera</text><text x="39.078" y="1.67" class="g">outputs</text><text x="47.094" y="1.67" class="g">-f</text><text x="50.1" y="1.67" class="g">j</text></svg><svg x="6080"><use xlink:href="#a"/><use xlink:href="#b" x="51.996"/><text y="1.67" class="f">opera</text><text x="5.01" y="1.67" class="g">:</text><text x="6.012" y="1.67" class="h">~/xopera-opera/docs/files</text><text x="31.062" y="1.67" class="g">$</text><text x="33.066" y="1.67" class="g">opera</text><text x="39.078" y="1.67" class="g">outputs</text><text x="47.094" y="1.67" class="g">-f</text><text x="50.1" y="1.67" class="g">js</text></svg><svg x="6160"><use xlink:href="#a"/><use xlink:href="#b" x="52.996"/><text y="1.67" class="f">opera</text><text x="5.01" y="1.67" class="g">:</text><text x="6.012" y="1.67" class="h">~/xopera-opera/docs/files</text><text x="31.062" y="1.67" class="g">$</text><text x="33.066" y="1.67" class="g">opera</text><text x="39.078" y="1.67" class="g">outputs</text><text x="47.094" y="1.67" class="g">-f</text><text x="50.1" y="1.67" class="g">jso</text></svg><svg x="6240"><use xlink:href="#a"/><use xlink:href="#b" x="53.996"/><use xlink:href="#24"/></svg><svg x="6320"><use xlink:href="#a"/><use xlink:href="#b" x="-.004" y="2.146"/><use xlink:href="#24"/></svg><svg x="6400"><use xlink:href="#a"/><use xlink:href="#b" x="42.996" y="65.105"/><use xlink:href="#24"/><text y="3.841" class="g">{</text><text x="2.004" y="6.012" class="g">&quot;output_node_attribute&quot;:</text><text x="27.054" y="6.012" class="g">{</text><text x="4.008" y="8.183" class="g">&quot;description&quot;:</text><text x="19.038" y="8.183" class="g">&quot;Node</text><text x="25.05" y="8.183" class="g">attribute</text><text x="35.07" y="8.183" class="g">output&quot;,</text><text x="4.008" y="10.354" class="g">&quot;value&quot;:</text><text x="13.026" y="10.354" class="g">&quot;Node</text><text x="19.038" y="10.354" class="g">attribute&quot;</text><use xlink:href="#25" y="10.855"/><text x="2.004" y="14.696" class="g">&quot;output_relationship_attribute&quot;:</text><text x="35.07" y="14.696" class="g">{</text><use xlink:href="#26" y="15.197"/><use xlink:href="#27" y="17.368"/><use xlink:href="#25" y="19.539"/><use xlink:href="#28" y="21.71"/><use xlink:href="#29" y="23.881"/><use xlink:href="#30" y="26.052"/><use xlink:href="#25" y="28.223"/><use xlink:href="#31" y="30.394"/><use xlink:href="#32" y="32.565"/><use xlink:href="#33" y="34.736"/><use xlink:href="#25" y="36.907"/><use xlink:href="#34" y="39.078"/><use xlink:href="#26" y="41.249"/><use xlink:href="#35" y="43.42"/><use xlink:href="#25" y="45.591"/><use xlink:href="#36" y="47.762"/><use xlink:href="#26" y="49.933"/><use xlink:href="#37" y="52.104"/><use xlink:href="#25" y="54.275"/><use xlink:href="#38" y="56.446"/><use xlink:href="#26" y="58.617"/><use xlink:href="#27" y="60.788"/><use xlink:href="#25" y="62.959"/><text x="2.004" y="66.8" class="g">&quot;output_post_configure_source_property_at</text></svg><svg x="6480"><use xlink:href="#a"/><use xlink:href="#b" x="-.004" y="86.815"/><use xlink:href="#26"/><use xlink:href="#27" y="2.171"/><use xlink:href="#25" y="4.342"/><use xlink:href="#28" y="6.513"/><use xlink:href="#29" y="8.684"/><use xlink:href="#30" y="10.855"/><use xlink:href="#25" y="13.026"/><use xlink:href="#31" y="15.197"/><use xlink:href="#32" y="17.368"/><use xlink:href="#33" y="19.539"/><use xlink:href="#25" y="21.71"/><use xlink:href="#34" y="23.881"/><use xlink:href="#26" y="26.052"/><use xlink:href="#35" y="28.223"/><use xlink:href="#25" y="30.394"/><use xlink:href="#36" y="32.565"/><use xlink:href="#26" y="34.736"/><use xlink:href="#37" y="36.907"/><use xlink:href="#25" y="39.078"/><use xlink:href="#38" y="41.249"/><use xlink:href="#26" y="43.42"/><use xlink:href="#27" y="45.591"/><use xlink:href="#25" y="47.762"/><use xlink:href="#39" y="49.933"/><use xlink:href="#26" y="52.104"/><use xlink:href="#30" y="54.275"/><use xlink:href="#25" y="56.446"/><use xlink:href="#40" y="58.617"/><use xlink:href="#26" y="60.788"/><use xlink:href="#33" y="62.959"/><use xlink:href="#25" y="65.13"/><use xlink:href="#41" y="67.301"/><use xlink:href="#26" y="69.472"/><use xlink:href="#42" y="71.643"/><use xlink:href="#25" y="73.814"/><use xlink:href="#43" y="75.985"/><use xlink:href="#26" y="78.156"/><use xlink:href="#44" y="80.327"/><use xlink:href="#45" y="82.498"/><use xlink:href="#46" y="84.669"/></svg><svg x="6560"><use xlink:href="#a"/><use xlink:href="#b" x="32.996" y="86.815"/><use xlink:href="#26"/><use xlink:href="#27" y="2.171"/><use xlink:href="#25" y="4.342"/><use xlink:href="#28" y="6.513"/><use xlink:href="#29" y="8.684"/><use xlink:href="#30" y="10.855"/><use xlink:href="#25" y="13.026"/><use xlink:href="#31" y="15.197"/><use xlink:href="#32" y="17.368"/><use xlink:href="#33" y="19.539"/><use xlink:href="#25" y="21.71"/><use xlink:href="#34" y="23.881"/><use xlink:href="#26" y="26.052"/><use xlink:href="#35" y="28.223"/><use xlink:href="#25" y="30.394"/><use xlink:href="#36" y="32.565"/><use xlink:href="#26" y="34.736"/><use xlink:href="#37" y="36.907"/><use xlink:href="#25" y="39.078"/><use xlink:href="#38" y="41.249"/><use xlink:href="#26" y="43.42"/><use xlink:href="#27" y="45.591"/><use xlink:href="#25" y="47.762"/><use xlink:href="#39" y="49.933"/><use xlink:href="#26" y="52.104"/><use xlink:href="#30" y="54.275"/><use xlink:href="#25" y="56.446"/><use xlink:href="#40" y="58.617"/><use xlink:href="#26" y="60.788"/><use xlink:href="#33" y="62.959"/><use xlink:href="#25" y="65.13"/><use xlink:href="#41" y="67.301"/><use xlink:href="#26" y="69.472"/><use xlink:href="#42" y="71.643"/><use xlink:href="#25" y="73.814"/><use xlink:href="#43" y="75.985"/><use xlink:href="#26" y="78.156"/><use xlink:href="#44" y="80.327"/><use xlink:href="#45" y="82.498"/><use xlink:href="#46" y="84.669"/><use xlink:href="#3" y="86.84"/></svg><svg x="6640"><use xlink:href="#a"/><use xlink:href="#b" x="-.004" y="86.815"/><use xlink:href="#27"/><use xlink:href="#25" y="2.171"/><use xlink:href="#28" y="4.342"/><use xlink:href="#29" y="6.513"/><use xlink:href="#30" y="8.684"/><use xlink:href="#25" y="10.855"/><use xlink:href="#31" y="13.026"/><use xlink:href="#32" y="15.197"/><use xlink:href="#33" y="17.368"/><use xlink:href="#25" y="19.539"/><use xlink:href="#34" y="21.71"/><use xlink:href="#26" y="23.881"/><use xlink:href="#35" y="26.052"/><use xlink:href="#25" y="28.223"/><use xlink:href="#36" y="30.394"/><use xlink:href="#26" y="32.565"/><use xlink:href="#37" y="34.736"/><use xlink:href="#25" y="36.907"/><use xlink:href="#38" y="39.078"/><use xlink:href="#26" y="41.249"/><use xlink:href="#27" y="43.42"/><use xlink:href="#25" y="45.591"/><use xlink:href="#39" y="47.762"/><use xlink:href="#26" y="49.933"/><use xlink:href="#30" y="52.104"/><use xlink:href="#25" y="54.275"/><use xlink:href="#40" y="56.446"/><use xlink:href="#26" y="58.617"/><use xlink:href="#33" y="60.788"/><use xlink:href="#25" y="62.959"/><use xlink:href="#41" y="65.13"/><use xlink:href="#26" y="67.301"/><use xlink:href="#42" y="69.472"/><use xlink:href="#25" y="71.643"/><use xlink:href="#43" y="73.814"/><use xlink:href="#26" y="75.985"/><use xlink:href="#44" y="78.156"/><use xlink:href="#45" y="80.327"/><use xlink:href="#46" y="82.498"/><text y="86.339" class="f">opera</text><text x="5.01" y="86.339" class="g">:</text><text x="6.012" y="86.339" class="h">~/xopera-opera/docs/files</text><text x="31.062" y="86.339" class="g">$</text><text x="33.066" y="86.339" class="g">exit</text></svg></svg></g></g></svg></svg>