<svg xmlns="http://www.w3.org/2000/svg" xmlns:xlink="http://www.w3.org/1999/xlink" width="840" height="450.78"><rect width="840" height="450.78" rx="5" ry="5" class="a"/><svg y="0%" x="0%"><circle cx="20" cy="20" r="6" fill="#ff5f58"/><circle cx="40" cy="20" r="6" fill="#ffbd2e"/><circle cx="60" cy="20" r="6" fill="#18c132"/></svg><svg height="390.78" viewBox="0 0 80 39.078" width="800" x="15" xmlns="http://www.w3.org/2000/svg" xmlns:xlink="http://www.w3.org/1999/xlink" y="50"><style>@keyframes k{0%{transform:translateX(0)}.01%{transform:translateX(-80px)}1.95%{transform:translateX(-160px)}2.48%{transform:translateX(-240px)}2.92%{transform:translateX(-320px)}3.52%{transform:translateX(-400px)}3.96%{transform:translateX(-480px)}4.46%{transform:translateX(-560px)}4.85%{transform:translateX(-640px)}6.88%{transform:translateX(-720px)}7.56%{transform:translateX(-800px)}8.13%{transform:translateX(-880px)}9.75%{transform:translateX(-960px)}10.32%{transform:translateX(-1040px)}10.84%{transform:translateX(-1120px)}11.24%{transform:translateX(-1200px)}12.3%{transform:translateX(-1280px)}12.31%{transform:translateX(-1360px)}18.82%{transform:translateX(-1440px)}19.37%{transform:translateX(-1520px)}19.81%{transform:translateX(-1600px)}20.28%{transform:translateX(-1680px)}20.7%{transform:translateX(-1760px)}21.33%{transform:translateX(-1840px)}23.54%{transform:translateX(-1920px)}24.04%{transform:translateX(-2000px)}24.85%{transform:translateX(-2080px)}25.42%{transform:translateX(-2160px)}25.78%{transform:translateX(-2240px)}26.41%{transform:translateX(-2320px)}26.91%{transform:translateX(-2400px)}27.43%{transform:translateX(-2480px)}30.16%{transform:translateX(-2560px)}30.18%{transform:translateX(-2640px)}33.95%{transform:translateX(-2720px)}34.44%{transform:translateX(-2800px)}34.57%{transform:translateX(-2880px)}35.09%{transform:translateX(-2960px)}35.41%{transform:translateX(-3040px)}35.8%{transform:translateX(-3120px)}37.39%{transform:translateX(-3200px)}37.96%{transform:translateX(-3280px)}38.51%{transform:translateX(-3360px)}38.85%{transform:translateX(-3440px)}39.32%{transform:translateX(-3520px)}41.14%{transform:translateX(-3600px)}41.85%{transform:translateX(-3680px)}42.42%{transform:translateX(-3760px)}43.96%{transform:translateX(-3840px)}44.92%{transform:translateX(-3920px)}45.36%{transform:translateX(-4000px)}45.78%{transform:translateX(-4080px)}49.04%{transform:translateX(-4160px)}52.9%{transform:translateX(-4240px)}53.42%{transform:translateX(-4320px)}54.13%{transform:translateX(-4400px)}54.88%{transform:translateX(-4480px)}56.39%{transform:translateX(-4560px)}56.99%{transform:translateX(-4640px)}57.32%{transform:translateX(-4720px)}57.36%{transform:translateX(-4800px)}63.87%{transform:translateX(-4880px)}64.4%{transform:translateX(-4960px)}64.68%{transform:translateX(-5040px)}65.26%{transform:translateX(-5120px)}65.7%{transform:translateX(-5200px)}66.27%{transform:translateX(-5280px)}66.79%{transform:translateX(-5360px)}67.29%{transform:translateX(-5440px)}67.65%{transform:translateX(-5520px)}68.25%{transform:translateX(-5600px)}68.7%{transform:translateX(-5680px)}68.93%{transform:translateX(-5760px)}70.24%{transform:translateX(-5840px)}70.83%{transform:translateX(-5920px)}70.86%{transform:translateX(-6000px)}77.38%{transform:translateX(-6080px)}79.85%{transform:translateX(-6160px)}80.48%{transform:translateX(-6240px)}81.37%{transform:translateX(-6320px)}82.1%{transform:translateX(-6400px)}83.87%{transform:translateX(-6480px)}84.55%{transform:translateX(-6560px)}84.99%{transform:translateX(-6640px)}85.38%{transform:translateX(-6720px)}86.42%{transform:translateX(-6800px)}87.63%{transform:translateX(-6880px)}87.64%{transform:translateX(-6960px)}94.15%{transform:translateX(-7040px)}94.21%{transform:translateX(-7120px)}to{transform:translateX(-7200px)}}.a{fill:#282d35}.f,.g,.h{white-space:pre}.f{fill:#a8cc8c;font-weight:700}.g,.h{fill:#b9c0cb}.h{fill:#71bef2;font-weight:700}</style><g font-family="Monaco,Consolas,Menlo,'Bitstream Vera Sans Mono','Powerline Symbols',monospace" font-size="1.67"><defs><symbol id="15"><text y="1.67" class="g">Warning:</text><text x="9.018" y="1.67" class="g">&apos;opera</text><text x="16.032" y="1.67" class="g">init&apos;</text><text x="22.044" y="1.67" class="g">command</text><text x="30.06" y="1.67" class="g">is</text><text x="33.066" y="1.67" class="g">deprecated</text><text x="44.088" y="1.67" class="g">and</text><text x="48.096" y="1.67" class="g">will</text><text x="53.106" y="1.67" class="g">probably</text><text x="62.124" y="1.67" class="g">be</text><text x="65.13" y="1.67" class="g">removed</text><text x="73.146" y="1.67" class="g">within</text></symbol><symbol id="1"><text y="1.67" class="f">opera</text><text x="5.01" y="1.67" class="g">:</text><text x="6.012" y="1.67" class="h">~</text><text x="7.014" y="1.67" class="g">$</text><text x="9.018" y="1.67" class="g">cd</text></symbol><symbol id="3"><text y="1.67" class="f">opera</text><text x="5.01" y="1.67" class="g">:</text><text x="6.012" y="1.67" class="h">~/xopera-opera/examples/artifacts</text><text x="39.078" y="1.67" class="g">$</text></symbol><symbol id="4"><text y="1.67" class="f">opera</text><text x="5.01" y="1.67" class="g">:</text><text x="6.012" y="1.67" class="h">~/xopera-opera/examples/artifacts</text><text x="39.078" y="1.67" class="g">$</text><text x="41.082" y="1.67" class="g">mkdir</text></symbol><symbol id="5"><text y="1.67" class="f">opera</text><text x="5.01" y="1.67" class="g">:</text><text x="6.012" y="1.67" class="h">~/xopera-opera/examples/artifacts</text><text x="39.078" y="1.67" class="g">$</text><text x="41.082" y="1.67" class="g">mkdir</text><text x="47.094" y="1.67" class="g">.storage</text></symbol><symbol id="6"><text y="1.67" class="f">opera</text><text x="5.01" y="1.67" class="g">:</text><text x="6.012" y="1.67" class="h">~/xopera-opera/examples/artifacts</text><text x="39.078" y="1.67" class="g">$</text><text x="41.082" y="1.67" class="g">o</text></symbol><symbol id="7"><text y="1.67" class="f">opera</text><text x="5.01" y="1.67" class="g">:</text><text x="6.012" y="1.67" class="h">~/xopera-opera/examples/artifacts</text><text x="39.078" y="1.67" class="g">$</text><text x="41.082" y="1.67" class="g">op</text></symbol><symbol id="8"><text y="1.67" class="f">opera</text><text x="5.01" y="1.67" class="g">:</text><text x="6.012" y="1.67" class="h">~/xopera-opera/examples/artifacts</text><text x="39.078" y="1.67" class="g">$</text><text x="41.082" y="1.67" class="g">ope</text></symbol><symbol id="9"><text y="1.67" class="f">opera</text><text x="5.01" y="1.67" class="g">:</text><text x="6.012" y="1.67" class="h">~/xopera-opera/examples/artifacts</text><text x="39.078" y="1.67" class="g">$</text><text x="41.082" y="1.67" class="g">oper</text></symbol><symbol id="10"><text y="1.67" class="f">opera</text><text x="5.01" y="1.67" class="g">:</text><text x="6.012" y="1.67" class="h">~/xopera-opera/examples/artifacts</text><text x="39.078" y="1.67" class="g">$</text><text x="41.082" y="1.67" class="g">opera</text></symbol><symbol id="11"><text y="1.67" class="f">opera</text><text x="5.01" y="1.67" class="g">:</text><text x="6.012" y="1.67" class="h">~/xopera-opera/examples/artifacts</text><text x="39.078" y="1.67" class="g">$</text><text x="41.082" y="1.67" class="g">opera</text><text x="47.094" y="1.67" class="g">init</text></symbol><symbol id="12"><text y="1.67" class="f">opera</text><text x="5.01" y="1.67" class="g">:</text><text x="6.012" y="1.67" class="h">~/xopera-opera/examples/artifacts</text><text x="39.078" y="1.67" class="g">$</text><text x="41.082" y="1.67" class="g">opera</text><text x="47.094" y="1.67" class="g">init</text><text x="52.104" y="1.67" class="g">-p</text></symbol><symbol id="13"><text y="1.67" class="f">opera</text><text x="5.01" y="1.67" class="g">:</text><text x="6.012" y="1.67" class="h">~/xopera-opera/examples/artifacts</text><text x="39.078" y="1.67" class="g">$</text><text x="41.082" y="1.67" class="g">opera</text><text x="47.094" y="1.67" class="g">init</text><text x="52.104" y="1.67" class="g">-p</text><text x="55.11" y="1.67" class="g">.storage/</text></symbol><symbol id="14"><text y="1.67" class="f">opera</text><text x="5.01" y="1.67" class="g">:</text><text x="6.012" y="1.67" class="h">~/xopera-opera/examples/artifacts</text><text x="39.078" y="1.67" class="g">$</text><text x="41.082" y="1.67" class="g">opera</text><text x="47.094" y="1.67" class="g">init</text><text x="52.104" y="1.67" class="g">-p</text><text x="55.11" y="1.67" class="g">.storage/</text><text x="65.13" y="1.67" class="g">service.yaml</text></symbol><symbol id="2"><text y="1.67" class="f">opera</text><text x="5.01" y="1.67" class="g">:</text><text x="6.012" y="1.67" class="h">~</text><text x="7.014" y="1.67" class="g">$</text><text x="9.018" y="1.67" class="g">cd</text><text x="12.024" y="1.67" class="g">xopera-opera/examples/artifacts/</text></symbol><symbol id="16"><text y="1.67" class="g">one</text><text x="4.008" y="1.67" class="g">of</text><text x="7.014" y="1.67" class="g">the</text><text x="11.022" y="1.67" class="g">next</text><text x="16.032" y="1.67" class="g">releases.</text><text x="26.052" y="1.67" class="g">Please</text><text x="33.066" y="1.67" class="g">use</text><text x="37.074" y="1.67" class="g">&apos;opera</text><text x="44.088" y="1.67" class="g">deploy&apos;</text><text x="52.104" y="1.67" class="g">to</text><text x="55.11" y="1.67" class="g">initialize</text><text x="66.132" y="1.67" class="g">and</text><text x="70.14" y="1.67" class="g">deploy</text><text x="77.154" y="1.67" class="g">ser</text></symbol><symbol id="17"><text y="1.67" class="g">vice</text><text x="5.01" y="1.67" class="g">templates</text><text x="15.03" y="1.67" class="g">or</text><text x="18.036" y="1.67" class="g">compressed</text><text x="29.058" y="1.67" class="g">CSARs.</text></symbol><symbol id="18"><text y="1.67" class="g">Service</text><text x="8.016" y="1.67" class="g">template</text><text x="17.034" y="1.67" class="g">was</text><text x="21.042" y="1.67" class="g">initialized</text></symbol><symbol id="19"><text y="1.67" class="f">opera</text><text x="5.01" y="1.67" class="g">:</text><text x="6.012" y="1.67" class="h">~/xopera-opera/examples/artifacts</text><text x="39.078" y="1.67" class="g">$</text><text x="41.082" y="1.67" class="g">opera</text><text x="47.094" y="1.67" class="g">deploy</text></symbol><symbol id="20"><text y="1.67" class="g">CSAR</text><text x="5.01" y="1.67" class="g">or</text><text x="8.016" y="1.67" class="g">template</text><text x="17.034" y="1.67" class="g">root</text><text x="22.044" y="1.67" class="g">file</text><text x="27.054" y="1.67" class="g">does</text><text x="32.064" y="1.67" class="g">not</text><text x="36.072" y="1.67" class="g">exist.</text><text x="43.086" y="1.67" class="g">Maybe</text><text x="49.098" y="1.67" class="g">you</text><text x="53.106" y="1.67" class="g">have</text><text x="58.116" y="1.67" class="g">forgotten</text><text x="68.136" y="1.67" class="g">to</text><text x="71.142" y="1.67" class="g">initializ</text></symbol><symbol id="21"><text y="1.67" class="g">e</text><text x="2.004" y="1.67" class="g">it.</text></symbol><symbol id="22"><text y="1.67" class="f">opera</text><text x="5.01" y="1.67" class="g">:</text><text x="6.012" y="1.67" class="h">~/xopera-opera/examples/artifacts</text><text x="39.078" y="1.67" class="g">$</text><text x="41.082" y="1.67" class="g">opera</text><text x="47.094" y="1.67" class="g">deploy</text><text x="54.108" y="1.67" class="g">-p</text></symbol><symbol id="23"><text y="1.67" class="f">opera</text><text x="5.01" y="1.67" class="g">:</text><text x="6.012" y="1.67" class="h">~/xopera-opera/examples/artifacts</text><text x="39.078" y="1.67" class="g">$</text><text x="41.082" y="1.67" class="g">opera</text><text x="47.094" y="1.67" class="g">deploy</text><text x="54.108" y="1.67" class="g">-p</text><text x="57.114" y="1.67" class="g">.storage/</text></symbol><symbol id="24"><text y="1.67" class="g">[Worker_0]</text><text x="13.026" y="1.67" class="g">Deploying</text><text x="23.046" y="1.67" class="g">artifacts_file_0</text></symbol><symbol id="25"><text y="1.67" class="g">[Worker_0]</text><text x="15.03" y="1.67" class="g">Executing</text><text x="25.05" y="1.67" class="g">create</text><text x="32.064" y="1.67" class="g">on</text><text x="35.07" y="1.67" class="g">artifacts_file_0</text></symbol><symbol id="26"><text y="1.67" class="g">[Worker_0]</text><text x="13.026" y="1.67" class="g">Deployment</text><text x="24.048" y="1.67" class="g">of</text><text x="27.054" y="1.67" class="g">artifacts_file_0</text><text x="44.088" y="1.67" class="g">complete</text></symbol><symbol id="a"><path fill="transparent" d="M0 0h80v19H0z"/></symbol><symbol id="b"><path fill="#6f7683" d="M0 0h1.102v2.171H0z"/></symbol></defs><path class="a" d="M0 0h80v39.078H0z"/><g style="animation-duration:30.683918000000002s;animation-iteration-count:infinite;animation-name:k;animation-timing-function:steps(1,end)"><svg width="7280"><svg><use xlink:href="#a"/><use xlink:href="#b" x="-.004"/></svg><svg x="80"><use xlink:href="#a"/><use xlink:href="#b" x="8.996"/><text y="1.67" class="f">opera</text><text x="5.01" y="1.67" class="g">:</text><text x="6.012" y="1.67" class="h">~</text><text x="7.014" y="1.67" class="g">$</text></svg><svg x="160"><use xlink:href="#a"/><use xlink:href="#b" x="9.996"/><text y="1.67" class="f">opera</text><text x="5.01" y="1.67" class="g">:</text><text x="6.012" y="1.67" class="h">~</text><text x="7.014" y="1.67" class="g">$</text><text x="9.018" y="1.67" class="g">c</text></svg><svg x="240"><use xlink:href="#a"/><use xlink:href="#b" x="10.996"/><use xlink:href="#1"/></svg><svg x="320"><use xlink:href="#a"/><use xlink:href="#b" x="11.996"/><use xlink:href="#1"/></svg><svg x="400"><use xlink:href="#a"/><use xlink:href="#b" x="12.996"/><text y="1.67" class="f">opera</text><text x="5.01" y="1.67" class="g">:</text><text x="6.012" y="1.67" class="h">~</text><text x="7.014" y="1.67" class="g">$</text><text x="9.018" y="1.67" class="g">cd</text><text x="12.024" y="1.67" class="g">x</text></svg><svg x="480"><use xlink:href="#a"/><use xlink:href="#b" x="13.996"/><text y="1.67" class="f">opera</text><text x="5.01" y="1.67" class="g">:</text><text x="6.012" y="1.67" class="h">~</text><text x="7.014" y="1.67" class="g">$</text><text x="9.018" y="1.67" class="g">cd</text><text x="12.024" y="1.67" class="g">xo</text></svg><svg x="560"><use xlink:href="#a"/><use xlink:href="#b" x="14.996"/><text y="1.67" class="f">opera</text><text x="5.01" y="1.67" class="g">:</text><text x="6.012" y="1.67" class="h">~</text><text x="7.014" y="1.67" class="g">$</text><text x="9.018" y="1.67" class="g">cd</text><text x="12.024" y="1.67" class="g">xop</text></svg><svg x="640"><use xlink:href="#a"/><use xlink:href="#b" x="24.996"/><text y="1.67" class="f">opera</text><text x="5.01" y="1.67" class="g">:</text><text x="6.012" y="1.67" class="h">~</text><text x="7.014" y="1.67" class="g">$</text><text x="9.018" y="1.67" class="g">cd</text><text x="12.024" y="1.67" class="g">xopera-opera/</text></svg><svg x="720"><use xlink:href="#a"/><use xlink:href="#b" x="25.996"/><text y="1.67" class="f">opera</text><text x="5.01" y="1.67" class="g">:</text><text x="6.012" y="1.67" class="h">~</text><text x="7.014" y="1.67" class="g">$</text><text x="9.018" y="1.67" class="g">cd</text><text x="12.024" y="1.67" class="g">xopera-opera/e</text></svg><svg x="800"><use xlink:href="#a"/><use xlink:href="#b" x="26.996"/><text y="1.67" class="f">opera</text><text x="5.01" y="1.67" class="g">:</text><text x="6.012" y="1.67" class="h">~</text><text x="7.014" y="1.67" class="g">$</text><text x="9.018" y="1.67" class="g">cd</text><text x="12.024" y="1.67" class="g">xopera-opera/ex</text></svg><svg x="880"><use xlink:href="#a"/><use xlink:href="#b" x="33.996"/><text y="1.67" class="f">opera</text><text x="5.01" y="1.67" class="g">:</text><text x="6.012" y="1.67" class="h">~</text><text x="7.014" y="1.67" class="g">$</text><text x="9.018" y="1.67" class="g">cd</text><text x="12.024" y="1.67" class="g">xopera-opera/examples/</text></svg><svg x="960"><use xlink:href="#a"/><use xlink:href="#b" x="34.996"/><text y="1.67" class="f">opera</text><text x="5.01" y="1.67" class="g">:</text><text x="6.012" y="1.67" class="h">~</text><text x="7.014" y="1.67" class="g">$</text><text x="9.018" y="1.67" class="g">cd</text><text x="12.024" y="1.67" class="g">xopera-opera/examples/a</text></svg><svg x="1040"><use xlink:href="#a"/><use xlink:href="#b" x="35.996"/><text y="1.67" class="f">opera</text><text x="5.01" y="1.67" class="g">:</text><text x="6.012" y="1.67" class="h">~</text><text x="7.014" y="1.67" class="g">$</text><text x="9.018" y="1.67" class="g">cd</text><text x="12.024" y="1.67" class="g">xopera-opera/examples/ar</text></svg><svg x="1120"><use xlink:href="#a"/><use xlink:href="#b" x="36.996"/><text y="1.67" class="f">opera</text><text x="5.01" y="1.67" class="g">:</text><text x="6.012" y="1.67" class="h">~</text><text x="7.014" y="1.67" class="g">$</text><text x="9.018" y="1.67" class="g">cd</text><text x="12.024" y="1.67" class="g">xopera-opera/examples/art</text></svg><svg x="1200"><use xlink:href="#a"/><use xlink:href="#b" x="43.996"/><use xlink:href="#2"/></svg><svg x="1280"><use xlink:href="#a"/><use xlink:href="#b" x="-.004" y="2.146"/><use xlink:href="#2"/></svg><svg x="1360"><use xlink:href="#a"/><use xlink:href="#b" x="40.996" y="2.146"/><use xlink:href="#2"/><use xlink:href="#3" y="2.171"/></svg><svg x="1440"><use xlink:href="#a"/><use xlink:href="#b" x="41.996" y="2.146"/><use xlink:href="#2"/><text y="3.841" class="f">opera</text><text x="5.01" y="3.841" class="g">:</text><text x="6.012" y="3.841" class="h">~/xopera-opera/examples/artifacts</text><text x="39.078" y="3.841" class="g">$</text><text x="41.082" y="3.841" class="g">m</text></svg><svg x="1520"><use xlink:href="#a"/><use xlink:href="#b" x="42.996" y="2.146"/><use xlink:href="#2"/><text y="3.841" class="f">opera</text><text x="5.01" y="3.841" class="g">:</text><text x="6.012" y="3.841" class="h">~/xopera-opera/examples/artifacts</text><text x="39.078" y="3.841" class="g">$</text><text x="41.082" y="3.841" class="g">mk</text></svg><svg x="1600"><use xlink:href="#a"/><use xlink:href="#b" x="43.996" y="2.146"/><use xlink:href="#2"/><text y="3.841" class="f">opera</text><text x="5.01" y="3.841" class="g">:</text><text x="6.012" y="3.841" class="h">~/xopera-opera/examples/artifacts</text><text x="39.078" y="3.841" class="g">$</text><text x="41.082" y="3.841" class="g">mkd</text></svg><svg x="1680"><use xlink:href="#a"/><use xlink:href="#b" x="44.996" y="2.146"/><use xlink:href="#2"/><text y="3.841" class="f">opera</text><text x="5.01" y="3.841" class="g">:</text><text x="6.012" y="3.841" class="h">~/xopera-opera/examples/artifacts</text><text x="39.078" y="3.841" class="g">$</text><text x="41.082" y="3.841" class="g">mkdi</text></svg><svg x="1760"><use xlink:href="#a"/><use xlink:href="#b" x="45.996" y="2.146"/><use xlink:href="#2"/><use xlink:href="#4" y="2.171"/></svg><svg x="1840"><use xlink:href="#a"/><use xlink:href="#b" x="46.996" y="2.146"/><use xlink:href="#2"/><use xlink:href="#4" y="2.171"/></svg><svg x="1920"><use xlink:href="#a"/><use xlink:href="#b" x="47.996" y="2.146"/><use xlink:href="#2"/><text y="3.841" class="f">opera</text><text x="5.01" y="3.841" class="g">:</text><text x="6.012" y="3.841" class="h">~/xopera-opera/examples/artifacts</text><text x="39.078" y="3.841" class="g">$</text><text x="41.082" y="3.841" class="g">mkdir</text><text x="47.094" y="3.841" class="g">.</text></svg><svg x="2000"><use xlink:href="#a"/><use xlink:href="#b" x="48.996" y="2.146"/><use xlink:href="#2"/><text y="3.841" class="f">opera</text><text x="5.01" y="3.841" class="g">:</text><text x="6.012" y="3.841" class="h">~/xopera-opera/examples/artifacts</text><text x="39.078" y="3.841" class="g">$</text><text x="41.082" y="3.841" class="g">mkdir</text><text x="47.094" y="3.841" class="g">.s</text></svg><svg x="2080"><use xlink:href="#a"/><use xlink:href="#b" x="49.996" y="2.146"/><use xlink:href="#2"/><text y="3.841" class="f">opera</text><text x="5.01" y="3.841" class="g">:</text><text x="6.012" y="3.841" class="h">~/xopera-opera/examples/artifacts</text><text x="39.078" y="3.841" class="g">$</text><text x="41.082" y="3.841" class="g">mkdir</text><text x="47.094" y="3.841" class="g">.st</text></svg><svg x="2160"><use xlink:href="#a"/><use xlink:href="#b" x="50.996" y="2.146"/><use xlink:href="#2"/><text y="3.841" class="f">opera</text><text x="5.01" y="3.841" class="g">:</text><text x="6.012" y="3.841" class="h">~/xopera-opera/examples/artifacts</text><text x="39.078" y="3.841" class="g">$</text><text x="41.082" y="3.841" class="g">mkdir</text><text x="47.094" y="3.841" class="g">.sto</text></svg><svg x="2240"><use xlink:href="#a"/><use xlink:href="#b" x="51.996" y="2.146"/><use xlink:href="#2"/><text y="3.841" class="f">opera</text><text x="5.01" y="3.841" class="g">:</text><text x="6.012" y="3.841" class="h">~/xopera-opera/examples/artifacts</text><text x="39.078" y="3.841" class="g">$</text><text x="41.082" y="3.841" class="g">mkdir</text><text x="47.094" y="3.841" class="g">.stor</text></svg><svg x="2320"><use xlink:href="#a"/><use xlink:href="#b" x="52.996" y="2.146"/><use xlink:href="#2"/><text y="3.841" class="f">opera</text><text x="5.01" y="3.841" class="g">:</text><text x="6.012" y="3.841" class="h">~/xopera-opera/examples/artifacts</text><text x="39.078" y="3.841" class="g">$</text><text x="41.082" y="3.841" class="g">mkdir</text><text x="47.094" y="3.841" class="g">.stora</text></svg><svg x="2400"><use xlink:href="#a"/><use xlink:href="#b" x="53.996" y="2.146"/><use xlink:href="#2"/><text y="3.841" class="f">opera</text><text x="5.01" y="3.841" class="g">:</text><text x="6.012" y="3.841" class="h">~/xopera-opera/examples/artifacts</text><text x="39.078" y="3.841" class="g">$</text><text x="41.082" y="3.841" class="g">mkdir</text><text x="47.094" y="3.841" class="g">.storag</text></svg><svg x="2480"><use xlink:href="#a"/><use xlink:href="#b" x="54.996" y="2.146"/><use xlink:href="#2"/><use xlink:href="#5" y="2.171"/></svg><svg x="2560"><use xlink:href="#a"/><use xlink:href="#b" x="-.004" y="4.317"/><use xlink:href="#2"/><use xlink:href="#5" y="2.171"/></svg><svg x="2640"><use xlink:href="#a"/><use xlink:href="#b" x="40.996" y="4.317"/><use xlink:href="#2"/><use xlink:href="#5" y="2.171"/><use xlink:href="#3" y="4.342"/></svg><svg x="2720"><use xlink:href="#a"/><use xlink:href="#b" x="41.996" y="4.317"/><use xlink:href="#2"/><use xlink:href="#5" y="2.171"/><use xlink:href="#6" y="4.342"/></svg><svg x="2800"><use xlink:href="#a"/><use xlink:href="#b" x="42.996" y="4.317"/><use xlink:href="#2"/><use xlink:href="#5" y="2.171"/><use xlink:href="#7" y="4.342"/></svg><svg x="2880"><use xlink:href="#a"/><use xlink:href="#b" x="43.996" y="4.317"/><use xlink:href="#2"/><use xlink:href="#5" y="2.171"/><use xlink:href="#8" y="4.342"/></svg><svg x="2960"><use xlink:href="#a"/><use xlink:href="#b" x="44.996" y="4.317"/><use xlink:href="#2"/><use xlink:href="#5" y="2.171"/><use xlink:href="#9" y="4.342"/></svg><svg x="3040"><use xlink:href="#a"/><use xlink:href="#b" x="45.996" y="4.317"/><use xlink:href="#2"/><use xlink:href="#5" y="2.171"/><use xlink:href="#10" y="4.342"/></svg><svg x="3120"><use xlink:href="#a"/><use xlink:href="#b" x="46.996" y="4.317"/><use xlink:href="#2"/><use xlink:href="#5" y="2.171"/><use xlink:href="#10" y="4.342"/></svg><svg x="3200"><use xlink:href="#a"/><use xlink:href="#b" x="47.996" y="4.317"/><use xlink:href="#2"/><use xlink:href="#5" y="2.171"/><text y="6.012" class="f">opera</text><text x="5.01" y="6.012" class="g">:</text><text x="6.012" y="6.012" class="h">~/xopera-opera/examples/artifacts</text><text x="39.078" y="6.012" class="g">$</text><text x="41.082" y="6.012" class="g">opera</text><text x="47.094" y="6.012" class="g">i</text></svg><svg x="3280"><use xlink:href="#a"/><use xlink:href="#b" x="48.996" y="4.317"/><use xlink:href="#2"/><use xlink:href="#5" y="2.171"/><text y="6.012" class="f">opera</text><text x="5.01" y="6.012" class="g">:</text><text x="6.012" y="6.012" class="h">~/xopera-opera/examples/artifacts</text><text x="39.078" y="6.012" class="g">$</text><text x="41.082" y="6.012" class="g">opera</text><text x="47.094" y="6.012" class="g">in</text></svg><svg x="3360"><use xlink:href="#a"/><use xlink:href="#b" x="49.996" y="4.317"/><use xlink:href="#2"/><use xlink:href="#5" y="2.171"/><text y="6.012" class="f">opera</text><text x="5.01" y="6.012" class="g">:</text><text x="6.012" y="6.012" class="h">~/xopera-opera/examples/artifacts</text><text x="39.078" y="6.012" class="g">$</text><text x="41.082" y="6.012" class="g">opera</text><text x="47.094" y="6.012" class="g">ini</text></svg><svg x="3440"><use xlink:href="#a"/><use xlink:href="#b" x="50.996" y="4.317"/><use xlink:href="#2"/><use xlink:href="#5" y="2.171"/><use xlink:href="#11" y="4.342"/></svg><svg x="3520"><use xlink:href="#a"/><use xlink:href="#b" x="51.996" y="4.317"/><use xlink:href="#2"/><use xlink:href="#5" y="2.171"/><use xlink:href="#11" y="4.342"/></svg><svg x="3600"><use xlink:href="#a"/><use xlink:href="#b" x="52.996" y="4.317"/><use xlink:href="#2"/><use xlink:href="#5" y="2.171"/><text y="6.012" class="f">opera</text><text x="5.01" y="6.012" class="g">:</text><text x="6.012" y="6.012" class="h">~/xopera-opera/examples/artifacts</text><text x="39.078" y="6.012" class="g">$</text><text x="41.082" y="6.012" class="g">opera</text><text x="47.094" y="6.012" class="g">init</text><text x="52.104" y="6.012" class="g">-</text></svg><svg x="3680"><use xlink:href="#a"/><use xlink:href="#b" x="53.996" y="4.317"/><use xlink:href="#2"/><use xlink:href="#5" y="2.171"/><use xlink:href="#12" y="4.342"/></svg><svg x="3760"><use xlink:href="#a"/><use xlink:href="#b" x="54.996" y="4.317"/><use xlink:href="#2"/><use xlink:href="#5" y="2.171"/><use xlink:href="#12" y="4.342"/></svg><svg x="3840"><use xlink:href="#a"/><use xlink:href="#b" x="55.996" y="4.317"/><use xlink:href="#2"/><use xlink:href="#5" y="2.171"/><text y="6.012" class="f">opera</text><text x="5.01" y="6.012" class="g">:</text><text x="6.012" y="6.012" class="h">~/xopera-opera/examples/artifacts</text><text x="39.078" y="6.012" class="g">$</text><text x="41.082" y="6.012" class="g">opera</text><text x="47.094" y="6.012" class="g">init</text><text x="52.104" y="6.012" class="g">-p</text><text x="55.11" y="6.012" class="g">.</text></svg><svg x="3920"><use xlink:href="#a"/><use xlink:href="#b" x="56.996" y="4.317"/><use xlink:href="#2"/><use xlink:href="#5" y="2.171"/><text y="6.012" class="f">opera</text><text x="5.01" y="6.012" class="g">:</text><text x="6.012" y="6.012" class="h">~/xopera-opera/examples/artifacts</text><text x="39.078" y="6.012" class="g">$</text><text x="41.082" y="6.012" class="g">opera</text><text x="47.094" y="6.012" class="g">init</text><text x="52.104" y="6.012" class="g">-p</text><text x="55.11" y="6.012" class="g">.s</text></svg><svg x="4000"><use xlink:href="#a"/><use xlink:href="#b" x="57.996" y="4.317"/><use xlink:href="#2"/><use xlink:href="#5" y="2.171"/><text y="6.012" class="f">opera</text><text x="5.01" y="6.012" class="g">:</text><text x="6.012" y="6.012" class="h">~/xopera-opera/examples/artifacts</text><text x="39.078" y="6.012" class="g">$</text><text x="41.082" y="6.012" class="g">opera</text><text x="47.094" y="6.012" class="g">init</text><text x="52.104" y="6.012" class="g">-p</text><text x="55.11" y="6.012" class="g">.st</text></svg><svg x="4080"><use xlink:href="#a"/><use xlink:href="#b" x="63.996" y="4.317"/><use xlink:href="#2"/><use xlink:href="#5" y="2.171"/><use xlink:href="#13" y="4.342"/></svg><svg x="4160"><use xlink:href="#a"/><use xlink:href="#b" x="64.996" y="4.317"/><use xlink:href="#2"/><use xlink:href="#5" y="2.171"/><use xlink:href="#13" y="4.342"/></svg><svg x="4240"><use xlink:href="#a"/><use xlink:href="#b" x="65.996" y="4.317"/><use xlink:href="#2"/><use xlink:href="#5" y="2.171"/><text y="6.012" class="f">opera</text><text x="5.01" y="6.012" class="g">:</text><text x="6.012" y="6.012" class="h">~/xopera-opera/examples/artifacts</text><text x="39.078" y="6.012" class="g">$</text><text x="41.082" y="6.012" class="g">opera</text><text x="47.094" y="6.012" class="g">init</text><text x="52.104" y="6.012" class="g">-p</text><text x="55.11" y="6.012" class="g">.storage/</text><text x="65.13" y="6.012" class="g">s</text></svg><svg x="4320"><use xlink:href="#a"/><use xlink:href="#b" x="66.996" y="4.317"/><use xlink:href="#2"/><use xlink:href="#5" y="2.171"/><text y="6.012" class="f">opera</text><text x="5.01" y="6.012" class="g">:</text><text x="6.012" y="6.012" class="h">~/xopera-opera/examples/artifacts</text><text x="39.078" y="6.012" class="g">$</text><text x="41.082" y="6.012" class="g">opera</text><text x="47.094" y="6.012" class="g">init</text><text x="52.104" y="6.012" class="g">-p</text><text x="55.11" y="6.012" class="g">.storage/</text><text x="65.13" y="6.012" class="g">se</text></svg><svg x="4400"><use xlink:href="#a"/><use xlink:href="#b" x="67.996" y="4.317"/><use xlink:href="#2"/><use xlink:href="#5" y="2.171"/><text y="6.012" class="f">opera</text><text x="5.01" y="6.012" class="g">:</text><text x="6.012" y="6.012" class="h">~/xopera-opera/examples/artifacts</text><text x="39.078" y="6.012" class="g">$</text><text x="41.082" y="6.012" class="g">opera</text><text x="47.094" y="6.012" class="g">init</text><text x="52.104" y="6.012" class="g">-p</text><text x="55.11" y="6.012" class="g">.storage/</text><text x="65.13" y="6.012" class="g">ser</text></svg><svg x="4480"><use xlink:href="#a"/><use xlink:href="#b" x="77.996" y="4.317"/><use xlink:href="#2"/><use xlink:href="#5" y="2.171"/><use xlink:href="#14" y="4.342"/></svg><svg x="4560"><use xlink:href="#a"/><use xlink:href="#b" x="-.004" y="6.488"/><use xlink:href="#2"/><use xlink:href="#5" y="2.171"/><use xlink:href="#14" y="4.342"/></svg><svg x="4640"><use xlink:href="#a"/><use xlink:href="#b" x="-.004" y="13.001"/><use xlink:href="#2"/><use xlink:href="#5" y="2.171"/><use xlink:href="#14" y="4.342"/><use xlink:href="#15" y="6.513"/><use xlink:href="#16" y="8.684"/><use xlink:href="#17" y="10.855"/></svg><svg x="4720"><use xlink:href="#a"/><use xlink:href="#b" x="-.004" y="15.172"/><use xlink:href="#2"/><use xlink:href="#5" y="2.171"/><use xlink:href="#14" y="4.342"/><use xlink:href="#15" y="6.513"/><use xlink:href="#16" y="8.684"/><use xlink:href="#17" y="10.855"/><use xlink:href="#18" y="13.026"/></svg><svg x="4800"><use xlink:href="#a"/><use xlink:href="#b" x="40.996" y="15.172"/><use xlink:href="#2"/><use xlink:href="#5" y="2.171"/><use xlink:href="#14" y="4.342"/><use xlink:href="#15" y="6.513"/><use xlink:href="#16" y="8.684"/><use xlink:href="#17" y="10.855"/><use xlink:href="#18" y="13.026"/><use xlink:href="#3" y="15.197"/></svg><svg x="4880"><use xlink:href="#a"/><use xlink:href="#b" x="41.996" y="15.172"/><use xlink:href="#2"/><use xlink:href="#5" y="2.171"/><use xlink:href="#14" y="4.342"/><use xlink:href="#15" y="6.513"/><use xlink:href="#16" y="8.684"/><use xlink:href="#17" y="10.855"/><use xlink:href="#18" y="13.026"/><use xlink:href="#6" y="15.197"/></svg><svg x="4960"><use xlink:href="#a"/><use xlink:href="#b" x="42.996" y="15.172"/><use xlink:href="#2"/><use xlink:href="#5" y="2.171"/><use xlink:href="#14" y="4.342"/><use xlink:href="#15" y="6.513"/><use xlink:href="#16" y="8.684"/><use xlink:href="#17" y="10.855"/><use xlink:href="#18" y="13.026"/><use xlink:href="#7" y="15.197"/></svg><svg x="5040"><use xlink:href="#a"/><use xlink:href="#b" x="43.996" y="15.172"/><use xlink:href="#2"/><use xlink:href="#5" y="2.171"/><use xlink:href="#14" y="4.342"/><use xlink:href="#15" y="6.513"/><use xlink:href="#16" y="8.684"/><use xlink:href="#17" y="10.855"/><use xlink:href="#18" y="13.026"/><use xlink:href="#8" y="15.197"/></svg><svg x="5120"><use xlink:href="#a"/><use xlink:href="#b" x="44.996" y="15.172"/><use xlink:href="#2"/><use xlink:href="#5" y="2.171"/><use xlink:href="#14" y="4.342"/><use xlink:href="#15" y="6.513"/><use xlink:href="#16" y="8.684"/><use xlink:href="#17" y="10.855"/><use xlink:href="#18" y="13.026"/><use xlink:href="#9" y="15.197"/></svg><svg x="5200"><use xlink:href="#a"/><use xlink:href="#b" x="45.996" y="15.172"/><use xlink:href="#2"/><use xlink:href="#5" y="2.171"/><use xlink:href="#14" y="4.342"/><use xlink:href="#15" y="6.513"/><use xlink:href="#16" y="8.684"/><use xlink:href="#17" y="10.855"/><use xlink:href="#18" y="13.026"/><use xlink:href="#10" y="15.197"/></svg><svg x="5280"><use xlink:href="#a"/><use xlink:href="#b" x="46.996" y="15.172"/><use xlink:href="#2"/><use xlink:href="#5" y="2.171"/><use xlink:href="#14" y="4.342"/><use xlink:href="#15" y="6.513"/><use xlink:href="#16" y="8.684"/><use xlink:href="#17" y="10.855"/><use xlink:href="#18" y="13.026"/><use xlink:href="#10" y="15.197"/></svg><svg x="5360"><use xlink:href="#a"/><use xlink:href="#b" x="47.996" y="15.172"/><use xlink:href="#2"/><use xlink:href="#5" y="2.171"/><use xlink:href="#14" y="4.342"/><use xlink:href="#15" y="6.513"/><use xlink:href="#16" y="8.684"/><use xlink:href="#17" y="10.855"/><use xlink:href="#18" y="13.026"/><text y="16.867" class="f">opera</text><text x="5.01" y="16.867" class="g">:</text><text x="6.012" y="16.867" class="h">~/xopera-opera/examples/artifacts</text><text x="39.078" y="16.867" class="g">$</text><text x="41.082" y="16.867" class="g">opera</text><text x="47.094" y="16.867" class="g">d</text></svg><svg x="5440"><use xlink:href="#a"/><use xlink:href="#b" x="48.996" y="15.172"/><use xlink:href="#2"/><use xlink:href="#5" y="2.171"/><use xlink:href="#14" y="4.342"/><use xlink:href="#15" y="6.513"/><use xlink:href="#16" y="8.684"/><use xlink:href="#17" y="10.855"/><use xlink:href="#18" y="13.026"/><text y="16.867" class="f">opera</text><text x="5.01" y="16.867" class="g">:</text><text x="6.012" y="16.867" class="h">~/xopera-opera/examples/artifacts</text><text x="39.078" y="16.867" class="g">$</text><text x="41.082" y="16.867" class="g">opera</text><text x="47.094" y="16.867" class="g">de</text></svg><svg x="5520"><use xlink:href="#a"/><use xlink:href="#b" x="49.996" y="15.172"/><use xlink:href="#2"/><use xlink:href="#5" y="2.171"/><use xlink:href="#14" y="4.342"/><use xlink:href="#15" y="6.513"/><use xlink:href="#16" y="8.684"/><use xlink:href="#17" y="10.855"/><use xlink:href="#18" y="13.026"/><text y="16.867" class="f">opera</text><text x="5.01" y="16.867" class="g">:</text><text x="6.012" y="16.867" class="h">~/xopera-opera/examples/artifacts</text><text x="39.078" y="16.867" class="g">$</text><text x="41.082" y="16.867" class="g">opera</text><text x="47.094" y="16.867" class="g">dep</text></svg><svg x="5600"><use xlink:href="#a"/><use xlink:href="#b" x="50.996" y="15.172"/><use xlink:href="#2"/><use xlink:href="#5" y="2.171"/><use xlink:href="#14" y="4.342"/><use xlink:href="#15" y="6.513"/><use xlink:href="#16" y="8.684"/><use xlink:href="#17" y="10.855"/><use xlink:href="#18" y="13.026"/><text y="16.867" class="f">opera</text><text x="5.01" y="16.867" class="g">:</text><text x="6.012" y="16.867" class="h">~/xopera-opera/examples/artifacts</text><text x="39.078" y="16.867" class="g">$</text><text x="41.082" y="16.867" class="g">opera</text><text x="47.094" y="16.867" class="g">depl</text></svg><svg x="5680"><use xlink:href="#a"/><use xlink:href="#b" x="51.996" y="15.172"/><use xlink:href="#2"/><use xlink:href="#5" y="2.171"/><use xlink:href="#14" y="4.342"/><use xlink:href="#15" y="6.513"/><use xlink:href="#16" y="8.684"/><use xlink:href="#17" y="10.855"/><use xlink:href="#18" y="13.026"/><text y="16.867" class="f">opera</text><text x="5.01" y="16.867" class="g">:</text><text x="6.012" y="16.867" class="h">~/xopera-opera/examples/artifacts</text><text x="39.078" y="16.867" class="g">$</text><text x="41.082" y="16.867" class="g">opera</text><text x="47.094" y="16.867" class="g">deplo</text></svg><svg x="5760"><use xlink:href="#a"/><use xlink:href="#b" x="52.996" y="15.172"/><use xlink:href="#2"/><use xlink:href="#5" y="2.171"/><use xlink:href="#14" y="4.342"/><use xlink:href="#15" y="6.513"/><use xlink:href="#16" y="8.684"/><use xlink:href="#17" y="10.855"/><use xlink:href="#18" y="13.026"/><use xlink:href="#19" y="15.197"/></svg><svg x="5840"><use xlink:href="#a"/><use xlink:href="#b" x="-.004" y="17.343"/><use xlink:href="#2"/><use xlink:href="#5" y="2.171"/><use xlink:href="#14" y="4.342"/><use xlink:href="#15" y="6.513"/><use xlink:href="#16" y="8.684"/><use xlink:href="#17" y="10.855"/><use xlink:href="#18" y="13.026"/><use xlink:href="#19" y="15.197"/></svg><svg x="5920"><use xlink:href="#a"/><use xlink:href="#b" x="-.004" y="21.685"/><use xlink:href="#2"/><use xlink:href="#5" y="2.171"/><use xlink:href="#14" y="4.342"/><use xlink:href="#15" y="6.513"/><use xlink:href="#16" y="8.684"/><use xlink:href="#17" y="10.855"/><use xlink:href="#18" y="13.026"/><use xlink:href="#19" y="15.197"/><use xlink:href="#20" y="17.368"/><use xlink:href="#21" y="19.539"/></svg><svg x="6000"><use xlink:href="#a"/><use xlink:href="#b" x="40.996" y="21.685"/><use xlink:href="#2"/><use xlink:href="#5" y="2.171"/><use xlink:href="#14" y="4.342"/><use xlink:href="#15" y="6.513"/><use xlink:href="#16" y="8.684"/><use xlink:href="#17" y="10.855"/><use xlink:href="#18" y="13.026"/><use xlink:href="#19" y="15.197"/><use xlink:href="#20" y="17.368"/><use xlink:href="#21" y="19.539"/><use xlink:href="#3" y="21.71"/></svg><svg x="6080"><use xlink:href="#a"/><use xlink:href="#b" x="52.996" y="21.685"/><use xlink:href="#2"/><use xlink:href="#5" y="2.171"/><use xlink:href="#14" y="4.342"/><use xlink:href="#15" y="6.513"/><use xlink:href="#16" y="8.684"/><use xlink:href="#17" y="10.855"/><use xlink:href="#18" y="13.026"/><use xlink:href="#19" y="15.197"/><use xlink:href="#20" y="17.368"/><use xlink:href="#21" y="19.539"/><use xlink:href="#19" y="21.71"/></svg><svg x="6160"><use xlink:href="#a"/><use xlink:href="#b" x="53.996" y="21.685"/><use xlink:href="#2"/><use xlink:href="#5" y="2.171"/><use xlink:href="#14" y="4.342"/><use xlink:href="#15" y="6.513"/><use xlink:href="#16" y="8.684"/><use xlink:href="#17" y="10.855"/><use xlink:href="#18" y="13.026"/><use xlink:href="#19" y="15.197"/><use xlink:href="#20" y="17.368"/><use xlink:href="#21" y="19.539"/><use xlink:href="#19" y="21.71"/></svg><svg x="6240"><use xlink:href="#a"/><use xlink:href="#b" x="54.996" y="21.685"/><use xlink:href="#2"/><use xlink:href="#5" y="2.171"/><use xlink:href="#14" y="4.342"/><use xlink:href="#15" y="6.513"/><use xlink:href="#16" y="8.684"/><use xlink:href="#17" y="10.855"/><use xlink:href="#18" y="13.026"/><use xlink:href="#19" y="15.197"/><use xlink:href="#20" y="17.368"/><use xlink:href="#21" y="19.539"/><text y="23.38" class="f">opera</text><text x="5.01" y="23.38" class="g">:</text><text x="6.012" y="23.38" class="h">~/xopera-opera/examples/artifacts</text><text x="39.078" y="23.38" class="g">$</text><text x="41.082" y="23.38" class="g">opera</text><text x="47.094" y="23.38" class="g">deploy</text><text x="54.108" y="23.38" class="g">-</text></svg><svg x="6320"><use xlink:href="#a"/><use xlink:href="#b" x="55.996" y="21.685"/><use xlink:href="#2"/><use xlink:href="#5" y="2.171"/><use xlink:href="#14" y="4.342"/><use xlink:href="#15" y="6.513"/><use xlink:href="#16" y="8.684"/><use xlink:href="#17" y="10.855"/><use xlink:href="#18" y="13.026"/><use xlink:href="#19" y="15.197"/><use xlink:href="#20" y="17.368"/><use xlink:href="#21" y="19.539"/><use xlink:href="#22" y="21.71"/></svg><svg x="6400"><use xlink:href="#a"/><use xlink:href="#b" x="56.996" y="21.685"/><use xlink:href="#2"/><use xlink:href="#5" y="2.171"/><use xlink:href="#14" y="4.342"/><use xlink:href="#15" y="6.513"/><use xlink:href="#16" y="8.684"/><use xlink:href="#17" y="10.855"/><use xlink:href="#18" y="13.026"/><use xlink:href="#19" y="15.197"/><use xlink:href="#20" y="17.368"/><use xlink:href="#21" y="19.539"/><use xlink:href="#22" y="21.71"/></svg><svg x="6480"><use xlink:href="#a"/><use xlink:href="#b" x="57.996" y="21.685"/><use xlink:href="#2"/><use xlink:href="#5" y="2.171"/><use xlink:href="#14" y="4.342"/><use xlink:href="#15" y="6.513"/><use xlink:href="#16" y="8.684"/><use xlink:href="#17" y="10.855"/><use xlink:href="#18" y="13.026"/><use xlink:href="#19" y="15.197"/><use xlink:href="#20" y="17.368"/><use xlink:href="#21" y="19.539"/><text y="23.38" class="f">opera</text><text x="5.01" y="23.38" class="g">:</text><text x="6.012" y="23.38" class="h">~/xopera-opera/examples/artifacts</text><text x="39.078" y="23.38" class="g">$</text><text x="41.082" y="23.38" class="g">opera</text><text x="47.094" y="23.38" class="g">deploy</text><text x="54.108" y="23.38" class="g">-p</text><text x="57.114" y="23.38" class="g">.</text></svg><svg x="6560"><use xlink:href="#a"/><use xlink:href="#b" x="58.996" y="21.685"/><use xlink:href="#2"/><use xlink:href="#5" y="2.171"/><use xlink:href="#14" y="4.342"/><use xlink:href="#15" y="6.513"/><use xlink:href="#16" y="8.684"/><use xlink:href="#17" y="10.855"/><use xlink:href="#18" y="13.026"/><use xlink:href="#19" y="15.197"/><use xlink:href="#20" y="17.368"/><use xlink:href="#21" y="19.539"/><text y="23.38" class="f">opera</text><text x="5.01" y="23.38" class="g">:</text><text x="6.012" y="23.38" class="h">~/xopera-opera/examples/artifacts</text><text x="39.078" y="23.38" class="g">$</text><text x="41.082" y="23.38" class="g">opera</text><text x="47.094" y="23.38" class="g">deploy</text><text x="54.108" y="23.38" class="g">-p</text><text x="57.114" y="23.38" class="g">.s</text></svg><svg x="6640"><use xlink:href="#a"/><use xlink:href="#b" x="59.996" y="21.685"/><use xlink:href="#2"/><use xlink:href="#5" y="2.171"/><use xlink:href="#14" y="4.342"/><use xlink:href="#15" y="6.513"/><use xlink:href="#16" y="8.684"/><use xlink:href="#17" y="10.855"/><use xlink:href="#18" y="13.026"/><use xlink:href="#19" y="15.197"/><use xlink:href="#20" y="17.368"/><use xlink:href="#21" y="19.539"/><text y="23.38" class="f">opera</text><text x="5.01" y="23.38" class="g">:</text><text x="6.012" y="23.38" class="h">~/xopera-opera/examples/artifacts</text><text x="39.078" y="23.38" class="g">$</text><text x="41.082" y="23.38" class="g">opera</text><text x="47.094" y="23.38" class="g">deploy</text><text x="54.108" y="23.38" class="g">-p</text><text x="57.114" y="23.38" class="g">.st</text></svg><svg x="6720"><use xlink:href="#a"/><use xlink:href="#b" x="65.996" y="21.685"/><use xlink:href="#2"/><use xlink:href="#5" y="2.171"/><use xlink:href="#14" y="4.342"/><use xlink:href="#15" y="6.513"/><use xlink:href="#16" y="8.684"/><use xlink:href="#17" y="10.855"/><use xlink:href="#18" y="13.026"/><use xlink:href="#19" y="15.197"/><use xlink:href="#20" y="17.368"/><use xlink:href="#21" y="19.539"/><use xlink:href="#23" y="21.71"/></svg><svg x="6800"><use xlink:href="#a"/><use xlink:href="#b" x="-.004" y="23.856"/><use xlink:href="#2"/><use xlink:href="#5" y="2.171"/><use xlink:href="#14" y="4.342"/><use xlink:href="#15" y="6.513"/><use xlink:href="#16" y="8.684"/><use xlink:href="#17" y="10.855"/><use xlink:href="#18" y="13.026"/><use xlink:href="#19" y="15.197"/><use xlink:href="#20" y="17.368"/><use xlink:href="#21" y="19.539"/><use xlink:href="#23" y="21.71"/></svg><svg x="6880"><use xlink:href="#a"/><use xlink:href="#b" x="-.004" y="26.027"/><use xlink:href="#2"/><use xlink:href="#5" y="2.171"/><use xlink:href="#14" y="4.342"/><use xlink:href="#15" y="6.513"/><use xlink:href="#16" y="8.684"/><use xlink:href="#17" y="10.855"/><use xlink:href="#18" y="13.026"/><use xlink:href="#19" y="15.197"/><use xlink:href="#20" y="17.368"/><use xlink:href="#21" y="19.539"/><use xlink:href="#23" y="21.71"/><use xlink:href="#24" y="23.881"/></svg><svg x="6960"><use xlink:href="#a"/><use xlink:href="#b" x="-.004" y="28.198"/><use xlink:href="#2"/><use xlink:href="#5" y="2.171"/><use xlink:href="#14" y="4.342"/><use xlink:href="#15" y="6.513"/><use xlink:href="#16" y="8.684"/><use xlink:href="#17" y="10.855"/><use xlink:href="#18" y="13.026"/><use xlink:href="#19" y="15.197"/><use xlink:href="#20" y="17.368"/><use xlink:href="#21" y="19.539"/><use xlink:href="#23" y="21.71"/><use xlink:href="#24" y="23.881"/><use xlink:href="#25" y="26.052"/></svg><svg x="7040"><use xlink:href="#a"/><use xlink:href="#b" x="-.004" y="30.369"/><use xlink:href="#2"/><use xlink:href="#5" y="2.171"/><use xlink:href="#14" y="4.342"/><use xlink:href="#15" y="6.513"/><use xlink:href="#16" y="8.684"/><use xlink:href="#17" y="10.855"/><use xlink:href="#18" y="13.026"/><use xlink:href="#19" y="15.197"/><use xlink:href="#20" y="17.368"/><use xlink:href="#21" y="19.539"/><use xlink:href="#23" y="21.71"/><use xlink:href="#24" y="23.881"/><use xlink:href="#25" y="26.052"/><use xlink:href="#26" y="28.223"/></svg><svg x="7120"><use xlink:href="#a"/><use xlink:href="#b" x="40.996" y="30.369"/><use xlink:href="#2"/><use xlink:href="#5" y="2.171"/><use xlink:href="#14" y="4.342"/><use xlink:href="#15" y="6.513"/><use xlink:href="#16" y="8.684"/><use xlink:href="#17" y="10.855"/><use xlink:href="#18" y="13.026"/><use xlink:href="#19" y="15.197"/><use xlink:href="#20" y="17.368"/><use xlink:href="#21" y="19.539"/><use xlink:href="#23" y="21.71"/><use xlink:href="#24" y="23.881"/><use xlink:href="#25" y="26.052"/><use xlink:href="#26" y="28.223"/><use xlink:href="#3" y="30.394"/></svg><svg x="7200"><use xlink:href="#a"/><use xlink:href="#b" x="-.004" y="32.54"/><use xlink:href="#2"/><use xlink:href="#5" y="2.171"/><use xlink:href="#14" y="4.342"/><use xlink:href="#15" y="6.513"/><use xlink:href="#16" y="8.684"/><use xlink:href="#17" y="10.855"/><use xlink:href="#18" y="13.026"/><use xlink:href="#19" y="15.197"/><use xlink:href="#20" y="17.368"/><use xlink:href="#21" y="19.539"/><use xlink:href="#23" y="21.71"/><use xlink:href="#24" y="23.881"/><use xlink:href="#25" y="26.052"/><use xlink:href="#26" y="28.223"/><text y="32.064" class="f">opera</text><text x="5.01" y="32.064" class="g">:</text><text x="6.012" y="32.064" class="h">~/xopera-opera/examples/artifacts</text><text x="39.078" y="32.064" class="g">$</text><text x="41.082" y="32.064" class="g">exit</text></svg></svg></g></g></svg></svg>