<svg xmlns="http://www.w3.org/2000/svg" xmlns:xlink="http://www.w3.org/1999/xlink" width="690" height="233.68"><rect width="690" height="233.68" rx="5" ry="5" class="a"/><svg y="0%" x="0%"><circle cx="20" cy="20" r="6" fill="#ff5f58"/><circle cx="40" cy="20" r="6" fill="#ffbd2e"/><circle cx="60" cy="20" r="6" fill="#18c132"/></svg><svg height="173.68" viewBox="0 0 65 17.368" width="650" x="15" xmlns="http://www.w3.org/2000/svg" xmlns:xlink="http://www.w3.org/1999/xlink" y="50"><style>@keyframes k{0%{transform:translateX(-65px)}6.4%{transform:translateX(-130px)}8%{transform:translateX(-195px)}9.7%{transform:translateX(-260px)}11.9%{transform:translateX(-325px)}13.3%{transform:translateX(-390px)}14.3%{transform:translateX(-455px)}15.2%{transform:translateX(-520px)}20.3%{transform:translateX(-585px)}21.9%{transform:translateX(-650px)}23.2%{transform:translateX(-715px)}28.6%{transform:translateX(-780px)}29.3%{transform:translateX(-845px)}30.3%{transform:translateX(-910px)}33.7%{transform:translateX(-1040px)}42.4%{transform:translateX(-1105px)}43.6%{transform:translateX(-1170px)}44.1%{transform:translateX(-1235px)}45.3%{transform:translateX(-1300px)}46.3%{transform:translateX(-1365px)}48.4%{transform:translateX(-1430px)}49.3%{transform:translateX(-1495px)}50.4%{transform:translateX(-1560px)}50.9%{transform:translateX(-1625px)}52.3%{transform:translateX(-1690px)}53.4%{transform:translateX(-1755px)}54%{transform:translateX(-1820px)}57.1%{transform:translateX(-1885px)}62.6%{transform:translateX(-1950px)}64.2%{transform:translateX(-2015px)}66.6%{transform:translateX(-2080px)}72.3%{transform:translateX(-2145px)}74.9%{transform:translateX(-2340px)}91.7%{transform:translateX(-2405px)}to{transform:translateX(-2470px)}}.a{fill:#282d35}.f,.g,.h{white-space:pre}.f{fill:#a8cc8c;font-weight:700}.g,.h{fill:#b9c0cb}.h{fill:#71bef2;font-weight:700}</style><g font-family="Monaco,Consolas,Menlo,'Bitstream Vera Sans Mono','Powerline Symbols',monospace" font-size="1.67"><defs><symbol id="6"><text y="1.67" class="f">opera</text><text x="5.01" y="1.67" class="g">:</text><text x="6.012" y="1.67" class="h">~/xopera-opera/examples/hello</text><text x="35.07" y="1.67" class="g">$</text><text x="37.074" y="1.67" class="g">opera</text><text x="43.086" y="1.67" class="g">deploy</text><text x="50.1" y="1.67" class="g">service.yaml</text></symbol><symbol id="1"><text y="1.67" class="f">opera</text><text x="5.01" y="1.67" class="g">:</text><text x="6.012" y="1.67" class="h">~</text><text x="7.014" y="1.67" class="g">$</text><text x="9.018" y="1.67" class="g">cd</text></symbol><symbol id="3"><text y="1.67" class="f">opera</text><text x="5.01" y="1.67" class="g">:</text><text x="6.012" y="1.67" class="h">~/xopera-opera/examples/hello</text><text x="35.07" y="1.67" class="g">$</text></symbol><symbol id="4"><text y="1.67" class="f">opera</text><text x="5.01" y="1.67" class="g">:</text><text x="6.012" y="1.67" class="h">~/xopera-opera/examples/hello</text><text x="35.07" y="1.67" class="g">$</text><text x="37.074" y="1.67" class="g">opera</text></symbol><symbol id="5"><text y="1.67" class="f">opera</text><text x="5.01" y="1.67" class="g">:</text><text x="6.012" y="1.67" class="h">~/xopera-opera/examples/hello</text><text x="35.07" y="1.67" class="g">$</text><text x="37.074" y="1.67" class="g">opera</text><text x="43.086" y="1.67" class="g">deploy</text></symbol><symbol id="2"><text y="1.67" class="f">opera</text><text x="5.01" y="1.67" class="g">:</text><text x="6.012" y="1.67" class="h">~</text><text x="7.014" y="1.67" class="g">$</text><text x="9.018" y="1.67" class="g">cd</text><text x="12.024" y="1.67" class="g">xopera-opera/examples/hello/</text></symbol><symbol id="7"><text x="2.004" y="1.67" class="g">Deploying</text><text x="12.024" y="1.67" class="g">my-workstation_0</text></symbol><symbol id="8"><text x="2.004" y="1.67" class="g">Deploying</text><text x="12.024" y="1.67" class="g">hello_0</text></symbol><symbol id="9"><text x="4.008" y="1.67" class="g">Executing</text><text x="14.028" y="1.67" class="g">create</text><text x="21.042" y="1.67" class="g">on</text><text x="24.048" y="1.67" class="g">hello_0</text></symbol><symbol id="a"><path fill="transparent" d="M0 0h65v9H0z"/></symbol><symbol id="b"><path fill="#6f7683" d="M0 0h1.102v2.171H0z"/></symbol></defs><path class="a" d="M0 0h65v17.368H0z"/><g style="animation-duration:11.895610000000001s;animation-iteration-count:infinite;animation-name:k;animation-timing-function:steps(1,end)"><svg width="2535"><svg><use xlink:href="#a"/><use xlink:href="#b" x="-.004"/></svg><svg x="65"><use xlink:href="#a"/><use xlink:href="#b" x="8.996"/><text y="1.67" class="f">opera</text><text x="5.01" y="1.67" class="g">:</text><text x="6.012" y="1.67" class="h">~</text><text x="7.014" y="1.67" class="g">$</text></svg><svg x="130"><use xlink:href="#a"/><use xlink:href="#b" x="9.996"/><text y="1.67" class="f">opera</text><text x="5.01" y="1.67" class="g">:</text><text x="6.012" y="1.67" class="h">~</text><text x="7.014" y="1.67" class="g">$</text><text x="9.018" y="1.67" class="g">c</text></svg><svg x="195"><use xlink:href="#a"/><use xlink:href="#b" x="10.996"/><use xlink:href="#1"/></svg><svg x="260"><use xlink:href="#a"/><use xlink:href="#b" x="11.996"/><use xlink:href="#1"/></svg><svg x="325"><use xlink:href="#a"/><use xlink:href="#b" x="12.996"/><text y="1.67" class="f">opera</text><text x="5.01" y="1.67" class="g">:</text><text x="6.012" y="1.67" class="h">~</text><text x="7.014" y="1.67" class="g">$</text><text x="9.018" y="1.67" class="g">cd</text><text x="12.024" y="1.67" class="g">x</text></svg><svg x="390"><use xlink:href="#a"/><use xlink:href="#b" x="13.996"/><text y="1.67" class="f">opera</text><text x="5.01" y="1.67" class="g">:</text><text x="6.012" y="1.67" class="h">~</text><text x="7.014" y="1.67" class="g">$</text><text x="9.018" y="1.67" class="g">cd</text><text x="12.024" y="1.67" class="g">xo</text></svg><svg x="455"><use xlink:href="#a"/><use xlink:href="#b" x="14.996"/><text y="1.67" class="f">opera</text><text x="5.01" y="1.67" class="g">:</text><text x="6.012" y="1.67" class="h">~</text><text x="7.014" y="1.67" class="g">$</text><text x="9.018" y="1.67" class="g">cd</text><text x="12.024" y="1.67" class="g">xop</text></svg><svg x="520"><use xlink:href="#a"/><use xlink:href="#b" x="24.996"/><text y="1.67" class="f">opera</text><text x="5.01" y="1.67" class="g">:</text><text x="6.012" y="1.67" class="h">~</text><text x="7.014" y="1.67" class="g">$</text><text x="9.018" y="1.67" class="g">cd</text><text x="12.024" y="1.67" class="g">xopera-opera/</text></svg><svg x="585"><use xlink:href="#a"/><use xlink:href="#b" x="25.996"/><text y="1.67" class="f">opera</text><text x="5.01" y="1.67" class="g">:</text><text x="6.012" y="1.67" class="h">~</text><text x="7.014" y="1.67" class="g">$</text><text x="9.018" y="1.67" class="g">cd</text><text x="12.024" y="1.67" class="g">xopera-opera/e</text></svg><svg x="650"><use xlink:href="#a"/><use xlink:href="#b" x="26.996"/><text y="1.67" class="f">opera</text><text x="5.01" y="1.67" class="g">:</text><text x="6.012" y="1.67" class="h">~</text><text x="7.014" y="1.67" class="g">$</text><text x="9.018" y="1.67" class="g">cd</text><text x="12.024" y="1.67" class="g">xopera-opera/ex</text></svg><svg x="715"><use xlink:href="#a"/><use xlink:href="#b" x="33.996"/><text y="1.67" class="f">opera</text><text x="5.01" y="1.67" class="g">:</text><text x="6.012" y="1.67" class="h">~</text><text x="7.014" y="1.67" class="g">$</text><text x="9.018" y="1.67" class="g">cd</text><text x="12.024" y="1.67" class="g">xopera-opera/examples/</text></svg><svg x="780"><use xlink:href="#a"/><use xlink:href="#b" x="34.996"/><text y="1.67" class="f">opera</text><text x="5.01" y="1.67" class="g">:</text><text x="6.012" y="1.67" class="h">~</text><text x="7.014" y="1.67" class="g">$</text><text x="9.018" y="1.67" class="g">cd</text><text x="12.024" y="1.67" class="g">xopera-opera/examples/h</text></svg><svg x="845"><use xlink:href="#a"/><use xlink:href="#b" x="35.996"/><text y="1.67" class="f">opera</text><text x="5.01" y="1.67" class="g">:</text><text x="6.012" y="1.67" class="h">~</text><text x="7.014" y="1.67" class="g">$</text><text x="9.018" y="1.67" class="g">cd</text><text x="12.024" y="1.67" class="g">xopera-opera/examples/he</text></svg><svg x="910"><use xlink:href="#a"/><use xlink:href="#b" x="39.996"/><use xlink:href="#2"/></svg><svg x="975"><use xlink:href="#a"/><use xlink:href="#b" x="-.004" y="2.146"/><use xlink:href="#2"/></svg><svg x="1040"><use xlink:href="#a"/><use xlink:href="#b" x="36.996" y="2.146"/><use xlink:href="#2"/><use xlink:href="#3" y="2.171"/></svg><svg x="1105"><use xlink:href="#a"/><use xlink:href="#b" x="37.996" y="2.146"/><use xlink:href="#2"/><text y="3.841" class="f">opera</text><text x="5.01" y="3.841" class="g">:</text><text x="6.012" y="3.841" class="h">~/xopera-opera/examples/hello</text><text x="35.07" y="3.841" class="g">$</text><text x="37.074" y="3.841" class="g">o</text></svg><svg x="1170"><use xlink:href="#a"/><use xlink:href="#b" x="38.996" y="2.146"/><use xlink:href="#2"/><text y="3.841" class="f">opera</text><text x="5.01" y="3.841" class="g">:</text><text x="6.012" y="3.841" class="h">~/xopera-opera/examples/hello</text><text x="35.07" y="3.841" class="g">$</text><text x="37.074" y="3.841" class="g">op</text></svg><svg x="1235"><use xlink:href="#a"/><use xlink:href="#b" x="39.996" y="2.146"/><use xlink:href="#2"/><text y="3.841" class="f">opera</text><text x="5.01" y="3.841" class="g">:</text><text x="6.012" y="3.841" class="h">~/xopera-opera/examples/hello</text><text x="35.07" y="3.841" class="g">$</text><text x="37.074" y="3.841" class="g">ope</text></svg><svg x="1300"><use xlink:href="#a"/><use xlink:href="#b" x="40.996" y="2.146"/><use xlink:href="#2"/><text y="3.841" class="f">opera</text><text x="5.01" y="3.841" class="g">:</text><text x="6.012" y="3.841" class="h">~/xopera-opera/examples/hello</text><text x="35.07" y="3.841" class="g">$</text><text x="37.074" y="3.841" class="g">oper</text></svg><svg x="1365"><use xlink:href="#a"/><use xlink:href="#b" x="41.996" y="2.146"/><use xlink:href="#2"/><use xlink:href="#4" y="2.171"/></svg><svg x="1430"><use xlink:href="#a"/><use xlink:href="#b" x="42.996" y="2.146"/><use xlink:href="#2"/><use xlink:href="#4" y="2.171"/></svg><svg x="1495"><use xlink:href="#a"/><use xlink:href="#b" x="43.996" y="2.146"/><use xlink:href="#2"/><text y="3.841" class="f">opera</text><text x="5.01" y="3.841" class="g">:</text><text x="6.012" y="3.841" class="h">~/xopera-opera/examples/hello</text><text x="35.07" y="3.841" class="g">$</text><text x="37.074" y="3.841" class="g">opera</text><text x="43.086" y="3.841" class="g">d</text></svg><svg x="1560"><use xlink:href="#a"/><use xlink:href="#b" x="44.996" y="2.146"/><use xlink:href="#2"/><text y="3.841" class="f">opera</text><text x="5.01" y="3.841" class="g">:</text><text x="6.012" y="3.841" class="h">~/xopera-opera/examples/hello</text><text x="35.07" y="3.841" class="g">$</text><text x="37.074" y="3.841" class="g">opera</text><text x="43.086" y="3.841" class="g">de</text></svg><svg x="1625"><use xlink:href="#a"/><use xlink:href="#b" x="45.996" y="2.146"/><use xlink:href="#2"/><text y="3.841" class="f">opera</text><text x="5.01" y="3.841" class="g">:</text><text x="6.012" y="3.841" class="h">~/xopera-opera/examples/hello</text><text x="35.07" y="3.841" class="g">$</text><text x="37.074" y="3.841" class="g">opera</text><text x="43.086" y="3.841" class="g">dep</text></svg><svg x="1690"><use xlink:href="#a"/><use xlink:href="#b" x="46.996" y="2.146"/><use xlink:href="#2"/><text y="3.841" class="f">opera</text><text x="5.01" y="3.841" class="g">:</text><text x="6.012" y="3.841" class="h">~/xopera-opera/examples/hello</text><text x="35.07" y="3.841" class="g">$</text><text x="37.074" y="3.841" class="g">opera</text><text x="43.086" y="3.841" class="g">depl</text></svg><svg x="1755"><use xlink:href="#a"/><use xlink:href="#b" x="47.996" y="2.146"/><use xlink:href="#2"/><text y="3.841" class="f">opera</text><text x="5.01" y="3.841" class="g">:</text><text x="6.012" y="3.841" class="h">~/xopera-opera/examples/hello</text><text x="35.07" y="3.841" class="g">$</text><text x="37.074" y="3.841" class="g">opera</text><text x="43.086" y="3.841" class="g">deplo</text></svg><svg x="1820"><use xlink:href="#a"/><use xlink:href="#b" x="48.996" y="2.146"/><use xlink:href="#2"/><use xlink:href="#5" y="2.171"/></svg><svg x="1885"><use xlink:href="#a"/><use xlink:href="#b" x="49.996" y="2.146"/><use xlink:href="#2"/><use xlink:href="#5" y="2.171"/></svg><svg x="1950"><use xlink:href="#a"/><use xlink:href="#b" x="50.996" y="2.146"/><use xlink:href="#2"/><text y="3.841" class="f">opera</text><text x="5.01" y="3.841" class="g">:</text><text x="6.012" y="3.841" class="h">~/xopera-opera/examples/hello</text><text x="35.07" y="3.841" class="g">$</text><text x="37.074" y="3.841" class="g">opera</text><text x="43.086" y="3.841" class="g">deploy</text><text x="50.1" y="3.841" class="g">s</text></svg><svg x="2015"><use xlink:href="#a"/><use xlink:href="#b" x="51.996" y="2.146"/><use xlink:href="#2"/><text y="3.841" class="f">opera</text><text x="5.01" y="3.841" class="g">:</text><text x="6.012" y="3.841" class="h">~/xopera-opera/examples/hello</text><text x="35.07" y="3.841" class="g">$</text><text x="37.074" y="3.841" class="g">opera</text><text x="43.086" y="3.841" class="g">deploy</text><text x="50.1" y="3.841" class="g">se</text></svg><svg x="2080"><use xlink:href="#a"/><use xlink:href="#b" x="62.996" y="2.146"/><use xlink:href="#2"/><use xlink:href="#6" y="2.171"/></svg><svg x="2145"><use xlink:href="#a"/><use xlink:href="#b" x="-.004" y="4.317"/><use xlink:href="#2"/><use xlink:href="#6" y="2.171"/></svg><svg x="2210"><use xlink:href="#a"/><use xlink:href="#b" x="-.004" y="6.488"/><use xlink:href="#2"/><use xlink:href="#6" y="2.171"/><use xlink:href="#7" y="4.342"/></svg><svg x="2275"><use xlink:href="#a"/><use xlink:href="#b" x="-.004" y="8.659"/><use xlink:href="#2"/><use xlink:href="#6" y="2.171"/><use xlink:href="#7" y="4.342"/><use xlink:href="#8" y="6.513"/></svg><svg x="2340"><use xlink:href="#a"/><use xlink:href="#b" x="-.004" y="10.83"/><use xlink:href="#2"/><use xlink:href="#6" y="2.171"/><use xlink:href="#7" y="4.342"/><use xlink:href="#8" y="6.513"/><use xlink:href="#9" y="8.684"/></svg><svg x="2405"><use xlink:href="#a"/><use xlink:href="#b" x="36.996" y="10.83"/><use xlink:href="#2"/><use xlink:href="#6" y="2.171"/><use xlink:href="#7" y="4.342"/><use xlink:href="#8" y="6.513"/><use xlink:href="#9" y="8.684"/><use xlink:href="#3" y="10.855"/></svg><svg x="2470"><use xlink:href="#a"/><use xlink:href="#b" x="-.004" y="13.001"/><use xlink:href="#2"/><use xlink:href="#6" y="2.171"/><use xlink:href="#7" y="4.342"/><use xlink:href="#8" y="6.513"/><use xlink:href="#9" y="8.684"/><text y="12.525" class="f">opera</text><text x="5.01" y="12.525" class="g">:</text><text x="6.012" y="12.525" class="h">~/xopera-opera/examples/hello</text><text x="35.07" y="12.525" class="g">$</text><text x="37.074" y="12.525" class="g">exit</text></svg></svg></g></g></svg></svg>