<svg xmlns="http://www.w3.org/2000/svg" xmlns:xlink="http://www.w3.org/1999/xlink" width="940" height="494.2"><rect width="940" height="494.2" rx="5" ry="5" class="a"/><svg y="0%" x="0%"><circle cx="20" cy="20" r="6" fill="#ff5f58"/><circle cx="40" cy="20" r="6" fill="#ffbd2e"/><circle cx="60" cy="20" r="6" fill="#18c132"/></svg><svg height="434.2" viewBox="0 0 90 43.42" width="900" x="15" xmlns="http://www.w3.org/2000/svg" xmlns:xlink="http://www.w3.org/1999/xlink" y="50"><style>@keyframes k{0%{transform:translateX(0)}.08%{transform:translateX(-90px)}1.7%{transform:translateX(-180px)}2.38%{transform:translateX(-270px)}2.9%{transform:translateX(-360px)}3.39%{transform:translateX(-450px)}3.82%{transform:translateX(-540px)}4.47%{transform:translateX(-630px)}4.87%{transform:translateX(-720px)}6.85%{transform:translateX(-810px)}7.37%{transform:translateX(-900px)}7.83%{transform:translateX(-990px)}8.81%{transform:translateX(-1080px)}9.43%{transform:translateX(-1170px)}9.95%{transform:translateX(-1260px)}10.99%{transform:translateX(-1440px)}13.6%{transform:translateX(-1530px)}14.06%{transform:translateX(-1620px)}14.84%{transform:translateX(-1710px)}14.86%{transform:translateX(-1890px)}20.16%{transform:translateX(-1980px)}20.81%{transform:translateX(-2070px)}21.14%{transform:translateX(-2160px)}21.82%{transform:translateX(-2250px)}22.41%{transform:translateX(-2340px)}23.32%{transform:translateX(-2430px)}25.22%{transform:translateX(-2520px)}26.03%{transform:translateX(-2610px)}27.92%{transform:translateX(-2700px)}28.57%{transform:translateX(-2790px)}29.32%{transform:translateX(-2880px)}29.94%{transform:translateX(-2970px)}30.27%{transform:translateX(-3060px)}31.28%{transform:translateX(-3150px)}31.9%{transform:translateX(-3240px)}34.02%{transform:translateX(-3330px)}37.32%{transform:translateX(-3420px)}38.52%{transform:translateX(-3510px)}39.37%{transform:translateX(-3600px)}41.07%{transform:translateX(-3690px)}41.62%{transform:translateX(-3780px)}43.97%{transform:translateX(-3870px)}44.92%{transform:translateX(-3960px)}45.73%{transform:translateX(-4050px)}46.29%{transform:translateX(-4140px)}46.84%{transform:translateX(-4230px)}52.68%{transform:translateX(-4320px)}53.35%{transform:translateX(-4410px)}53.39%{transform:translateX(-4500px)}59.49%{transform:translateX(-4590px)}59.85%{transform:translateX(-4680px)}60.34%{transform:translateX(-4770px)}60.77%{transform:translateX(-4860px)}61.55%{transform:translateX(-4950px)}62.4%{transform:translateX(-5040px)}62.42%{transform:translateX(-5310px)}69.35%{transform:translateX(-5400px)}69.77%{transform:translateX(-5490px)}70.46%{transform:translateX(-5580px)}75.54%{transform:translateX(-5670px)}76.78%{transform:translateX(-5760px)}80.53%{transform:translateX(-5850px)}82.56%{transform:translateX(-5940px)}84.06%{transform:translateX(-6030px)}84.68%{transform:translateX(-6120px)}85.17%{transform:translateX(-6210px)}85.95%{transform:translateX(-6300px)}88.63%{transform:translateX(-6390px)}91.82%{transform:translateX(-6480px)}91.84%{transform:translateX(-6660px)}91.85%{transform:translateX(-6750px)}to{transform:translateX(-6840px)}}.a{fill:#282d35}.f,.g,.h{white-space:pre}.f{fill:#a8cc8c;font-weight:700}.g,.h{fill:#b9c0cb}.h{fill:#71bef2;font-weight:700}</style><g font-family="Monaco,Consolas,Menlo,'Bitstream Vera Sans Mono','Powerline Symbols',monospace" font-size="1.67"><defs><symbol id="12"><text y="1.67" class="f">opera</text><text x="5.01" y="1.67" class="g">:</text><text x="6.012" y="1.67" class="h">~/xopera-opera/docs/files</text><text x="31.062" y="1.67" class="g">$</text><text x="33.066" y="1.67" class="g">ls</text><text x="36.072" y="1.67" class="g">-l</text></symbol><symbol id="1"><text y="1.67" class="f">opera</text><text x="5.01" y="1.67" class="g">:</text><text x="6.012" y="1.67" class="h">~</text><text x="7.014" y="1.67" class="g">$</text><text x="9.018" y="1.67" class="g">cd</text></symbol><symbol id="3"><text y="1.67" class="f">opera</text><text x="5.01" y="1.67" class="g">:</text><text x="6.012" y="1.67" class="h">~/xopera-opera/docs/files</text><text x="31.062" y="1.67" class="g">$</text></symbol><symbol id="4"><text y="1.67" class="f">opera</text><text x="5.01" y="1.67" class="g">:</text><text x="6.012" y="1.67" class="h">~/xopera-opera/docs/files</text><text x="31.062" y="1.67" class="g">$</text><text x="33.066" y="1.67" class="g">l</text></symbol><symbol id="5"><text y="1.67" class="f">opera</text><text x="5.01" y="1.67" class="g">:</text><text x="6.012" y="1.67" class="h">~/xopera-opera/docs/files</text><text x="31.062" y="1.67" class="g">$</text><text x="33.066" y="1.67" class="g">ls</text></symbol><symbol id="6"><text y="1.67" class="h">csars</text><text x="7.014" y="1.67" class="g">small.csar</text></symbol><symbol id="7"><text y="1.67" class="f">opera</text><text x="5.01" y="1.67" class="g">:</text><text x="6.012" y="1.67" class="h">~/xopera-opera/docs/files</text><text x="31.062" y="1.67" class="g">$</text><text x="33.066" y="1.67" class="g">opera</text></symbol><symbol id="8"><text y="1.67" class="f">opera</text><text x="5.01" y="1.67" class="g">:</text><text x="6.012" y="1.67" class="h">~/xopera-opera/docs/files</text><text x="31.062" y="1.67" class="g">$</text><text x="33.066" y="1.67" class="g">opera</text><text x="39.078" y="1.67" class="g">unpackage</text></symbol><symbol id="9"><text y="1.67" class="f">opera</text><text x="5.01" y="1.67" class="g">:</text><text x="6.012" y="1.67" class="h">~/xopera-opera/docs/files</text><text x="31.062" y="1.67" class="g">$</text><text x="33.066" y="1.67" class="g">opera</text><text x="39.078" y="1.67" class="g">unpackage</text><text x="49.098" y="1.67" class="g">small.csar</text></symbol><symbol id="10"><text y="1.67" class="g">The</text><text x="4.008" y="1.67" class="g">CSAR</text><text x="9.018" y="1.67" class="g">was</text><text x="13.026" y="1.67" class="g">unpackaged</text><text x="24.048" y="1.67" class="g">to</text><text x="27.054" y="1.67" class="g">&apos;/home/opera/xopera-opera/docs/files/opera-unpackage-6a4776&apos;.</text></symbol><symbol id="11"><text y="1.67" class="f">opera</text><text x="5.01" y="1.67" class="g">:</text><text x="6.012" y="1.67" class="h">~/xopera-opera/docs/files</text><text x="31.062" y="1.67" class="g">$</text><text x="33.066" y="1.67" class="g">ls</text><text x="36.072" y="1.67" class="g">-</text></symbol><symbol id="2"><text y="1.67" class="f">opera</text><text x="5.01" y="1.67" class="g">:</text><text x="6.012" y="1.67" class="h">~</text><text x="7.014" y="1.67" class="g">$</text><text x="9.018" y="1.67" class="g">cd</text><text x="12.024" y="1.67" class="g">xopera-opera/docs/files/</text></symbol><symbol id="13"><text y="1.67" class="g">total</text><text x="6.012" y="1.67" class="g">12</text></symbol><symbol id="14"><text y="1.67" class="g">drwxrwxr-x</text><text x="11.022" y="1.67" class="g">4</text><text x="13.026" y="1.67" class="g">opera</text><text x="19.038" y="1.67" class="g">opera</text><text x="25.05" y="1.67" class="g">4096</text><text x="30.06" y="1.67" class="g">Dec</text><text x="34.068" y="1.67" class="g">15</text><text x="37.074" y="1.67" class="g">22:28</text><text x="43.086" y="1.67" class="h">csars</text></symbol><symbol id="15"><text y="1.67" class="g">drwxrwxr-x</text><text x="11.022" y="1.67" class="g">4</text><text x="13.026" y="1.67" class="g">opera</text><text x="19.038" y="1.67" class="g">opera</text><text x="25.05" y="1.67" class="g">4096</text><text x="30.06" y="1.67" class="g">Dec</text><text x="34.068" y="1.67" class="g">15</text><text x="37.074" y="1.67" class="g">22:30</text><text x="43.086" y="1.67" class="h">opera-unpackage-6a4776</text></symbol><symbol id="16"><text y="1.67" class="g">-rw-rw-r--</text><text x="11.022" y="1.67" class="g">1</text><text x="13.026" y="1.67" class="g">opera</text><text x="19.038" y="1.67" class="g">opera</text><text x="25.05" y="1.67" class="g">3641</text><text x="30.06" y="1.67" class="g">Dec</text><text x="34.068" y="1.67" class="g">15</text><text x="37.074" y="1.67" class="g">18:54</text><text x="43.086" y="1.67" class="g">small.csar</text></symbol><symbol id="17"><text y="1.67" class="f">opera</text><text x="5.01" y="1.67" class="g">:</text><text x="6.012" y="1.67" class="h">~/xopera-opera/docs/files</text><text x="31.062" y="1.67" class="g">$</text><text x="33.066" y="1.67" class="g">ls</text><text x="36.072" y="1.67" class="g">-l</text><text x="39.078" y="1.67" class="g">opera-unpackage-6a4776/</text></symbol><symbol id="18"><text y="1.67" class="g">total</text><text x="6.012" y="1.67" class="g">16</text></symbol><symbol id="19"><text y="1.67" class="g">drwxrwxr-x</text><text x="11.022" y="1.67" class="g">2</text><text x="13.026" y="1.67" class="g">opera</text><text x="19.038" y="1.67" class="g">opera</text><text x="25.05" y="1.67" class="g">4096</text><text x="30.06" y="1.67" class="g">Dec</text><text x="34.068" y="1.67" class="g">15</text><text x="37.074" y="1.67" class="g">22:30</text><text x="43.086" y="1.67" class="h">files</text></symbol><symbol id="20"><text y="1.67" class="g">drwxrwxr-x</text><text x="11.022" y="1.67" class="g">2</text><text x="13.026" y="1.67" class="g">opera</text><text x="19.038" y="1.67" class="g">opera</text><text x="25.05" y="1.67" class="g">4096</text><text x="30.06" y="1.67" class="g">Dec</text><text x="34.068" y="1.67" class="g">15</text><text x="37.074" y="1.67" class="g">22:30</text><text x="43.086" y="1.67" class="h">playbooks</text></symbol><symbol id="21"><text y="1.67" class="g">-rw-rw-r--</text><text x="11.022" y="1.67" class="g">1</text><text x="13.026" y="1.67" class="g">opera</text><text x="19.038" y="1.67" class="g">opera</text><text x="25.05" y="1.67" class="g">5834</text><text x="30.06" y="1.67" class="g">Dec</text><text x="34.068" y="1.67" class="g">15</text><text x="37.074" y="1.67" class="g">22:30</text><text x="43.086" y="1.67" class="g">service.yaml</text></symbol><symbol id="a"><path fill="transparent" d="M0 0h90v21H0z"/></symbol><symbol id="b"><path fill="#6f7683" d="M0 0h1.102v2.171H0z"/></symbol></defs><path class="a" d="M0 0h90v43.42H0z"/><g style="animation-duration:24.526023s;animation-iteration-count:infinite;animation-name:k;animation-timing-function:steps(1,end)"><svg width="6930"><svg><use xlink:href="#a"/><use xlink:href="#b" x="-.004"/></svg><svg x="90"><use xlink:href="#a"/><use xlink:href="#b" x="8.996"/><text y="1.67" class="f">opera</text><text x="5.01" y="1.67" class="g">:</text><text x="6.012" y="1.67" class="h">~</text><text x="7.014" y="1.67" class="g">$</text></svg><svg x="180"><use xlink:href="#a"/><use xlink:href="#b" x="9.996"/><text y="1.67" class="f">opera</text><text x="5.01" y="1.67" class="g">:</text><text x="6.012" y="1.67" class="h">~</text><text x="7.014" y="1.67" class="g">$</text><text x="9.018" y="1.67" class="g">c</text></svg><svg x="270"><use xlink:href="#a"/><use xlink:href="#b" x="10.996"/><use xlink:href="#1"/></svg><svg x="360"><use xlink:href="#a"/><use xlink:href="#b" x="11.996"/><use xlink:href="#1"/></svg><svg x="450"><use xlink:href="#a"/><use xlink:href="#b" x="12.996"/><text y="1.67" class="f">opera</text><text x="5.01" y="1.67" class="g">:</text><text x="6.012" y="1.67" class="h">~</text><text x="7.014" y="1.67" class="g">$</text><text x="9.018" y="1.67" class="g">cd</text><text x="12.024" y="1.67" class="g">x</text></svg><svg x="540"><use xlink:href="#a"/><use xlink:href="#b" x="13.996"/><text y="1.67" class="f">opera</text><text x="5.01" y="1.67" class="g">:</text><text x="6.012" y="1.67" class="h">~</text><text x="7.014" y="1.67" class="g">$</text><text x="9.018" y="1.67" class="g">cd</text><text x="12.024" y="1.67" class="g">xo</text></svg><svg x="630"><use xlink:href="#a"/><use xlink:href="#b" x="14.996"/><text y="1.67" class="f">opera</text><text x="5.01" y="1.67" class="g">:</text><text x="6.012" y="1.67" class="h">~</text><text x="7.014" y="1.67" class="g">$</text><text x="9.018" y="1.67" class="g">cd</text><text x="12.024" y="1.67" class="g">xop</text></svg><svg x="720"><use xlink:href="#a"/><use xlink:href="#b" x="24.996"/><text y="1.67" class="f">opera</text><text x="5.01" y="1.67" class="g">:</text><text x="6.012" y="1.67" class="h">~</text><text x="7.014" y="1.67" class="g">$</text><text x="9.018" y="1.67" class="g">cd</text><text x="12.024" y="1.67" class="g">xopera-opera/</text></svg><svg x="810"><use xlink:href="#a"/><use xlink:href="#b" x="25.996"/><text y="1.67" class="f">opera</text><text x="5.01" y="1.67" class="g">:</text><text x="6.012" y="1.67" class="h">~</text><text x="7.014" y="1.67" class="g">$</text><text x="9.018" y="1.67" class="g">cd</text><text x="12.024" y="1.67" class="g">xopera-opera/d</text></svg><svg x="900"><use xlink:href="#a"/><use xlink:href="#b" x="26.996"/><text y="1.67" class="f">opera</text><text x="5.01" y="1.67" class="g">:</text><text x="6.012" y="1.67" class="h">~</text><text x="7.014" y="1.67" class="g">$</text><text x="9.018" y="1.67" class="g">cd</text><text x="12.024" y="1.67" class="g">xopera-opera/do</text></svg><svg x="990"><use xlink:href="#a"/><use xlink:href="#b" x="29.996"/><text y="1.67" class="f">opera</text><text x="5.01" y="1.67" class="g">:</text><text x="6.012" y="1.67" class="h">~</text><text x="7.014" y="1.67" class="g">$</text><text x="9.018" y="1.67" class="g">cd</text><text x="12.024" y="1.67" class="g">xopera-opera/docs/</text></svg><svg x="1080"><use xlink:href="#a"/><use xlink:href="#b" x="30.996"/><text y="1.67" class="f">opera</text><text x="5.01" y="1.67" class="g">:</text><text x="6.012" y="1.67" class="h">~</text><text x="7.014" y="1.67" class="g">$</text><text x="9.018" y="1.67" class="g">cd</text><text x="12.024" y="1.67" class="g">xopera-opera/docs/f</text></svg><svg x="1170"><use xlink:href="#a"/><use xlink:href="#b" x="31.996"/><text y="1.67" class="f">opera</text><text x="5.01" y="1.67" class="g">:</text><text x="6.012" y="1.67" class="h">~</text><text x="7.014" y="1.67" class="g">$</text><text x="9.018" y="1.67" class="g">cd</text><text x="12.024" y="1.67" class="g">xopera-opera/docs/fi</text></svg><svg x="1260"><use xlink:href="#a"/><use xlink:href="#b" x="35.996"/><use xlink:href="#2"/></svg><svg x="1350"><use xlink:href="#a"/><use xlink:href="#b" x="-.004" y="2.146"/><use xlink:href="#2"/></svg><svg x="1440"><use xlink:href="#a"/><use xlink:href="#b" x="32.996" y="2.146"/><use xlink:href="#2"/><use xlink:href="#3" y="2.171"/></svg><svg x="1530"><use xlink:href="#a"/><use xlink:href="#b" x="33.996" y="2.146"/><use xlink:href="#2"/><use xlink:href="#4" y="2.171"/></svg><svg x="1620"><use xlink:href="#a"/><use xlink:href="#b" x="34.996" y="2.146"/><use xlink:href="#2"/><use xlink:href="#5" y="2.171"/></svg><svg x="1710"><use xlink:href="#a"/><use xlink:href="#b" x="-.004" y="4.317"/><use xlink:href="#2"/><use xlink:href="#5" y="2.171"/></svg><svg x="1800"><use xlink:href="#a"/><use xlink:href="#b" x="-.004" y="6.488"/><use xlink:href="#2"/><use xlink:href="#5" y="2.171"/><use xlink:href="#6" y="4.342"/></svg><svg x="1890"><use xlink:href="#a"/><use xlink:href="#b" x="32.996" y="6.488"/><use xlink:href="#2"/><use xlink:href="#5" y="2.171"/><use xlink:href="#6" y="4.342"/><use xlink:href="#3" y="6.513"/></svg><svg x="1980"><use xlink:href="#a"/><use xlink:href="#b" x="33.996" y="6.488"/><use xlink:href="#2"/><use xlink:href="#5" y="2.171"/><use xlink:href="#6" y="4.342"/><text y="8.183" class="f">opera</text><text x="5.01" y="8.183" class="g">:</text><text x="6.012" y="8.183" class="h">~/xopera-opera/docs/files</text><text x="31.062" y="8.183" class="g">$</text><text x="33.066" y="8.183" class="g">o</text></svg><svg x="2070"><use xlink:href="#a"/><use xlink:href="#b" x="34.996" y="6.488"/><use xlink:href="#2"/><use xlink:href="#5" y="2.171"/><use xlink:href="#6" y="4.342"/><text y="8.183" class="f">opera</text><text x="5.01" y="8.183" class="g">:</text><text x="6.012" y="8.183" class="h">~/xopera-opera/docs/files</text><text x="31.062" y="8.183" class="g">$</text><text x="33.066" y="8.183" class="g">op</text></svg><svg x="2160"><use xlink:href="#a"/><use xlink:href="#b" x="35.996" y="6.488"/><use xlink:href="#2"/><use xlink:href="#5" y="2.171"/><use xlink:href="#6" y="4.342"/><text y="8.183" class="f">opera</text><text x="5.01" y="8.183" class="g">:</text><text x="6.012" y="8.183" class="h">~/xopera-opera/docs/files</text><text x="31.062" y="8.183" class="g">$</text><text x="33.066" y="8.183" class="g">ope</text></svg><svg x="2250"><use xlink:href="#a"/><use xlink:href="#b" x="36.996" y="6.488"/><use xlink:href="#2"/><use xlink:href="#5" y="2.171"/><use xlink:href="#6" y="4.342"/><text y="8.183" class="f">opera</text><text x="5.01" y="8.183" class="g">:</text><text x="6.012" y="8.183" class="h">~/xopera-opera/docs/files</text><text x="31.062" y="8.183" class="g">$</text><text x="33.066" y="8.183" class="g">oper</text></svg><svg x="2340"><use xlink:href="#a"/><use xlink:href="#b" x="37.996" y="6.488"/><use xlink:href="#2"/><use xlink:href="#5" y="2.171"/><use xlink:href="#6" y="4.342"/><use xlink:href="#7" y="6.513"/></svg><svg x="2430"><use xlink:href="#a"/><use xlink:href="#b" x="38.996" y="6.488"/><use xlink:href="#2"/><use xlink:href="#5" y="2.171"/><use xlink:href="#6" y="4.342"/><use xlink:href="#7" y="6.513"/></svg><svg x="2520"><use xlink:href="#a"/><use xlink:href="#b" x="39.996" y="6.488"/><use xlink:href="#2"/><use xlink:href="#5" y="2.171"/><use xlink:href="#6" y="4.342"/><text y="8.183" class="f">opera</text><text x="5.01" y="8.183" class="g">:</text><text x="6.012" y="8.183" class="h">~/xopera-opera/docs/files</text><text x="31.062" y="8.183" class="g">$</text><text x="33.066" y="8.183" class="g">opera</text><text x="39.078" y="8.183" class="g">u</text></svg><svg x="2610"><use xlink:href="#a"/><use xlink:href="#b" x="40.996" y="6.488"/><use xlink:href="#2"/><use xlink:href="#5" y="2.171"/><use xlink:href="#6" y="4.342"/><text y="8.183" class="f">opera</text><text x="5.01" y="8.183" class="g">:</text><text x="6.012" y="8.183" class="h">~/xopera-opera/docs/files</text><text x="31.062" y="8.183" class="g">$</text><text x="33.066" y="8.183" class="g">opera</text><text x="39.078" y="8.183" class="g">un</text></svg><svg x="2700"><use xlink:href="#a"/><use xlink:href="#b" x="41.996" y="6.488"/><use xlink:href="#2"/><use xlink:href="#5" y="2.171"/><use xlink:href="#6" y="4.342"/><text y="8.183" class="f">opera</text><text x="5.01" y="8.183" class="g">:</text><text x="6.012" y="8.183" class="h">~/xopera-opera/docs/files</text><text x="31.062" y="8.183" class="g">$</text><text x="33.066" y="8.183" class="g">opera</text><text x="39.078" y="8.183" class="g">unp</text></svg><svg x="2790"><use xlink:href="#a"/><use xlink:href="#b" x="42.996" y="6.488"/><use xlink:href="#2"/><use xlink:href="#5" y="2.171"/><use xlink:href="#6" y="4.342"/><text y="8.183" class="f">opera</text><text x="5.01" y="8.183" class="g">:</text><text x="6.012" y="8.183" class="h">~/xopera-opera/docs/files</text><text x="31.062" y="8.183" class="g">$</text><text x="33.066" y="8.183" class="g">opera</text><text x="39.078" y="8.183" class="g">unpa</text></svg><svg x="2880"><use xlink:href="#a"/><use xlink:href="#b" x="43.996" y="6.488"/><use xlink:href="#2"/><use xlink:href="#5" y="2.171"/><use xlink:href="#6" y="4.342"/><text y="8.183" class="f">opera</text><text x="5.01" y="8.183" class="g">:</text><text x="6.012" y="8.183" class="h">~/xopera-opera/docs/files</text><text x="31.062" y="8.183" class="g">$</text><text x="33.066" y="8.183" class="g">opera</text><text x="39.078" y="8.183" class="g">unpac</text></svg><svg x="2970"><use xlink:href="#a"/><use xlink:href="#b" x="44.996" y="6.488"/><use xlink:href="#2"/><use xlink:href="#5" y="2.171"/><use xlink:href="#6" y="4.342"/><text y="8.183" class="f">opera</text><text x="5.01" y="8.183" class="g">:</text><text x="6.012" y="8.183" class="h">~/xopera-opera/docs/files</text><text x="31.062" y="8.183" class="g">$</text><text x="33.066" y="8.183" class="g">opera</text><text x="39.078" y="8.183" class="g">unpack</text></svg><svg x="3060"><use xlink:href="#a"/><use xlink:href="#b" x="45.996" y="6.488"/><use xlink:href="#2"/><use xlink:href="#5" y="2.171"/><use xlink:href="#6" y="4.342"/><text y="8.183" class="f">opera</text><text x="5.01" y="8.183" class="g">:</text><text x="6.012" y="8.183" class="h">~/xopera-opera/docs/files</text><text x="31.062" y="8.183" class="g">$</text><text x="33.066" y="8.183" class="g">opera</text><text x="39.078" y="8.183" class="g">unpacka</text></svg><svg x="3150"><use xlink:href="#a"/><use xlink:href="#b" x="46.996" y="6.488"/><use xlink:href="#2"/><use xlink:href="#5" y="2.171"/><use xlink:href="#6" y="4.342"/><text y="8.183" class="f">opera</text><text x="5.01" y="8.183" class="g">:</text><text x="6.012" y="8.183" class="h">~/xopera-opera/docs/files</text><text x="31.062" y="8.183" class="g">$</text><text x="33.066" y="8.183" class="g">opera</text><text x="39.078" y="8.183" class="g">unpackag</text></svg><svg x="3240"><use xlink:href="#a"/><use xlink:href="#b" x="47.996" y="6.488"/><use xlink:href="#2"/><use xlink:href="#5" y="2.171"/><use xlink:href="#6" y="4.342"/><use xlink:href="#8" y="6.513"/></svg><svg x="3330"><use xlink:href="#a"/><use xlink:href="#b" x="48.996" y="6.488"/><use xlink:href="#2"/><use xlink:href="#5" y="2.171"/><use xlink:href="#6" y="4.342"/><use xlink:href="#8" y="6.513"/></svg><svg x="3420"><use xlink:href="#a"/><use xlink:href="#b" x="49.996" y="6.488"/><use xlink:href="#2"/><use xlink:href="#5" y="2.171"/><use xlink:href="#6" y="4.342"/><text y="8.183" class="f">opera</text><text x="5.01" y="8.183" class="g">:</text><text x="6.012" y="8.183" class="h">~/xopera-opera/docs/files</text><text x="31.062" y="8.183" class="g">$</text><text x="33.066" y="8.183" class="g">opera</text><text x="39.078" y="8.183" class="g">unpackage</text><text x="49.098" y="8.183" class="g">s</text></svg><svg x="3510"><use xlink:href="#a"/><use xlink:href="#b" x="50.996" y="6.488"/><use xlink:href="#2"/><use xlink:href="#5" y="2.171"/><use xlink:href="#6" y="4.342"/><text y="8.183" class="f">opera</text><text x="5.01" y="8.183" class="g">:</text><text x="6.012" y="8.183" class="h">~/xopera-opera/docs/files</text><text x="31.062" y="8.183" class="g">$</text><text x="33.066" y="8.183" class="g">opera</text><text x="39.078" y="8.183" class="g">unpackage</text><text x="49.098" y="8.183" class="g">sm</text></svg><svg x="3600"><use xlink:href="#a"/><use xlink:href="#b" x="51.996" y="6.488"/><use xlink:href="#2"/><use xlink:href="#5" y="2.171"/><use xlink:href="#6" y="4.342"/><text y="8.183" class="f">opera</text><text x="5.01" y="8.183" class="g">:</text><text x="6.012" y="8.183" class="h">~/xopera-opera/docs/files</text><text x="31.062" y="8.183" class="g">$</text><text x="33.066" y="8.183" class="g">opera</text><text x="39.078" y="8.183" class="g">unpackage</text><text x="49.098" y="8.183" class="g">sma</text></svg><svg x="3690"><use xlink:href="#a"/><use xlink:href="#b" x="52.996" y="6.488"/><use xlink:href="#2"/><use xlink:href="#5" y="2.171"/><use xlink:href="#6" y="4.342"/><text y="8.183" class="f">opera</text><text x="5.01" y="8.183" class="g">:</text><text x="6.012" y="8.183" class="h">~/xopera-opera/docs/files</text><text x="31.062" y="8.183" class="g">$</text><text x="33.066" y="8.183" class="g">opera</text><text x="39.078" y="8.183" class="g">unpackage</text><text x="49.098" y="8.183" class="g">smal</text></svg><svg x="3780"><use xlink:href="#a"/><use xlink:href="#b" x="53.996" y="6.488"/><use xlink:href="#2"/><use xlink:href="#5" y="2.171"/><use xlink:href="#6" y="4.342"/><text y="8.183" class="f">opera</text><text x="5.01" y="8.183" class="g">:</text><text x="6.012" y="8.183" class="h">~/xopera-opera/docs/files</text><text x="31.062" y="8.183" class="g">$</text><text x="33.066" y="8.183" class="g">opera</text><text x="39.078" y="8.183" class="g">unpackage</text><text x="49.098" y="8.183" class="g">small</text></svg><svg x="3870"><use xlink:href="#a"/><use xlink:href="#b" x="54.996" y="6.488"/><use xlink:href="#2"/><use xlink:href="#5" y="2.171"/><use xlink:href="#6" y="4.342"/><text y="8.183" class="f">opera</text><text x="5.01" y="8.183" class="g">:</text><text x="6.012" y="8.183" class="h">~/xopera-opera/docs/files</text><text x="31.062" y="8.183" class="g">$</text><text x="33.066" y="8.183" class="g">opera</text><text x="39.078" y="8.183" class="g">unpackage</text><text x="49.098" y="8.183" class="g">small.</text></svg><svg x="3960"><use xlink:href="#a"/><use xlink:href="#b" x="55.996" y="6.488"/><use xlink:href="#2"/><use xlink:href="#5" y="2.171"/><use xlink:href="#6" y="4.342"/><text y="8.183" class="f">opera</text><text x="5.01" y="8.183" class="g">:</text><text x="6.012" y="8.183" class="h">~/xopera-opera/docs/files</text><text x="31.062" y="8.183" class="g">$</text><text x="33.066" y="8.183" class="g">opera</text><text x="39.078" y="8.183" class="g">unpackage</text><text x="49.098" y="8.183" class="g">small.c</text></svg><svg x="4050"><use xlink:href="#a"/><use xlink:href="#b" x="56.996" y="6.488"/><use xlink:href="#2"/><use xlink:href="#5" y="2.171"/><use xlink:href="#6" y="4.342"/><text y="8.183" class="f">opera</text><text x="5.01" y="8.183" class="g">:</text><text x="6.012" y="8.183" class="h">~/xopera-opera/docs/files</text><text x="31.062" y="8.183" class="g">$</text><text x="33.066" y="8.183" class="g">opera</text><text x="39.078" y="8.183" class="g">unpackage</text><text x="49.098" y="8.183" class="g">small.cs</text></svg><svg x="4140"><use xlink:href="#a"/><use xlink:href="#b" x="57.996" y="6.488"/><use xlink:href="#2"/><use xlink:href="#5" y="2.171"/><use xlink:href="#6" y="4.342"/><text y="8.183" class="f">opera</text><text x="5.01" y="8.183" class="g">:</text><text x="6.012" y="8.183" class="h">~/xopera-opera/docs/files</text><text x="31.062" y="8.183" class="g">$</text><text x="33.066" y="8.183" class="g">opera</text><text x="39.078" y="8.183" class="g">unpackage</text><text x="49.098" y="8.183" class="g">small.csa</text></svg><svg x="4230"><use xlink:href="#a"/><use xlink:href="#b" x="58.996" y="6.488"/><use xlink:href="#2"/><use xlink:href="#5" y="2.171"/><use xlink:href="#6" y="4.342"/><use xlink:href="#9" y="6.513"/></svg><svg x="4320"><use xlink:href="#a"/><use xlink:href="#b" x="-.004" y="8.659"/><use xlink:href="#2"/><use xlink:href="#5" y="2.171"/><use xlink:href="#6" y="4.342"/><use xlink:href="#9" y="6.513"/></svg><svg x="4410"><use xlink:href="#a"/><use xlink:href="#b" x="-.004" y="10.83"/><use xlink:href="#2"/><use xlink:href="#5" y="2.171"/><use xlink:href="#6" y="4.342"/><use xlink:href="#9" y="6.513"/><use xlink:href="#10" y="8.684"/></svg><svg x="4500"><use xlink:href="#a"/><use xlink:href="#b" x="32.996" y="10.83"/><use xlink:href="#2"/><use xlink:href="#5" y="2.171"/><use xlink:href="#6" y="4.342"/><use xlink:href="#9" y="6.513"/><use xlink:href="#10" y="8.684"/><use xlink:href="#3" y="10.855"/></svg><svg x="4590"><use xlink:href="#a"/><use xlink:href="#b" x="33.996" y="10.83"/><use xlink:href="#2"/><use xlink:href="#5" y="2.171"/><use xlink:href="#6" y="4.342"/><use xlink:href="#9" y="6.513"/><use xlink:href="#10" y="8.684"/><use xlink:href="#4" y="10.855"/></svg><svg x="4680"><use xlink:href="#a"/><use xlink:href="#b" x="34.996" y="10.83"/><use xlink:href="#2"/><use xlink:href="#5" y="2.171"/><use xlink:href="#6" y="4.342"/><use xlink:href="#9" y="6.513"/><use xlink:href="#10" y="8.684"/><use xlink:href="#5" y="10.855"/></svg><svg x="4770"><use xlink:href="#a"/><use xlink:href="#b" x="35.996" y="10.83"/><use xlink:href="#2"/><use xlink:href="#5" y="2.171"/><use xlink:href="#6" y="4.342"/><use xlink:href="#9" y="6.513"/><use xlink:href="#10" y="8.684"/><use xlink:href="#5" y="10.855"/></svg><svg x="4860"><use xlink:href="#a"/><use xlink:href="#b" x="36.996" y="10.83"/><use xlink:href="#2"/><use xlink:href="#5" y="2.171"/><use xlink:href="#6" y="4.342"/><use xlink:href="#9" y="6.513"/><use xlink:href="#10" y="8.684"/><use xlink:href="#11" y="10.855"/></svg><svg x="4950"><use xlink:href="#a"/><use xlink:href="#b" x="37.996" y="10.83"/><use xlink:href="#2"/><use xlink:href="#5" y="2.171"/><use xlink:href="#6" y="4.342"/><use xlink:href="#9" y="6.513"/><use xlink:href="#10" y="8.684"/><use xlink:href="#12" y="10.855"/></svg><svg x="5040"><use xlink:href="#a"/><use xlink:href="#b" x="-.004" y="13.001"/><use xlink:href="#2"/><use xlink:href="#5" y="2.171"/><use xlink:href="#6" y="4.342"/><use xlink:href="#9" y="6.513"/><use xlink:href="#10" y="8.684"/><use xlink:href="#12" y="10.855"/></svg><svg x="5130"><use xlink:href="#a"/><use xlink:href="#b" x="-.004" y="15.172"/><use xlink:href="#2"/><use xlink:href="#5" y="2.171"/><use xlink:href="#6" y="4.342"/><use xlink:href="#9" y="6.513"/><use xlink:href="#10" y="8.684"/><use xlink:href="#12" y="10.855"/><use xlink:href="#13" y="13.026"/></svg><svg x="5220"><use xlink:href="#a"/><use xlink:href="#b" x="-.004" y="21.685"/><use xlink:href="#2"/><use xlink:href="#5" y="2.171"/><use xlink:href="#6" y="4.342"/><use xlink:href="#9" y="6.513"/><use xlink:href="#10" y="8.684"/><use xlink:href="#12" y="10.855"/><use xlink:href="#13" y="13.026"/><use xlink:href="#14" y="15.197"/><use xlink:href="#15" y="17.368"/><use xlink:href="#16" y="19.539"/></svg><svg x="5310"><use xlink:href="#a"/><use xlink:href="#b" x="32.996" y="21.685"/><use xlink:href="#2"/><use xlink:href="#5" y="2.171"/><use xlink:href="#6" y="4.342"/><use xlink:href="#9" y="6.513"/><use xlink:href="#10" y="8.684"/><use xlink:href="#12" y="10.855"/><use xlink:href="#13" y="13.026"/><use xlink:href="#14" y="15.197"/><use xlink:href="#15" y="17.368"/><use xlink:href="#16" y="19.539"/><use xlink:href="#3" y="21.71"/></svg><svg x="5400"><use xlink:href="#a"/><use xlink:href="#b" x="33.996" y="21.685"/><use xlink:href="#2"/><use xlink:href="#5" y="2.171"/><use xlink:href="#6" y="4.342"/><use xlink:href="#9" y="6.513"/><use xlink:href="#10" y="8.684"/><use xlink:href="#12" y="10.855"/><use xlink:href="#13" y="13.026"/><use xlink:href="#14" y="15.197"/><use xlink:href="#15" y="17.368"/><use xlink:href="#16" y="19.539"/><use xlink:href="#4" y="21.71"/></svg><svg x="5490"><use xlink:href="#a"/><use xlink:href="#b" x="34.996" y="21.685"/><use xlink:href="#2"/><use xlink:href="#5" y="2.171"/><use xlink:href="#6" y="4.342"/><use xlink:href="#9" y="6.513"/><use xlink:href="#10" y="8.684"/><use xlink:href="#12" y="10.855"/><use xlink:href="#13" y="13.026"/><use xlink:href="#14" y="15.197"/><use xlink:href="#15" y="17.368"/><use xlink:href="#16" y="19.539"/><use xlink:href="#5" y="21.71"/></svg><svg x="5580"><use xlink:href="#a"/><use xlink:href="#b" x="35.996" y="21.685"/><use xlink:href="#2"/><use xlink:href="#5" y="2.171"/><use xlink:href="#6" y="4.342"/><use xlink:href="#9" y="6.513"/><use xlink:href="#10" y="8.684"/><use xlink:href="#12" y="10.855"/><use xlink:href="#13" y="13.026"/><use xlink:href="#14" y="15.197"/><use xlink:href="#15" y="17.368"/><use xlink:href="#16" y="19.539"/><use xlink:href="#5" y="21.71"/></svg><svg x="5670"><use xlink:href="#a"/><use xlink:href="#b" x="36.996" y="21.685"/><use xlink:href="#2"/><use xlink:href="#5" y="2.171"/><use xlink:href="#6" y="4.342"/><use xlink:href="#9" y="6.513"/><use xlink:href="#10" y="8.684"/><use xlink:href="#12" y="10.855"/><use xlink:href="#13" y="13.026"/><use xlink:href="#14" y="15.197"/><use xlink:href="#15" y="17.368"/><use xlink:href="#16" y="19.539"/><use xlink:href="#11" y="21.71"/></svg><svg x="5760"><use xlink:href="#a"/><use xlink:href="#b" x="37.996" y="21.685"/><use xlink:href="#2"/><use xlink:href="#5" y="2.171"/><use xlink:href="#6" y="4.342"/><use xlink:href="#9" y="6.513"/><use xlink:href="#10" y="8.684"/><use xlink:href="#12" y="10.855"/><use xlink:href="#13" y="13.026"/><use xlink:href="#14" y="15.197"/><use xlink:href="#15" y="17.368"/><use xlink:href="#16" y="19.539"/><use xlink:href="#12" y="21.71"/></svg><svg x="5850"><use xlink:href="#a"/><use xlink:href="#b" x="38.996" y="21.685"/><use xlink:href="#2"/><use xlink:href="#5" y="2.171"/><use xlink:href="#6" y="4.342"/><use xlink:href="#9" y="6.513"/><use xlink:href="#10" y="8.684"/><use xlink:href="#12" y="10.855"/><use xlink:href="#13" y="13.026"/><use xlink:href="#14" y="15.197"/><use xlink:href="#15" y="17.368"/><use xlink:href="#16" y="19.539"/><use xlink:href="#12" y="21.71"/></svg><svg x="5940"><use xlink:href="#a"/><use xlink:href="#b" x="39.996" y="21.685"/><use xlink:href="#2"/><use xlink:href="#5" y="2.171"/><use xlink:href="#6" y="4.342"/><use xlink:href="#9" y="6.513"/><use xlink:href="#10" y="8.684"/><use xlink:href="#12" y="10.855"/><use xlink:href="#13" y="13.026"/><use xlink:href="#14" y="15.197"/><use xlink:href="#15" y="17.368"/><use xlink:href="#16" y="19.539"/><text y="23.38" class="f">opera</text><text x="5.01" y="23.38" class="g">:</text><text x="6.012" y="23.38" class="h">~/xopera-opera/docs/files</text><text x="31.062" y="23.38" class="g">$</text><text x="33.066" y="23.38" class="g">ls</text><text x="36.072" y="23.38" class="g">-l</text><text x="39.078" y="23.38" class="g">o</text></svg><svg x="6030"><use xlink:href="#a"/><use xlink:href="#b" x="40.996" y="21.685"/><use xlink:href="#2"/><use xlink:href="#5" y="2.171"/><use xlink:href="#6" y="4.342"/><use xlink:href="#9" y="6.513"/><use xlink:href="#10" y="8.684"/><use xlink:href="#12" y="10.855"/><use xlink:href="#13" y="13.026"/><use xlink:href="#14" y="15.197"/><use xlink:href="#15" y="17.368"/><use xlink:href="#16" y="19.539"/><text y="23.38" class="f">opera</text><text x="5.01" y="23.38" class="g">:</text><text x="6.012" y="23.38" class="h">~/xopera-opera/docs/files</text><text x="31.062" y="23.38" class="g">$</text><text x="33.066" y="23.38" class="g">ls</text><text x="36.072" y="23.38" class="g">-l</text><text x="39.078" y="23.38" class="g">op</text></svg><svg x="6120"><use xlink:href="#a"/><use xlink:href="#b" x="41.996" y="21.685"/><use xlink:href="#2"/><use xlink:href="#5" y="2.171"/><use xlink:href="#6" y="4.342"/><use xlink:href="#9" y="6.513"/><use xlink:href="#10" y="8.684"/><use xlink:href="#12" y="10.855"/><use xlink:href="#13" y="13.026"/><use xlink:href="#14" y="15.197"/><use xlink:href="#15" y="17.368"/><use xlink:href="#16" y="19.539"/><text y="23.38" class="f">opera</text><text x="5.01" y="23.38" class="g">:</text><text x="6.012" y="23.38" class="h">~/xopera-opera/docs/files</text><text x="31.062" y="23.38" class="g">$</text><text x="33.066" y="23.38" class="g">ls</text><text x="36.072" y="23.38" class="g">-l</text><text x="39.078" y="23.38" class="g">ope</text></svg><svg x="6210"><use xlink:href="#a"/><use xlink:href="#b" x="42.996" y="21.685"/><use xlink:href="#2"/><use xlink:href="#5" y="2.171"/><use xlink:href="#6" y="4.342"/><use xlink:href="#9" y="6.513"/><use xlink:href="#10" y="8.684"/><use xlink:href="#12" y="10.855"/><use xlink:href="#13" y="13.026"/><use xlink:href="#14" y="15.197"/><use xlink:href="#15" y="17.368"/><use xlink:href="#16" y="19.539"/><text y="23.38" class="f">opera</text><text x="5.01" y="23.38" class="g">:</text><text x="6.012" y="23.38" class="h">~/xopera-opera/docs/files</text><text x="31.062" y="23.38" class="g">$</text><text x="33.066" y="23.38" class="g">ls</text><text x="36.072" y="23.38" class="g">-l</text><text x="39.078" y="23.38" class="g">oper</text></svg><svg x="6300"><use xlink:href="#a"/><use xlink:href="#b" x="43.996" y="21.685"/><use xlink:href="#2"/><use xlink:href="#5" y="2.171"/><use xlink:href="#6" y="4.342"/><use xlink:href="#9" y="6.513"/><use xlink:href="#10" y="8.684"/><use xlink:href="#12" y="10.855"/><use xlink:href="#13" y="13.026"/><use xlink:href="#14" y="15.197"/><use xlink:href="#15" y="17.368"/><use xlink:href="#16" y="19.539"/><text y="23.38" class="f">opera</text><text x="5.01" y="23.38" class="g">:</text><text x="6.012" y="23.38" class="h">~/xopera-opera/docs/files</text><text x="31.062" y="23.38" class="g">$</text><text x="33.066" y="23.38" class="g">ls</text><text x="36.072" y="23.38" class="g">-l</text><text x="39.078" y="23.38" class="g">opera</text></svg><svg x="6390"><use xlink:href="#a"/><use xlink:href="#b" x="61.996" y="21.685"/><use xlink:href="#2"/><use xlink:href="#5" y="2.171"/><use xlink:href="#6" y="4.342"/><use xlink:href="#9" y="6.513"/><use xlink:href="#10" y="8.684"/><use xlink:href="#12" y="10.855"/><use xlink:href="#13" y="13.026"/><use xlink:href="#14" y="15.197"/><use xlink:href="#15" y="17.368"/><use xlink:href="#16" y="19.539"/><use xlink:href="#17" y="21.71"/></svg><svg x="6480"><use xlink:href="#a"/><use xlink:href="#b" x="-.004" y="23.856"/><use xlink:href="#2"/><use xlink:href="#5" y="2.171"/><use xlink:href="#6" y="4.342"/><use xlink:href="#9" y="6.513"/><use xlink:href="#10" y="8.684"/><use xlink:href="#12" y="10.855"/><use xlink:href="#13" y="13.026"/><use xlink:href="#14" y="15.197"/><use xlink:href="#15" y="17.368"/><use xlink:href="#16" y="19.539"/><use xlink:href="#17" y="21.71"/></svg><svg x="6570"><use xlink:href="#a"/><use xlink:href="#b" x="-.004" y="26.027"/><use xlink:href="#2"/><use xlink:href="#5" y="2.171"/><use xlink:href="#6" y="4.342"/><use xlink:href="#9" y="6.513"/><use xlink:href="#10" y="8.684"/><use xlink:href="#12" y="10.855"/><use xlink:href="#13" y="13.026"/><use xlink:href="#14" y="15.197"/><use xlink:href="#15" y="17.368"/><use xlink:href="#16" y="19.539"/><use xlink:href="#17" y="21.71"/><use xlink:href="#18" y="23.881"/></svg><svg x="6660"><use xlink:href="#a"/><use xlink:href="#b" x="-.004" y="32.54"/><use xlink:href="#2"/><use xlink:href="#5" y="2.171"/><use xlink:href="#6" y="4.342"/><use xlink:href="#9" y="6.513"/><use xlink:href="#10" y="8.684"/><use xlink:href="#12" y="10.855"/><use xlink:href="#13" y="13.026"/><use xlink:href="#14" y="15.197"/><use xlink:href="#15" y="17.368"/><use xlink:href="#16" y="19.539"/><use xlink:href="#17" y="21.71"/><use xlink:href="#18" y="23.881"/><use xlink:href="#19" y="26.052"/><use xlink:href="#20" y="28.223"/><use xlink:href="#21" y="30.394"/></svg><svg x="6750"><use xlink:href="#a"/><use xlink:href="#b" x="32.996" y="32.54"/><use xlink:href="#2"/><use xlink:href="#5" y="2.171"/><use xlink:href="#6" y="4.342"/><use xlink:href="#9" y="6.513"/><use xlink:href="#10" y="8.684"/><use xlink:href="#12" y="10.855"/><use xlink:href="#13" y="13.026"/><use xlink:href="#14" y="15.197"/><use xlink:href="#15" y="17.368"/><use xlink:href="#16" y="19.539"/><use xlink:href="#17" y="21.71"/><use xlink:href="#18" y="23.881"/><use xlink:href="#19" y="26.052"/><use xlink:href="#20" y="28.223"/><use xlink:href="#21" y="30.394"/><use xlink:href="#3" y="32.565"/></svg><svg x="6840"><use xlink:href="#a"/><use xlink:href="#b" x="-.004" y="34.711"/><use xlink:href="#2"/><use xlink:href="#5" y="2.171"/><use xlink:href="#6" y="4.342"/><use xlink:href="#9" y="6.513"/><use xlink:href="#10" y="8.684"/><use xlink:href="#12" y="10.855"/><use xlink:href="#13" y="13.026"/><use xlink:href="#14" y="15.197"/><use xlink:href="#15" y="17.368"/><use xlink:href="#16" y="19.539"/><use xlink:href="#17" y="21.71"/><use xlink:href="#18" y="23.881"/><use xlink:href="#19" y="26.052"/><use xlink:href="#20" y="28.223"/><use xlink:href="#21" y="30.394"/><text y="34.235" class="f">opera</text><text x="5.01" y="34.235" class="g">:</text><text x="6.012" y="34.235" class="h">~/xopera-opera/docs/files</text><text x="31.062" y="34.235" class="g">$</text><text x="33.066" y="34.235" class="g">exit</text></svg></svg></g></g></svg></svg>