<svg xmlns="http://www.w3.org/2000/svg" xmlns:xlink="http://www.w3.org/1999/xlink" width="740" height="385.65"><rect width="740" height="385.65" rx="5" ry="5" class="a"/><svg y="0%" x="0%"><circle cx="20" cy="20" r="6" fill="#ff5f58"/><circle cx="40" cy="20" r="6" fill="#ffbd2e"/><circle cx="60" cy="20" r="6" fill="#18c132"/></svg><svg height="325.65" viewBox="0 0 70 32.565" width="700" x="15" xmlns="http://www.w3.org/2000/svg" xmlns:xlink="http://www.w3.org/1999/xlink" y="50"><style>@keyframes k{0%{transform:translateX(0)}.02%{transform:translateX(-70px)}3.48%{transform:translateX(-140px)}5.59%{transform:translateX(-210px)}6.61%{transform:translateX(-280px)}9.54%{transform:translateX(-350px)}10.23%{transform:translateX(-420px)}11.11%{transform:translateX(-490px)}11.8%{transform:translateX(-560px)}15.7%{transform:translateX(-630px)}16.62%{transform:translateX(-700px)}17.12%{transform:translateX(-770px)}20.98%{transform:translateX(-840px)}22.4%{transform:translateX(-910px)}23.46%{transform:translateX(-980px)}29.8%{transform:translateX(-1050px)}31.72%{transform:translateX(-1120px)}32.64%{transform:translateX(-1190px)}35.26%{transform:translateX(-1330px)}42.56%{transform:translateX(-1400px)}43.43%{transform:translateX(-1470px)}43.71%{transform:translateX(-1540px)}44.58%{transform:translateX(-1610px)}45.13%{transform:translateX(-1680px)}45.96%{transform:translateX(-1750px)}46.6%{transform:translateX(-1820px)}47.56%{transform:translateX(-1890px)}47.93%{transform:translateX(-1960px)}49.08%{transform:translateX(-2030px)}50.04%{transform:translateX(-2100px)}50.41%{transform:translateX(-2170px)}51.79%{transform:translateX(-2240px)}52.8%{transform:translateX(-2310px)}54.08%{transform:translateX(-2380px)}59.09%{transform:translateX(-2450px)}60.57%{transform:translateX(-2590px)}68.16%{transform:translateX(-2660px)}74.7%{transform:translateX(-2730px)}75.62%{transform:translateX(-2800px)}76.08%{transform:translateX(-2870px)}77.09%{transform:translateX(-2940px)}77.64%{transform:translateX(-3010px)}78.65%{transform:translateX(-3080px)}81.86%{transform:translateX(-3150px)}83.42%{transform:translateX(-3220px)}84.48%{transform:translateX(-3290px)}85.31%{transform:translateX(-3360px)}86.73%{transform:translateX(-3430px)}88.06%{transform:translateX(-3500px)}88.71%{transform:translateX(-3570px)}93.07%{transform:translateX(-3640px)}94.55%{transform:translateX(-3710px)}94.61%{transform:translateX(-3780px)}to{transform:translateX(-3850px)}}.a{fill:#282d35}.f,.g,.h{white-space:pre}.f{fill:#a8cc8c;font-weight:700}.g,.h{fill:#b9c0cb}.h{fill:#71bef2;font-weight:700}</style><g font-family="Monaco,Consolas,Menlo,'Bitstream Vera Sans Mono','Powerline Symbols',monospace" font-size="1.67"><defs><symbol id="11"><text x="2.004" y="1.67" class="g">Deploying</text><text x="12.024" y="1.67" class="g">my_node_0</text></symbol><symbol id="1"><text y="1.67" class="f">opera</text><text x="5.01" y="1.67" class="g">:</text><text x="6.012" y="1.67" class="h">~</text><text x="7.014" y="1.67" class="g">$</text><text x="9.018" y="1.67" class="g">cd</text></symbol><symbol id="3"><text y="1.67" class="f">opera</text><text x="5.01" y="1.67" class="g">:</text><text x="6.012" y="1.67" class="h">~/xopera-opera/examples/outputs</text><text x="37.074" y="1.67" class="g">$</text></symbol><symbol id="4"><text y="1.67" class="f">opera</text><text x="5.01" y="1.67" class="g">:</text><text x="6.012" y="1.67" class="h">~/xopera-opera/examples/outputs</text><text x="37.074" y="1.67" class="g">$</text><text x="39.078" y="1.67" class="g">o</text></symbol><symbol id="5"><text y="1.67" class="f">opera</text><text x="5.01" y="1.67" class="g">:</text><text x="6.012" y="1.67" class="h">~/xopera-opera/examples/outputs</text><text x="37.074" y="1.67" class="g">$</text><text x="39.078" y="1.67" class="g">op</text></symbol><symbol id="6"><text y="1.67" class="f">opera</text><text x="5.01" y="1.67" class="g">:</text><text x="6.012" y="1.67" class="h">~/xopera-opera/examples/outputs</text><text x="37.074" y="1.67" class="g">$</text><text x="39.078" y="1.67" class="g">ope</text></symbol><symbol id="7"><text y="1.67" class="f">opera</text><text x="5.01" y="1.67" class="g">:</text><text x="6.012" y="1.67" class="h">~/xopera-opera/examples/outputs</text><text x="37.074" y="1.67" class="g">$</text><text x="39.078" y="1.67" class="g">oper</text></symbol><symbol id="8"><text y="1.67" class="f">opera</text><text x="5.01" y="1.67" class="g">:</text><text x="6.012" y="1.67" class="h">~/xopera-opera/examples/outputs</text><text x="37.074" y="1.67" class="g">$</text><text x="39.078" y="1.67" class="g">opera</text></symbol><symbol id="9"><text y="1.67" class="f">opera</text><text x="5.01" y="1.67" class="g">:</text><text x="6.012" y="1.67" class="h">~/xopera-opera/examples/outputs</text><text x="37.074" y="1.67" class="g">$</text><text x="39.078" y="1.67" class="g">opera</text><text x="45.09" y="1.67" class="g">deploy</text></symbol><symbol id="10"><text y="1.67" class="f">opera</text><text x="5.01" y="1.67" class="g">:</text><text x="6.012" y="1.67" class="h">~/xopera-opera/examples/outputs</text><text x="37.074" y="1.67" class="g">$</text><text x="39.078" y="1.67" class="g">opera</text><text x="45.09" y="1.67" class="g">deploy</text><text x="52.104" y="1.67" class="g">service.yaml</text></symbol><symbol id="2"><text y="1.67" class="f">opera</text><text x="5.01" y="1.67" class="g">:</text><text x="6.012" y="1.67" class="h">~</text><text x="7.014" y="1.67" class="g">$</text><text x="9.018" y="1.67" class="g">cd</text><text x="12.024" y="1.67" class="g">xopera-opera/examples/outputs/</text></symbol><symbol id="12"><text x="4.008" y="1.67" class="g">Executing</text><text x="14.028" y="1.67" class="g">create</text><text x="21.042" y="1.67" class="g">on</text><text x="24.048" y="1.67" class="g">my_node_0</text></symbol><symbol id="13"><text y="1.67" class="f">opera</text><text x="5.01" y="1.67" class="g">:</text><text x="6.012" y="1.67" class="h">~/xopera-opera/examples/outputs</text><text x="37.074" y="1.67" class="g">$</text><text x="39.078" y="1.67" class="g">opera</text><text x="45.09" y="1.67" class="g">outputs</text></symbol><symbol id="14"><text y="1.67" class="g">output_attr:</text></symbol><symbol id="15"><text x="2.004" y="1.67" class="g">description:</text><text x="15.03" y="1.67" class="g">Example</text><text x="23.046" y="1.67" class="g">of</text><text x="26.052" y="1.67" class="g">attribute</text><text x="36.072" y="1.67" class="g">output</text></symbol><symbol id="16"><text x="2.004" y="1.67" class="g">value:</text><text x="9.018" y="1.67" class="g">my_custom_attribute_value</text></symbol><symbol id="17"><text y="1.67" class="g">output_prop:</text></symbol><symbol id="18"><text x="2.004" y="1.67" class="g">description:</text><text x="15.03" y="1.67" class="g">Example</text><text x="23.046" y="1.67" class="g">of</text><text x="26.052" y="1.67" class="g">property</text><text x="35.07" y="1.67" class="g">output</text></symbol><symbol id="19"><text x="2.004" y="1.67" class="g">value:</text><text x="9.018" y="1.67" class="g">123</text></symbol><symbol id="a"><path fill="transparent" d="M0 0h70v16H0z"/></symbol><symbol id="b"><path fill="#6f7683" d="M0 0h1.102v2.171H0z"/></symbol></defs><path class="a" d="M0 0h70v32.565H0z"/><g style="animation-duration:17.422692s;animation-iteration-count:infinite;animation-name:k;animation-timing-function:steps(1,end)"><svg width="3920"><svg><use xlink:href="#a"/><use xlink:href="#b" x="-.004"/></svg><svg x="70"><use xlink:href="#a"/><use xlink:href="#b" x="8.996"/><text y="1.67" class="f">opera</text><text x="5.01" y="1.67" class="g">:</text><text x="6.012" y="1.67" class="h">~</text><text x="7.014" y="1.67" class="g">$</text></svg><svg x="140"><use xlink:href="#a"/><use xlink:href="#b" x="9.996"/><text y="1.67" class="f">opera</text><text x="5.01" y="1.67" class="g">:</text><text x="6.012" y="1.67" class="h">~</text><text x="7.014" y="1.67" class="g">$</text><text x="9.018" y="1.67" class="g">c</text></svg><svg x="210"><use xlink:href="#a"/><use xlink:href="#b" x="10.996"/><use xlink:href="#1"/></svg><svg x="280"><use xlink:href="#a"/><use xlink:href="#b" x="11.996"/><use xlink:href="#1"/></svg><svg x="350"><use xlink:href="#a"/><use xlink:href="#b" x="12.996"/><text y="1.67" class="f">opera</text><text x="5.01" y="1.67" class="g">:</text><text x="6.012" y="1.67" class="h">~</text><text x="7.014" y="1.67" class="g">$</text><text x="9.018" y="1.67" class="g">cd</text><text x="12.024" y="1.67" class="g">x</text></svg><svg x="420"><use xlink:href="#a"/><use xlink:href="#b" x="13.996"/><text y="1.67" class="f">opera</text><text x="5.01" y="1.67" class="g">:</text><text x="6.012" y="1.67" class="h">~</text><text x="7.014" y="1.67" class="g">$</text><text x="9.018" y="1.67" class="g">cd</text><text x="12.024" y="1.67" class="g">xo</text></svg><svg x="490"><use xlink:href="#a"/><use xlink:href="#b" x="14.996"/><text y="1.67" class="f">opera</text><text x="5.01" y="1.67" class="g">:</text><text x="6.012" y="1.67" class="h">~</text><text x="7.014" y="1.67" class="g">$</text><text x="9.018" y="1.67" class="g">cd</text><text x="12.024" y="1.67" class="g">xop</text></svg><svg x="560"><use xlink:href="#a"/><use xlink:href="#b" x="18.996"/><text y="1.67" class="f">opera</text><text x="5.01" y="1.67" class="g">:</text><text x="6.012" y="1.67" class="h">~</text><text x="7.014" y="1.67" class="g">$</text><text x="9.018" y="1.67" class="g">cd</text><text x="12.024" y="1.67" class="g">xopera-</text></svg><svg x="630"><use xlink:href="#a"/><use xlink:href="#b" x="19.996"/><text y="1.67" class="f">opera</text><text x="5.01" y="1.67" class="g">:</text><text x="6.012" y="1.67" class="h">~</text><text x="7.014" y="1.67" class="g">$</text><text x="9.018" y="1.67" class="g">cd</text><text x="12.024" y="1.67" class="g">xopera-o</text></svg><svg x="700"><use xlink:href="#a"/><use xlink:href="#b" x="20.996"/><text y="1.67" class="f">opera</text><text x="5.01" y="1.67" class="g">:</text><text x="6.012" y="1.67" class="h">~</text><text x="7.014" y="1.67" class="g">$</text><text x="9.018" y="1.67" class="g">cd</text><text x="12.024" y="1.67" class="g">xopera-op</text></svg><svg x="770"><use xlink:href="#a"/><use xlink:href="#b" x="24.996"/><text y="1.67" class="f">opera</text><text x="5.01" y="1.67" class="g">:</text><text x="6.012" y="1.67" class="h">~</text><text x="7.014" y="1.67" class="g">$</text><text x="9.018" y="1.67" class="g">cd</text><text x="12.024" y="1.67" class="g">xopera-opera/</text></svg><svg x="840"><use xlink:href="#a"/><use xlink:href="#b" x="25.996"/><text y="1.67" class="f">opera</text><text x="5.01" y="1.67" class="g">:</text><text x="6.012" y="1.67" class="h">~</text><text x="7.014" y="1.67" class="g">$</text><text x="9.018" y="1.67" class="g">cd</text><text x="12.024" y="1.67" class="g">xopera-opera/e</text></svg><svg x="910"><use xlink:href="#a"/><use xlink:href="#b" x="26.996"/><text y="1.67" class="f">opera</text><text x="5.01" y="1.67" class="g">:</text><text x="6.012" y="1.67" class="h">~</text><text x="7.014" y="1.67" class="g">$</text><text x="9.018" y="1.67" class="g">cd</text><text x="12.024" y="1.67" class="g">xopera-opera/ex</text></svg><svg x="980"><use xlink:href="#a"/><use xlink:href="#b" x="33.996"/><text y="1.67" class="f">opera</text><text x="5.01" y="1.67" class="g">:</text><text x="6.012" y="1.67" class="h">~</text><text x="7.014" y="1.67" class="g">$</text><text x="9.018" y="1.67" class="g">cd</text><text x="12.024" y="1.67" class="g">xopera-opera/examples/</text></svg><svg x="1050"><use xlink:href="#a"/><use xlink:href="#b" x="34.996"/><text y="1.67" class="f">opera</text><text x="5.01" y="1.67" class="g">:</text><text x="6.012" y="1.67" class="h">~</text><text x="7.014" y="1.67" class="g">$</text><text x="9.018" y="1.67" class="g">cd</text><text x="12.024" y="1.67" class="g">xopera-opera/examples/o</text></svg><svg x="1120"><use xlink:href="#a"/><use xlink:href="#b" x="35.996"/><text y="1.67" class="f">opera</text><text x="5.01" y="1.67" class="g">:</text><text x="6.012" y="1.67" class="h">~</text><text x="7.014" y="1.67" class="g">$</text><text x="9.018" y="1.67" class="g">cd</text><text x="12.024" y="1.67" class="g">xopera-opera/examples/ou</text></svg><svg x="1190"><use xlink:href="#a"/><use xlink:href="#b" x="41.996"/><use xlink:href="#2"/></svg><svg x="1260"><use xlink:href="#a"/><use xlink:href="#b" x="-.004" y="2.146"/><use xlink:href="#2"/></svg><svg x="1330"><use xlink:href="#a"/><use xlink:href="#b" x="38.996" y="2.146"/><use xlink:href="#2"/><use xlink:href="#3" y="2.171"/></svg><svg x="1400"><use xlink:href="#a"/><use xlink:href="#b" x="39.996" y="2.146"/><use xlink:href="#2"/><use xlink:href="#4" y="2.171"/></svg><svg x="1470"><use xlink:href="#a"/><use xlink:href="#b" x="40.996" y="2.146"/><use xlink:href="#2"/><use xlink:href="#5" y="2.171"/></svg><svg x="1540"><use xlink:href="#a"/><use xlink:href="#b" x="41.996" y="2.146"/><use xlink:href="#2"/><use xlink:href="#6" y="2.171"/></svg><svg x="1610"><use xlink:href="#a"/><use xlink:href="#b" x="42.996" y="2.146"/><use xlink:href="#2"/><use xlink:href="#7" y="2.171"/></svg><svg x="1680"><use xlink:href="#a"/><use xlink:href="#b" x="43.996" y="2.146"/><use xlink:href="#2"/><use xlink:href="#8" y="2.171"/></svg><svg x="1750"><use xlink:href="#a"/><use xlink:href="#b" x="44.996" y="2.146"/><use xlink:href="#2"/><use xlink:href="#8" y="2.171"/></svg><svg x="1820"><use xlink:href="#a"/><use xlink:href="#b" x="45.996" y="2.146"/><use xlink:href="#2"/><text y="3.841" class="f">opera</text><text x="5.01" y="3.841" class="g">:</text><text x="6.012" y="3.841" class="h">~/xopera-opera/examples/outputs</text><text x="37.074" y="3.841" class="g">$</text><text x="39.078" y="3.841" class="g">opera</text><text x="45.09" y="3.841" class="g">d</text></svg><svg x="1890"><use xlink:href="#a"/><use xlink:href="#b" x="46.996" y="2.146"/><use xlink:href="#2"/><text y="3.841" class="f">opera</text><text x="5.01" y="3.841" class="g">:</text><text x="6.012" y="3.841" class="h">~/xopera-opera/examples/outputs</text><text x="37.074" y="3.841" class="g">$</text><text x="39.078" y="3.841" class="g">opera</text><text x="45.09" y="3.841" class="g">de</text></svg><svg x="1960"><use xlink:href="#a"/><use xlink:href="#b" x="47.996" y="2.146"/><use xlink:href="#2"/><text y="3.841" class="f">opera</text><text x="5.01" y="3.841" class="g">:</text><text x="6.012" y="3.841" class="h">~/xopera-opera/examples/outputs</text><text x="37.074" y="3.841" class="g">$</text><text x="39.078" y="3.841" class="g">opera</text><text x="45.09" y="3.841" class="g">dep</text></svg><svg x="2030"><use xlink:href="#a"/><use xlink:href="#b" x="48.996" y="2.146"/><use xlink:href="#2"/><text y="3.841" class="f">opera</text><text x="5.01" y="3.841" class="g">:</text><text x="6.012" y="3.841" class="h">~/xopera-opera/examples/outputs</text><text x="37.074" y="3.841" class="g">$</text><text x="39.078" y="3.841" class="g">opera</text><text x="45.09" y="3.841" class="g">depl</text></svg><svg x="2100"><use xlink:href="#a"/><use xlink:href="#b" x="49.996" y="2.146"/><use xlink:href="#2"/><text y="3.841" class="f">opera</text><text x="5.01" y="3.841" class="g">:</text><text x="6.012" y="3.841" class="h">~/xopera-opera/examples/outputs</text><text x="37.074" y="3.841" class="g">$</text><text x="39.078" y="3.841" class="g">opera</text><text x="45.09" y="3.841" class="g">deplo</text></svg><svg x="2170"><use xlink:href="#a"/><use xlink:href="#b" x="50.996" y="2.146"/><use xlink:href="#2"/><use xlink:href="#9" y="2.171"/></svg><svg x="2240"><use xlink:href="#a"/><use xlink:href="#b" x="51.996" y="2.146"/><use xlink:href="#2"/><use xlink:href="#9" y="2.171"/></svg><svg x="2310"><use xlink:href="#a"/><use xlink:href="#b" x="52.996" y="2.146"/><use xlink:href="#2"/><text y="3.841" class="f">opera</text><text x="5.01" y="3.841" class="g">:</text><text x="6.012" y="3.841" class="h">~/xopera-opera/examples/outputs</text><text x="37.074" y="3.841" class="g">$</text><text x="39.078" y="3.841" class="g">opera</text><text x="45.09" y="3.841" class="g">deploy</text><text x="52.104" y="3.841" class="g">s</text></svg><svg x="2380"><use xlink:href="#a"/><use xlink:href="#b" x="64.996" y="2.146"/><use xlink:href="#2"/><use xlink:href="#10" y="2.171"/></svg><svg x="2450"><use xlink:href="#a"/><use xlink:href="#b" x="-.004" y="4.317"/><use xlink:href="#2"/><use xlink:href="#10" y="2.171"/></svg><svg x="2520"><use xlink:href="#a"/><use xlink:href="#b" x="-.004" y="6.488"/><use xlink:href="#2"/><use xlink:href="#10" y="2.171"/><use xlink:href="#11" y="4.342"/></svg><svg x="2590"><use xlink:href="#a"/><use xlink:href="#b" x="-.004" y="8.659"/><use xlink:href="#2"/><use xlink:href="#10" y="2.171"/><use xlink:href="#11" y="4.342"/><use xlink:href="#12" y="6.513"/></svg><svg x="2660"><use xlink:href="#a"/><use xlink:href="#b" x="38.996" y="8.659"/><use xlink:href="#2"/><use xlink:href="#10" y="2.171"/><use xlink:href="#11" y="4.342"/><use xlink:href="#12" y="6.513"/><use xlink:href="#3" y="8.684"/></svg><svg x="2730"><use xlink:href="#a"/><use xlink:href="#b" x="39.996" y="8.659"/><use xlink:href="#2"/><use xlink:href="#10" y="2.171"/><use xlink:href="#11" y="4.342"/><use xlink:href="#12" y="6.513"/><use xlink:href="#4" y="8.684"/></svg><svg x="2800"><use xlink:href="#a"/><use xlink:href="#b" x="40.996" y="8.659"/><use xlink:href="#2"/><use xlink:href="#10" y="2.171"/><use xlink:href="#11" y="4.342"/><use xlink:href="#12" y="6.513"/><use xlink:href="#5" y="8.684"/></svg><svg x="2870"><use xlink:href="#a"/><use xlink:href="#b" x="41.996" y="8.659"/><use xlink:href="#2"/><use xlink:href="#10" y="2.171"/><use xlink:href="#11" y="4.342"/><use xlink:href="#12" y="6.513"/><use xlink:href="#6" y="8.684"/></svg><svg x="2940"><use xlink:href="#a"/><use xlink:href="#b" x="42.996" y="8.659"/><use xlink:href="#2"/><use xlink:href="#10" y="2.171"/><use xlink:href="#11" y="4.342"/><use xlink:href="#12" y="6.513"/><use xlink:href="#7" y="8.684"/></svg><svg x="3010"><use xlink:href="#a"/><use xlink:href="#b" x="43.996" y="8.659"/><use xlink:href="#2"/><use xlink:href="#10" y="2.171"/><use xlink:href="#11" y="4.342"/><use xlink:href="#12" y="6.513"/><use xlink:href="#8" y="8.684"/></svg><svg x="3080"><use xlink:href="#a"/><use xlink:href="#b" x="44.996" y="8.659"/><use xlink:href="#2"/><use xlink:href="#10" y="2.171"/><use xlink:href="#11" y="4.342"/><use xlink:href="#12" y="6.513"/><use xlink:href="#8" y="8.684"/></svg><svg x="3150"><use xlink:href="#a"/><use xlink:href="#b" x="45.996" y="8.659"/><use xlink:href="#2"/><use xlink:href="#10" y="2.171"/><use xlink:href="#11" y="4.342"/><use xlink:href="#12" y="6.513"/><text y="10.354" class="f">opera</text><text x="5.01" y="10.354" class="g">:</text><text x="6.012" y="10.354" class="h">~/xopera-opera/examples/outputs</text><text x="37.074" y="10.354" class="g">$</text><text x="39.078" y="10.354" class="g">opera</text><text x="45.09" y="10.354" class="g">o</text></svg><svg x="3220"><use xlink:href="#a"/><use xlink:href="#b" x="46.996" y="8.659"/><use xlink:href="#2"/><use xlink:href="#10" y="2.171"/><use xlink:href="#11" y="4.342"/><use xlink:href="#12" y="6.513"/><text y="10.354" class="f">opera</text><text x="5.01" y="10.354" class="g">:</text><text x="6.012" y="10.354" class="h">~/xopera-opera/examples/outputs</text><text x="37.074" y="10.354" class="g">$</text><text x="39.078" y="10.354" class="g">opera</text><text x="45.09" y="10.354" class="g">ou</text></svg><svg x="3290"><use xlink:href="#a"/><use xlink:href="#b" x="47.996" y="8.659"/><use xlink:href="#2"/><use xlink:href="#10" y="2.171"/><use xlink:href="#11" y="4.342"/><use xlink:href="#12" y="6.513"/><text y="10.354" class="f">opera</text><text x="5.01" y="10.354" class="g">:</text><text x="6.012" y="10.354" class="h">~/xopera-opera/examples/outputs</text><text x="37.074" y="10.354" class="g">$</text><text x="39.078" y="10.354" class="g">opera</text><text x="45.09" y="10.354" class="g">out</text></svg><svg x="3360"><use xlink:href="#a"/><use xlink:href="#b" x="48.996" y="8.659"/><use xlink:href="#2"/><use xlink:href="#10" y="2.171"/><use xlink:href="#11" y="4.342"/><use xlink:href="#12" y="6.513"/><text y="10.354" class="f">opera</text><text x="5.01" y="10.354" class="g">:</text><text x="6.012" y="10.354" class="h">~/xopera-opera/examples/outputs</text><text x="37.074" y="10.354" class="g">$</text><text x="39.078" y="10.354" class="g">opera</text><text x="45.09" y="10.354" class="g">outp</text></svg><svg x="3430"><use xlink:href="#a"/><use xlink:href="#b" x="49.996" y="8.659"/><use xlink:href="#2"/><use xlink:href="#10" y="2.171"/><use xlink:href="#11" y="4.342"/><use xlink:href="#12" y="6.513"/><text y="10.354" class="f">opera</text><text x="5.01" y="10.354" class="g">:</text><text x="6.012" y="10.354" class="h">~/xopera-opera/examples/outputs</text><text x="37.074" y="10.354" class="g">$</text><text x="39.078" y="10.354" class="g">opera</text><text x="45.09" y="10.354" class="g">outpu</text></svg><svg x="3500"><use xlink:href="#a"/><use xlink:href="#b" x="50.996" y="8.659"/><use xlink:href="#2"/><use xlink:href="#10" y="2.171"/><use xlink:href="#11" y="4.342"/><use xlink:href="#12" y="6.513"/><text y="10.354" class="f">opera</text><text x="5.01" y="10.354" class="g">:</text><text x="6.012" y="10.354" class="h">~/xopera-opera/examples/outputs</text><text x="37.074" y="10.354" class="g">$</text><text x="39.078" y="10.354" class="g">opera</text><text x="45.09" y="10.354" class="g">output</text></svg><svg x="3570"><use xlink:href="#a"/><use xlink:href="#b" x="51.996" y="8.659"/><use xlink:href="#2"/><use xlink:href="#10" y="2.171"/><use xlink:href="#11" y="4.342"/><use xlink:href="#12" y="6.513"/><use xlink:href="#13" y="8.684"/></svg><svg x="3640"><use xlink:href="#a"/><use xlink:href="#b" x="-.004" y="10.83"/><use xlink:href="#2"/><use xlink:href="#10" y="2.171"/><use xlink:href="#11" y="4.342"/><use xlink:href="#12" y="6.513"/><use xlink:href="#13" y="8.684"/></svg><svg x="3710"><use xlink:href="#a"/><use xlink:href="#b" x="-.004" y="26.027"/><use xlink:href="#2"/><use xlink:href="#10" y="2.171"/><use xlink:href="#11" y="4.342"/><use xlink:href="#12" y="6.513"/><use xlink:href="#13" y="8.684"/><use xlink:href="#14" y="10.855"/><use xlink:href="#15" y="13.026"/><use xlink:href="#16" y="15.197"/><use xlink:href="#17" y="17.368"/><use xlink:href="#18" y="19.539"/><use xlink:href="#19" y="21.71"/></svg><svg x="3780"><use xlink:href="#a"/><use xlink:href="#b" x="38.996" y="26.027"/><use xlink:href="#2"/><use xlink:href="#10" y="2.171"/><use xlink:href="#11" y="4.342"/><use xlink:href="#12" y="6.513"/><use xlink:href="#13" y="8.684"/><use xlink:href="#14" y="10.855"/><use xlink:href="#15" y="13.026"/><use xlink:href="#16" y="15.197"/><use xlink:href="#17" y="17.368"/><use xlink:href="#18" y="19.539"/><use xlink:href="#19" y="21.71"/><use xlink:href="#3" y="26.052"/></svg><svg x="3850"><use xlink:href="#a"/><use xlink:href="#b" x="-.004" y="28.198"/><use xlink:href="#2"/><use xlink:href="#10" y="2.171"/><use xlink:href="#11" y="4.342"/><use xlink:href="#12" y="6.513"/><use xlink:href="#13" y="8.684"/><use xlink:href="#14" y="10.855"/><use xlink:href="#15" y="13.026"/><use xlink:href="#16" y="15.197"/><use xlink:href="#17" y="17.368"/><use xlink:href="#18" y="19.539"/><use xlink:href="#19" y="21.71"/><text y="27.722" class="f">opera</text><text x="5.01" y="27.722" class="g">:</text><text x="6.012" y="27.722" class="h">~/xopera-opera/examples/outputs</text><text x="37.074" y="27.722" class="g">$</text><text x="39.078" y="27.722" class="g">exit</text></svg></svg></g></g></svg></svg>